G04 Layer_Color=16711935*
%FSLAX25Y25*%
%MOIN*%
G70*
G01*
G75*
%ADD11C,0.00787*%
%ADD12C,0.01575*%
%ADD14C,0.01181*%
%ADD53C,0.00984*%
%ADD54C,0.00394*%
%ADD62C,0.00591*%
G36*
X1121080Y-83717D02*
Y-84003D01*
Y-84290D01*
Y-84576D01*
Y-84862D01*
Y-85149D01*
Y-85435D01*
Y-85721D01*
Y-86007D01*
Y-86294D01*
Y-86580D01*
Y-86866D01*
Y-87153D01*
Y-87439D01*
Y-87725D01*
Y-88012D01*
Y-88298D01*
Y-88584D01*
Y-88871D01*
Y-89157D01*
Y-89443D01*
X1120793D01*
Y-89730D01*
Y-90016D01*
Y-90302D01*
Y-90588D01*
Y-90875D01*
X1120507D01*
Y-91161D01*
Y-91448D01*
Y-91734D01*
Y-92020D01*
X1120221D01*
Y-92306D01*
Y-92593D01*
Y-92879D01*
Y-93165D01*
X1119934D01*
Y-93452D01*
Y-93738D01*
Y-94024D01*
X1119648D01*
Y-94311D01*
Y-94597D01*
Y-94883D01*
X1119362D01*
Y-95170D01*
Y-95456D01*
Y-95742D01*
X1119075D01*
Y-96029D01*
Y-96315D01*
Y-96601D01*
X1118789D01*
Y-96887D01*
Y-97174D01*
X1118503D01*
Y-97460D01*
Y-97746D01*
X1118217D01*
Y-98033D01*
Y-98319D01*
Y-98605D01*
X1117930D01*
Y-98892D01*
Y-99178D01*
X1117644D01*
Y-99464D01*
Y-99751D01*
Y-100037D01*
X1117358D01*
Y-100323D01*
Y-100610D01*
X1117071D01*
Y-100896D01*
Y-101182D01*
Y-101468D01*
X1116785D01*
Y-101755D01*
Y-102041D01*
X1116499D01*
Y-102327D01*
Y-102614D01*
Y-102900D01*
X1116212D01*
Y-103186D01*
Y-103473D01*
X1115926D01*
Y-103759D01*
Y-104045D01*
Y-104332D01*
X1115640D01*
Y-104618D01*
Y-104904D01*
X1115353D01*
Y-105191D01*
Y-105477D01*
Y-105763D01*
X1115067D01*
Y-106049D01*
Y-106336D01*
X1114781D01*
Y-106622D01*
Y-106908D01*
Y-107195D01*
X1114494D01*
Y-107481D01*
Y-107767D01*
X1114208D01*
Y-108054D01*
Y-108340D01*
Y-108626D01*
X1113922D01*
Y-108913D01*
Y-109199D01*
X1113636D01*
Y-109485D01*
Y-109772D01*
Y-110058D01*
X1113349D01*
Y-110344D01*
Y-110630D01*
X1113063D01*
Y-110917D01*
Y-111203D01*
Y-111489D01*
X1112776D01*
Y-111776D01*
Y-112062D01*
X1112490D01*
Y-112348D01*
Y-112635D01*
Y-112921D01*
X1112204D01*
Y-113207D01*
Y-113494D01*
X1111918D01*
Y-113780D01*
Y-114066D01*
Y-114353D01*
X1111631D01*
Y-114639D01*
Y-114925D01*
X1111345D01*
Y-115211D01*
Y-115498D01*
Y-115784D01*
X1111059D01*
Y-116070D01*
Y-116357D01*
X1110772D01*
Y-116643D01*
Y-116929D01*
Y-117216D01*
X1110486D01*
Y-117502D01*
Y-117788D01*
X1110200D01*
Y-118075D01*
Y-118361D01*
Y-118647D01*
X1109913D01*
Y-118933D01*
Y-119220D01*
X1109627D01*
Y-119506D01*
Y-119792D01*
Y-120079D01*
X1109341D01*
Y-120365D01*
Y-120651D01*
X1109054D01*
Y-120938D01*
Y-121224D01*
X1108768D01*
Y-121510D01*
Y-121797D01*
X1108482D01*
Y-122083D01*
Y-122369D01*
Y-122656D01*
X1108195D01*
Y-122942D01*
X1107909D01*
Y-123228D01*
Y-123514D01*
Y-123801D01*
X1107623D01*
Y-124087D01*
X1107337D01*
Y-124373D01*
Y-124660D01*
X1107050D01*
Y-124946D01*
Y-125232D01*
X1106764D01*
Y-125519D01*
Y-125805D01*
X1106478D01*
Y-126091D01*
Y-126378D01*
X1106191D01*
Y-126664D01*
X1105905D01*
Y-126950D01*
Y-127237D01*
X1105619D01*
Y-127523D01*
Y-127809D01*
X1105332D01*
Y-128095D01*
X1105046D01*
Y-128382D01*
X1104760D01*
Y-128668D01*
Y-128954D01*
X1104473D01*
Y-129241D01*
X1104187D01*
Y-129527D01*
Y-129813D01*
X1103901D01*
Y-130100D01*
X1103615D01*
Y-130386D01*
X1103328D01*
Y-130672D01*
Y-130959D01*
X1103042D01*
Y-131245D01*
X1102756D01*
Y-131531D01*
X1102469D01*
Y-131818D01*
X1102183D01*
Y-132104D01*
X1101897D01*
Y-132390D01*
Y-132676D01*
X1101610D01*
Y-132963D01*
X1101324D01*
Y-133249D01*
X1101038D01*
Y-133535D01*
X1100751D01*
Y-133822D01*
X1100465D01*
Y-134108D01*
X1100179D01*
Y-134394D01*
X1099892D01*
Y-134681D01*
X1099320D01*
Y-134967D01*
X1099034D01*
Y-135253D01*
X1098747D01*
Y-135540D01*
X1098461D01*
Y-135826D01*
X1098175D01*
Y-136112D01*
X1097602D01*
Y-136399D01*
X1097316D01*
Y-136685D01*
X1096743D01*
Y-136971D01*
X1096457D01*
Y-137258D01*
X1095884D01*
Y-137544D01*
X1095598D01*
Y-137830D01*
X1095025D01*
Y-138117D01*
X1094452D01*
Y-138403D01*
X1093880D01*
Y-138689D01*
X1093307D01*
Y-138975D01*
X1092735D01*
Y-139262D01*
X1091876D01*
Y-139548D01*
X1091303D01*
Y-139834D01*
X1090444D01*
Y-140121D01*
X1089299D01*
Y-140407D01*
X1088154D01*
Y-140693D01*
X1086436D01*
Y-140980D01*
X1084432D01*
Y-141266D01*
X1084145D01*
Y-140980D01*
Y-140693D01*
Y-140407D01*
Y-140121D01*
Y-139834D01*
Y-139548D01*
Y-139262D01*
Y-138975D01*
Y-138689D01*
Y-138403D01*
Y-138117D01*
Y-137830D01*
Y-137544D01*
Y-137258D01*
Y-136971D01*
Y-136685D01*
Y-136399D01*
Y-136112D01*
Y-135826D01*
Y-135540D01*
Y-135253D01*
Y-134967D01*
Y-134681D01*
Y-134394D01*
Y-134108D01*
Y-133822D01*
Y-133535D01*
Y-133249D01*
Y-132963D01*
Y-132676D01*
Y-132390D01*
Y-132104D01*
Y-131818D01*
X1084718D01*
Y-131531D01*
X1085291D01*
Y-131245D01*
X1085863D01*
Y-130959D01*
X1086436D01*
Y-130672D01*
X1087008D01*
Y-130386D01*
X1087581D01*
Y-130100D01*
X1087867D01*
Y-129813D01*
X1088440D01*
Y-129527D01*
X1088726D01*
Y-129241D01*
X1089299D01*
Y-128954D01*
X1089585D01*
Y-128668D01*
X1089872D01*
Y-128382D01*
X1090444D01*
Y-128095D01*
X1090730D01*
Y-127809D01*
X1091017D01*
Y-127523D01*
X1091303D01*
Y-127237D01*
X1091589D01*
Y-126950D01*
X1091876D01*
Y-126664D01*
X1092162D01*
Y-126378D01*
X1092448D01*
Y-126091D01*
X1092735D01*
Y-125805D01*
X1093021D01*
Y-125519D01*
X1093307D01*
Y-125232D01*
X1093594D01*
Y-124946D01*
Y-124660D01*
X1093880D01*
Y-124373D01*
X1094166D01*
Y-124087D01*
X1094452D01*
Y-123801D01*
Y-123514D01*
X1094739D01*
Y-123228D01*
X1095025D01*
Y-122942D01*
Y-122656D01*
X1095311D01*
Y-122369D01*
Y-122083D01*
X1095598D01*
Y-121797D01*
X1095884D01*
Y-121510D01*
Y-121224D01*
X1096170D01*
Y-120938D01*
Y-120651D01*
X1096457D01*
Y-120365D01*
Y-120079D01*
X1094739D01*
Y-119792D01*
X1092735D01*
Y-119506D01*
X1091589D01*
Y-119220D01*
X1091017D01*
Y-118933D01*
X1090158D01*
Y-118647D01*
X1089585D01*
Y-118361D01*
X1089299D01*
Y-118075D01*
X1088726D01*
Y-117788D01*
X1088440D01*
Y-117502D01*
X1088154D01*
Y-117216D01*
X1087867D01*
Y-116929D01*
X1087581D01*
Y-116643D01*
X1087295D01*
Y-116357D01*
Y-116070D01*
X1087008D01*
Y-115784D01*
X1086722D01*
Y-115498D01*
Y-115211D01*
X1086436D01*
Y-114925D01*
Y-114639D01*
X1086149D01*
Y-114353D01*
Y-114066D01*
X1085863D01*
Y-113780D01*
Y-113494D01*
Y-113207D01*
X1085577D01*
Y-112921D01*
Y-112635D01*
Y-112348D01*
Y-112062D01*
X1085291D01*
Y-111776D01*
Y-111489D01*
Y-111203D01*
Y-110917D01*
Y-110630D01*
Y-110344D01*
Y-110058D01*
X1085004D01*
Y-109772D01*
Y-109485D01*
Y-109199D01*
Y-108913D01*
Y-108626D01*
Y-108340D01*
Y-108054D01*
Y-107767D01*
Y-107481D01*
Y-107195D01*
Y-106908D01*
Y-106622D01*
Y-106336D01*
Y-106049D01*
Y-105763D01*
X1084718D01*
Y-105477D01*
Y-105191D01*
Y-104904D01*
Y-104618D01*
Y-104332D01*
Y-104045D01*
Y-103759D01*
Y-103473D01*
Y-103186D01*
Y-102900D01*
Y-102614D01*
Y-102327D01*
Y-102041D01*
Y-101755D01*
Y-101468D01*
X1084432D01*
Y-101182D01*
Y-100896D01*
Y-100610D01*
Y-100323D01*
Y-100037D01*
Y-99751D01*
Y-99464D01*
Y-99178D01*
Y-98892D01*
Y-98605D01*
Y-98319D01*
Y-98033D01*
Y-97746D01*
Y-97460D01*
Y-97174D01*
Y-96887D01*
X1084145D01*
Y-96601D01*
Y-96315D01*
Y-96029D01*
Y-95742D01*
Y-95456D01*
Y-95170D01*
Y-94883D01*
Y-94597D01*
Y-94311D01*
Y-94024D01*
Y-93738D01*
Y-93452D01*
Y-93165D01*
Y-92879D01*
Y-92593D01*
Y-92306D01*
X1083859D01*
Y-92020D01*
Y-91734D01*
Y-91448D01*
Y-91161D01*
Y-90875D01*
Y-90588D01*
Y-90302D01*
Y-90016D01*
Y-89730D01*
Y-89443D01*
Y-89157D01*
Y-88871D01*
Y-88584D01*
Y-88298D01*
X1083573D01*
Y-88012D01*
Y-87725D01*
Y-87439D01*
Y-87153D01*
Y-86866D01*
Y-86580D01*
Y-86294D01*
Y-86007D01*
Y-85721D01*
Y-85435D01*
Y-85149D01*
Y-84862D01*
Y-84576D01*
Y-84290D01*
Y-84003D01*
Y-83717D01*
X1083286D01*
Y-83431D01*
X1097029D01*
Y-83717D01*
Y-84003D01*
Y-84290D01*
Y-84576D01*
Y-84862D01*
Y-85149D01*
Y-85435D01*
Y-85721D01*
Y-86007D01*
Y-86294D01*
Y-86580D01*
Y-86866D01*
Y-87153D01*
Y-87439D01*
X1097316D01*
Y-87725D01*
Y-88012D01*
Y-88298D01*
Y-88584D01*
Y-88871D01*
Y-89157D01*
Y-89443D01*
Y-89730D01*
Y-90016D01*
Y-90302D01*
Y-90588D01*
Y-90875D01*
Y-91161D01*
Y-91448D01*
Y-91734D01*
Y-92020D01*
Y-92306D01*
Y-92593D01*
Y-92879D01*
Y-93165D01*
Y-93452D01*
Y-93738D01*
Y-94024D01*
Y-94311D01*
Y-94597D01*
Y-94883D01*
Y-95170D01*
Y-95456D01*
Y-95742D01*
Y-96029D01*
Y-96315D01*
Y-96601D01*
Y-96887D01*
Y-97174D01*
Y-97460D01*
Y-97746D01*
Y-98033D01*
Y-98319D01*
Y-98605D01*
Y-98892D01*
Y-99178D01*
X1097602D01*
Y-99464D01*
X1097316D01*
Y-99751D01*
Y-100037D01*
X1097602D01*
Y-100323D01*
Y-100610D01*
Y-100896D01*
Y-101182D01*
Y-101468D01*
Y-101755D01*
Y-102041D01*
Y-102327D01*
Y-102614D01*
Y-102900D01*
Y-103186D01*
Y-103473D01*
Y-103759D01*
Y-104045D01*
Y-104332D01*
Y-104618D01*
Y-104904D01*
Y-105191D01*
Y-105477D01*
Y-105763D01*
Y-106049D01*
Y-106336D01*
Y-106622D01*
Y-106908D01*
Y-107195D01*
Y-107481D01*
X1097888D01*
Y-107767D01*
Y-108054D01*
Y-108340D01*
X1098175D01*
Y-108626D01*
X1098461D01*
Y-108913D01*
X1098747D01*
Y-109199D01*
X1099606D01*
Y-109485D01*
X1100465D01*
Y-109199D01*
X1100751D01*
Y-108913D01*
Y-108626D01*
Y-108340D01*
X1101038D01*
Y-108054D01*
Y-107767D01*
X1101324D01*
Y-107481D01*
Y-107195D01*
Y-106908D01*
X1101610D01*
Y-106622D01*
Y-106336D01*
Y-106049D01*
X1101897D01*
Y-105763D01*
Y-105477D01*
Y-105191D01*
X1102183D01*
Y-104904D01*
Y-104618D01*
Y-104332D01*
X1102469D01*
Y-104045D01*
Y-103759D01*
X1102756D01*
Y-103473D01*
Y-103186D01*
Y-102900D01*
X1103042D01*
Y-102614D01*
Y-102327D01*
Y-102041D01*
X1103328D01*
Y-101755D01*
Y-101468D01*
Y-101182D01*
X1103615D01*
Y-100896D01*
Y-100610D01*
X1103901D01*
Y-100323D01*
Y-100037D01*
Y-99751D01*
X1104187D01*
Y-99464D01*
Y-99178D01*
Y-98892D01*
X1104473D01*
Y-98605D01*
Y-98319D01*
Y-98033D01*
X1104760D01*
Y-97746D01*
Y-97460D01*
X1105046D01*
Y-97174D01*
Y-96887D01*
Y-96601D01*
X1105332D01*
Y-96315D01*
Y-96029D01*
Y-95742D01*
X1105619D01*
Y-95456D01*
Y-95170D01*
Y-94883D01*
X1105905D01*
Y-94597D01*
Y-94311D01*
X1106191D01*
Y-94024D01*
Y-93738D01*
Y-93452D01*
X1106478D01*
Y-93165D01*
Y-92879D01*
Y-92593D01*
X1106764D01*
Y-92306D01*
Y-92020D01*
Y-91734D01*
X1107050D01*
Y-91448D01*
Y-91161D01*
Y-90875D01*
Y-90588D01*
X1107337D01*
Y-90302D01*
Y-90016D01*
Y-89730D01*
Y-89443D01*
X1107623D01*
Y-89157D01*
Y-88871D01*
Y-88584D01*
Y-88298D01*
Y-88012D01*
X1107909D01*
Y-87725D01*
Y-87439D01*
Y-87153D01*
Y-86866D01*
Y-86580D01*
Y-86294D01*
X1108195D01*
Y-86007D01*
Y-85721D01*
Y-85435D01*
Y-85149D01*
Y-84862D01*
Y-84576D01*
Y-84290D01*
Y-84003D01*
Y-83717D01*
Y-83431D01*
X1121080D01*
Y-83717D01*
D02*
G37*
G36*
X1063244Y-66252D02*
Y-66538D01*
X1062958D01*
Y-66825D01*
Y-67111D01*
Y-67397D01*
Y-67684D01*
Y-67970D01*
Y-68256D01*
X1062672D01*
Y-68542D01*
Y-68829D01*
Y-69115D01*
Y-69401D01*
Y-69688D01*
Y-69974D01*
X1062385D01*
Y-70260D01*
Y-70547D01*
Y-70833D01*
Y-71119D01*
Y-71406D01*
Y-71692D01*
Y-71978D01*
X1062099D01*
Y-72264D01*
Y-72551D01*
Y-72837D01*
Y-73123D01*
Y-73410D01*
Y-73696D01*
X1061813D01*
Y-73982D01*
Y-74269D01*
Y-74555D01*
Y-74841D01*
Y-75128D01*
Y-75414D01*
X1061526D01*
Y-75700D01*
Y-75987D01*
Y-76273D01*
Y-76559D01*
Y-76846D01*
Y-77132D01*
Y-77418D01*
X1061240D01*
Y-77704D01*
Y-77991D01*
Y-78277D01*
Y-78563D01*
Y-78850D01*
Y-79136D01*
X1060954D01*
Y-79422D01*
Y-79709D01*
Y-79995D01*
Y-80281D01*
Y-80568D01*
Y-80854D01*
X1060668D01*
Y-81140D01*
Y-81427D01*
Y-81713D01*
Y-81999D01*
Y-82285D01*
Y-82572D01*
X1060381D01*
Y-82858D01*
Y-83144D01*
Y-83431D01*
Y-83717D01*
Y-84003D01*
Y-84290D01*
Y-84576D01*
X1060095D01*
Y-84862D01*
Y-85149D01*
Y-85435D01*
Y-85721D01*
Y-86007D01*
Y-86294D01*
X1059809D01*
Y-86580D01*
Y-86866D01*
X1060381D01*
Y-86580D01*
X1060668D01*
Y-86294D01*
X1060954D01*
Y-86007D01*
X1061526D01*
Y-85721D01*
X1061813D01*
Y-85435D01*
X1062099D01*
Y-85149D01*
X1062672D01*
Y-84862D01*
X1063244D01*
Y-84576D01*
X1063531D01*
Y-84290D01*
X1064103D01*
Y-84003D01*
X1064962D01*
Y-83717D01*
X1065535D01*
Y-83431D01*
X1066394D01*
Y-83144D01*
X1067825D01*
Y-82858D01*
X1074124D01*
Y-83144D01*
X1075270D01*
Y-83431D01*
X1076128D01*
Y-83717D01*
X1076701D01*
Y-84003D01*
X1076987D01*
Y-84290D01*
X1077560D01*
Y-84576D01*
X1077846D01*
Y-84862D01*
X1078133D01*
Y-85149D01*
X1078419D01*
Y-85435D01*
X1078705D01*
Y-85721D01*
Y-86007D01*
X1078992D01*
Y-86294D01*
Y-86580D01*
X1079278D01*
Y-86866D01*
Y-87153D01*
Y-87439D01*
X1079564D01*
Y-87725D01*
Y-88012D01*
Y-88298D01*
Y-88584D01*
X1079850D01*
Y-88871D01*
Y-89157D01*
Y-89443D01*
Y-89730D01*
Y-90016D01*
Y-90302D01*
Y-90588D01*
Y-90875D01*
Y-91161D01*
Y-91448D01*
Y-91734D01*
Y-92020D01*
Y-92306D01*
Y-92593D01*
Y-92879D01*
Y-93165D01*
Y-93452D01*
Y-93738D01*
X1079564D01*
Y-94024D01*
Y-94311D01*
Y-94597D01*
Y-94883D01*
Y-95170D01*
Y-95456D01*
Y-95742D01*
X1079278D01*
Y-96029D01*
Y-96315D01*
Y-96601D01*
Y-96887D01*
Y-97174D01*
Y-97460D01*
Y-97746D01*
X1078992D01*
Y-98033D01*
Y-98319D01*
Y-98605D01*
Y-98892D01*
Y-99178D01*
Y-99464D01*
X1078705D01*
Y-99751D01*
Y-100037D01*
Y-100323D01*
Y-100610D01*
Y-100896D01*
Y-101182D01*
X1078419D01*
Y-101468D01*
Y-101755D01*
Y-102041D01*
Y-102327D01*
Y-102614D01*
Y-102900D01*
X1078133D01*
Y-103186D01*
Y-103473D01*
Y-103759D01*
Y-104045D01*
Y-104332D01*
Y-104618D01*
Y-104904D01*
X1077846D01*
Y-105191D01*
Y-105477D01*
Y-105763D01*
Y-106049D01*
Y-106336D01*
Y-106622D01*
X1077560D01*
Y-106908D01*
Y-107195D01*
Y-107481D01*
Y-107767D01*
Y-108054D01*
Y-108340D01*
X1077274D01*
Y-108626D01*
Y-108913D01*
Y-109199D01*
Y-109485D01*
Y-109772D01*
Y-110058D01*
Y-110344D01*
X1076987D01*
Y-110630D01*
Y-110917D01*
Y-111203D01*
Y-111489D01*
Y-111776D01*
Y-112062D01*
X1076701D01*
Y-112348D01*
Y-112635D01*
Y-112921D01*
Y-113207D01*
Y-113494D01*
Y-113780D01*
X1076415D01*
Y-114066D01*
Y-114353D01*
Y-114639D01*
Y-114925D01*
Y-115211D01*
Y-115498D01*
X1076128D01*
Y-115784D01*
Y-116070D01*
Y-116357D01*
Y-116643D01*
Y-116929D01*
Y-117216D01*
Y-117502D01*
X1075842D01*
Y-117788D01*
Y-118075D01*
Y-118361D01*
Y-118647D01*
Y-118933D01*
Y-119220D01*
X1075556D01*
Y-119506D01*
Y-119792D01*
X1062385D01*
Y-119506D01*
Y-119220D01*
X1062672D01*
Y-118933D01*
Y-118647D01*
Y-118361D01*
Y-118075D01*
Y-117788D01*
Y-117502D01*
X1062958D01*
Y-117216D01*
Y-116929D01*
Y-116643D01*
Y-116357D01*
Y-116070D01*
Y-115784D01*
Y-115498D01*
X1063244D01*
Y-115211D01*
Y-114925D01*
Y-114639D01*
Y-114353D01*
Y-114066D01*
Y-113780D01*
X1063531D01*
Y-113494D01*
Y-113207D01*
Y-112921D01*
Y-112635D01*
Y-112348D01*
Y-112062D01*
X1063817D01*
Y-111776D01*
Y-111489D01*
Y-111203D01*
Y-110917D01*
Y-110630D01*
Y-110344D01*
Y-110058D01*
X1064103D01*
Y-109772D01*
Y-109485D01*
Y-109199D01*
Y-108913D01*
Y-108626D01*
Y-108340D01*
X1064390D01*
Y-108054D01*
Y-107767D01*
Y-107481D01*
Y-107195D01*
Y-106908D01*
Y-106622D01*
Y-106336D01*
X1064676D01*
Y-106049D01*
Y-105763D01*
Y-105477D01*
Y-105191D01*
Y-104904D01*
Y-104618D01*
X1064962D01*
Y-104332D01*
Y-104045D01*
Y-103759D01*
Y-103473D01*
Y-103186D01*
Y-102900D01*
X1065249D01*
Y-102614D01*
Y-102327D01*
Y-102041D01*
Y-101755D01*
Y-101468D01*
Y-101182D01*
X1065535D01*
Y-100896D01*
Y-100610D01*
Y-100323D01*
Y-100037D01*
Y-99751D01*
Y-99464D01*
Y-99178D01*
X1065821D01*
Y-98892D01*
Y-98605D01*
Y-98319D01*
Y-98033D01*
Y-97746D01*
Y-97460D01*
X1066107D01*
Y-97174D01*
Y-96887D01*
Y-96601D01*
Y-96315D01*
Y-96029D01*
Y-95742D01*
Y-95456D01*
X1066394D01*
Y-95170D01*
Y-94883D01*
Y-94597D01*
Y-94311D01*
Y-94024D01*
Y-93738D01*
X1066107D01*
Y-93452D01*
Y-93165D01*
X1065821D01*
Y-92879D01*
X1065535D01*
Y-92593D01*
X1064962D01*
Y-92306D01*
X1063244D01*
Y-92593D01*
X1061813D01*
Y-92879D01*
X1060954D01*
Y-93165D01*
X1060381D01*
Y-93452D01*
X1060095D01*
Y-93738D01*
X1059522D01*
Y-94024D01*
X1059236D01*
Y-94311D01*
X1058950D01*
Y-94597D01*
Y-94883D01*
X1058663D01*
Y-95170D01*
Y-95456D01*
Y-95742D01*
X1058377D01*
Y-96029D01*
Y-96315D01*
Y-96601D01*
Y-96887D01*
Y-97174D01*
Y-97460D01*
X1058091D01*
Y-97746D01*
Y-98033D01*
Y-98319D01*
Y-98605D01*
Y-98892D01*
Y-99178D01*
Y-99464D01*
X1057804D01*
Y-99751D01*
Y-100037D01*
Y-100323D01*
Y-100610D01*
Y-100896D01*
Y-101182D01*
X1057518D01*
Y-101468D01*
Y-101755D01*
Y-102041D01*
Y-102327D01*
Y-102614D01*
Y-102900D01*
X1057232D01*
Y-103186D01*
Y-103473D01*
Y-103759D01*
Y-104045D01*
Y-104332D01*
Y-104618D01*
X1056946D01*
Y-104904D01*
Y-105191D01*
Y-105477D01*
Y-105763D01*
Y-106049D01*
Y-106336D01*
Y-106622D01*
X1056659D01*
Y-106908D01*
Y-107195D01*
Y-107481D01*
Y-107767D01*
Y-108054D01*
Y-108340D01*
X1056373D01*
Y-108626D01*
Y-108913D01*
Y-109199D01*
Y-109485D01*
Y-109772D01*
Y-110058D01*
X1056087D01*
Y-110344D01*
Y-110630D01*
Y-110917D01*
Y-111203D01*
Y-111489D01*
Y-111776D01*
Y-112062D01*
X1055800D01*
Y-112348D01*
Y-112635D01*
Y-112921D01*
Y-113207D01*
Y-113494D01*
Y-113780D01*
X1055514D01*
Y-114066D01*
Y-114353D01*
Y-114639D01*
Y-114925D01*
Y-115211D01*
Y-115498D01*
X1055228D01*
Y-115784D01*
Y-116070D01*
Y-116357D01*
Y-116643D01*
Y-116929D01*
Y-117216D01*
X1054941D01*
Y-117502D01*
Y-117788D01*
Y-118075D01*
Y-118361D01*
Y-118647D01*
Y-118933D01*
Y-119220D01*
X1054655D01*
Y-119506D01*
Y-119792D01*
X1041485D01*
Y-119506D01*
Y-119220D01*
X1041771D01*
Y-118933D01*
Y-118647D01*
Y-118361D01*
Y-118075D01*
Y-117788D01*
Y-117502D01*
Y-117216D01*
X1042057D01*
Y-116929D01*
Y-116643D01*
Y-116357D01*
Y-116070D01*
Y-115784D01*
Y-115498D01*
X1042344D01*
Y-115211D01*
Y-114925D01*
Y-114639D01*
Y-114353D01*
Y-114066D01*
Y-113780D01*
X1042630D01*
Y-113494D01*
Y-113207D01*
Y-112921D01*
Y-112635D01*
Y-112348D01*
Y-112062D01*
Y-111776D01*
X1042916D01*
Y-111489D01*
Y-111203D01*
Y-110917D01*
Y-110630D01*
Y-110344D01*
Y-110058D01*
X1043202D01*
Y-109772D01*
Y-109485D01*
Y-109199D01*
Y-108913D01*
Y-108626D01*
Y-108340D01*
X1043489D01*
Y-108054D01*
Y-107767D01*
Y-107481D01*
Y-107195D01*
Y-106908D01*
Y-106622D01*
X1043775D01*
Y-106336D01*
Y-106049D01*
Y-105763D01*
Y-105477D01*
Y-105191D01*
Y-104904D01*
Y-104618D01*
X1044061D01*
Y-104332D01*
Y-104045D01*
Y-103759D01*
Y-103473D01*
Y-103186D01*
Y-102900D01*
X1044348D01*
Y-102614D01*
Y-102327D01*
Y-102041D01*
Y-101755D01*
Y-101468D01*
Y-101182D01*
X1044634D01*
Y-100896D01*
Y-100610D01*
Y-100323D01*
Y-100037D01*
Y-99751D01*
Y-99464D01*
Y-99178D01*
X1044920D01*
Y-98892D01*
Y-98605D01*
Y-98319D01*
Y-98033D01*
Y-97746D01*
Y-97460D01*
X1045207D01*
Y-97174D01*
Y-96887D01*
Y-96601D01*
Y-96315D01*
Y-96029D01*
Y-95742D01*
X1045493D01*
Y-95456D01*
Y-95170D01*
Y-94883D01*
Y-94597D01*
Y-94311D01*
Y-94024D01*
X1045779D01*
Y-93738D01*
Y-93452D01*
Y-93165D01*
Y-92879D01*
Y-92593D01*
Y-92306D01*
Y-92020D01*
X1046066D01*
Y-91734D01*
Y-91448D01*
Y-91161D01*
Y-90875D01*
Y-90588D01*
Y-90302D01*
X1046352D01*
Y-90016D01*
Y-89730D01*
Y-89443D01*
Y-89157D01*
Y-88871D01*
Y-88584D01*
X1046638D01*
Y-88298D01*
Y-88012D01*
Y-87725D01*
Y-87439D01*
Y-87153D01*
Y-86866D01*
X1046925D01*
Y-86580D01*
Y-86294D01*
Y-86007D01*
Y-85721D01*
Y-85435D01*
Y-85149D01*
Y-84862D01*
X1047211D01*
Y-84576D01*
Y-84290D01*
Y-84003D01*
Y-83717D01*
Y-83431D01*
Y-83144D01*
X1047497D01*
Y-82858D01*
Y-82572D01*
Y-82285D01*
Y-81999D01*
Y-81713D01*
Y-81427D01*
X1047783D01*
Y-81140D01*
Y-80854D01*
Y-80568D01*
Y-80281D01*
Y-79995D01*
Y-79709D01*
Y-79422D01*
X1048070D01*
Y-79136D01*
Y-78850D01*
Y-78563D01*
Y-78277D01*
Y-77991D01*
Y-77704D01*
X1048356D01*
Y-77418D01*
Y-77132D01*
Y-76846D01*
Y-76559D01*
Y-76273D01*
Y-75987D01*
X1048642D01*
Y-75700D01*
Y-75414D01*
Y-75128D01*
Y-74841D01*
Y-74555D01*
Y-74269D01*
X1048929D01*
Y-73982D01*
Y-73696D01*
Y-73410D01*
Y-73123D01*
Y-72837D01*
Y-72551D01*
Y-72264D01*
X1049215D01*
Y-71978D01*
Y-71692D01*
Y-71406D01*
Y-71119D01*
Y-70833D01*
Y-70547D01*
X1049501D01*
Y-70260D01*
Y-69974D01*
Y-69688D01*
Y-69401D01*
Y-69115D01*
Y-68829D01*
X1049788D01*
Y-68542D01*
Y-68256D01*
Y-67970D01*
Y-67684D01*
Y-67397D01*
Y-67111D01*
Y-66825D01*
X1050074D01*
Y-66538D01*
Y-66252D01*
Y-65966D01*
X1063244D01*
Y-66252D01*
D02*
G37*
G36*
X1032036Y-69688D02*
X1033754D01*
Y-69974D01*
X1034613D01*
Y-70260D01*
X1035472D01*
Y-70547D01*
X1036331D01*
Y-70833D01*
X1036904D01*
Y-71119D01*
X1037190D01*
Y-71406D01*
X1037763D01*
Y-71692D01*
X1038049D01*
Y-71978D01*
X1038622D01*
Y-72264D01*
X1038908D01*
Y-72551D01*
X1039194D01*
Y-72837D01*
X1039480D01*
Y-73123D01*
X1039767D01*
Y-73410D01*
X1040053D01*
Y-73696D01*
X1040339D01*
Y-73982D01*
Y-74269D01*
X1040626D01*
Y-74555D01*
X1040912D01*
Y-74841D01*
Y-75128D01*
X1041198D01*
Y-75414D01*
X1041485D01*
Y-75700D01*
Y-75987D01*
X1041771D01*
Y-76273D01*
Y-76559D01*
Y-76846D01*
X1042057D01*
Y-77132D01*
Y-77418D01*
Y-77704D01*
X1042344D01*
Y-77991D01*
Y-78277D01*
Y-78563D01*
Y-78850D01*
X1042630D01*
Y-79136D01*
Y-79422D01*
Y-79709D01*
Y-79995D01*
Y-80281D01*
X1042916D01*
Y-80568D01*
Y-80854D01*
Y-81140D01*
Y-81427D01*
Y-81713D01*
Y-81999D01*
Y-82285D01*
Y-82572D01*
Y-82858D01*
Y-83144D01*
Y-83431D01*
Y-83717D01*
Y-84003D01*
Y-84290D01*
Y-84576D01*
Y-84862D01*
Y-85149D01*
Y-85435D01*
Y-85721D01*
Y-86007D01*
X1042630D01*
Y-86294D01*
Y-86580D01*
Y-86866D01*
Y-87153D01*
Y-87439D01*
Y-87725D01*
Y-88012D01*
X1042344D01*
Y-88298D01*
Y-88584D01*
Y-88871D01*
Y-89157D01*
Y-89443D01*
X1042057D01*
Y-89730D01*
Y-90016D01*
Y-90302D01*
Y-90588D01*
Y-90875D01*
X1041771D01*
Y-91161D01*
Y-91448D01*
Y-91734D01*
X1041485D01*
Y-92020D01*
Y-92306D01*
Y-92593D01*
Y-92879D01*
X1041198D01*
Y-93165D01*
Y-93452D01*
Y-93738D01*
X1040912D01*
Y-94024D01*
Y-94311D01*
X1040626D01*
Y-94597D01*
Y-94883D01*
Y-95170D01*
X1040339D01*
Y-95456D01*
Y-95742D01*
X1040053D01*
Y-96029D01*
Y-96315D01*
X1039767D01*
Y-96601D01*
Y-96887D01*
X1039480D01*
Y-97174D01*
X1039194D01*
Y-97460D01*
Y-97746D01*
X1038908D01*
Y-98033D01*
X1038622D01*
Y-98319D01*
X1038335D01*
Y-98605D01*
Y-98892D01*
X1038049D01*
Y-99178D01*
X1037763D01*
Y-99464D01*
X1037476D01*
Y-99751D01*
X1037190D01*
Y-100037D01*
X1036904D01*
Y-100323D01*
X1036331D01*
Y-100610D01*
X1036045D01*
Y-100896D01*
X1035472D01*
Y-101182D01*
X1035186D01*
Y-101468D01*
X1034613D01*
Y-101755D01*
X1033754D01*
Y-102041D01*
X1032895D01*
Y-102327D01*
X1032036D01*
Y-102614D01*
X1030318D01*
Y-102900D01*
X1025165D01*
Y-102614D01*
X1022588D01*
Y-102327D01*
X1020584D01*
Y-102041D01*
X1019152D01*
Y-101755D01*
X1017721D01*
Y-101468D01*
X1016289D01*
Y-101755D01*
Y-102041D01*
Y-102327D01*
Y-102614D01*
Y-102900D01*
Y-103186D01*
Y-103473D01*
X1016003D01*
Y-103759D01*
Y-104045D01*
Y-104332D01*
Y-104618D01*
Y-104904D01*
Y-105191D01*
X1015716D01*
Y-105477D01*
Y-105763D01*
Y-106049D01*
Y-106336D01*
Y-106622D01*
Y-106908D01*
X1015430D01*
Y-107195D01*
Y-107481D01*
Y-107767D01*
Y-108054D01*
Y-108340D01*
Y-108626D01*
Y-108913D01*
X1015144D01*
Y-109199D01*
Y-109485D01*
Y-109772D01*
Y-110058D01*
Y-110344D01*
Y-110630D01*
X1014857D01*
Y-110917D01*
Y-111203D01*
Y-111489D01*
Y-111776D01*
Y-112062D01*
Y-112348D01*
X1014571D01*
Y-112635D01*
Y-112921D01*
Y-113207D01*
Y-113494D01*
Y-113780D01*
Y-114066D01*
Y-114353D01*
X1014285D01*
Y-114639D01*
Y-114925D01*
Y-115211D01*
Y-115498D01*
Y-115784D01*
Y-116070D01*
X1013999D01*
Y-116357D01*
Y-116643D01*
Y-116929D01*
Y-117216D01*
Y-117502D01*
Y-117788D01*
X1013712D01*
Y-118075D01*
Y-118361D01*
Y-118647D01*
Y-118933D01*
Y-119220D01*
Y-119506D01*
Y-119792D01*
X1000256D01*
Y-119506D01*
X1000542D01*
Y-119220D01*
Y-118933D01*
Y-118647D01*
Y-118361D01*
Y-118075D01*
X1000828D01*
Y-117788D01*
Y-117502D01*
Y-117216D01*
Y-116929D01*
Y-116643D01*
Y-116357D01*
Y-116070D01*
X1001114D01*
Y-115784D01*
Y-115498D01*
Y-115211D01*
Y-114925D01*
Y-114639D01*
Y-114353D01*
X1001401D01*
Y-114066D01*
Y-113780D01*
Y-113494D01*
Y-113207D01*
Y-112921D01*
Y-112635D01*
X1001687D01*
Y-112348D01*
Y-112062D01*
Y-111776D01*
Y-111489D01*
Y-111203D01*
Y-110917D01*
Y-110630D01*
X1001974D01*
Y-110344D01*
Y-110058D01*
Y-109772D01*
Y-109485D01*
Y-109199D01*
Y-108913D01*
X1002260D01*
Y-108626D01*
Y-108340D01*
Y-108054D01*
Y-107767D01*
Y-107481D01*
Y-107195D01*
X1002546D01*
Y-106908D01*
Y-106622D01*
Y-106336D01*
Y-106049D01*
Y-105763D01*
Y-105477D01*
X1002832D01*
Y-105191D01*
Y-104904D01*
Y-104618D01*
Y-104332D01*
Y-104045D01*
Y-103759D01*
Y-103473D01*
X1003119D01*
Y-103186D01*
Y-102900D01*
Y-102614D01*
Y-102327D01*
Y-102041D01*
Y-101755D01*
X1003405D01*
Y-101468D01*
Y-101182D01*
Y-100896D01*
Y-100610D01*
Y-100323D01*
Y-100037D01*
X1003691D01*
Y-99751D01*
Y-99464D01*
Y-99178D01*
Y-98892D01*
Y-98605D01*
Y-98319D01*
X1003978D01*
Y-98033D01*
Y-97746D01*
Y-97460D01*
Y-97174D01*
Y-96887D01*
Y-96601D01*
Y-96315D01*
X1004264D01*
Y-96029D01*
Y-95742D01*
Y-95456D01*
Y-95170D01*
Y-94883D01*
Y-94597D01*
X1004550D01*
Y-94311D01*
Y-94024D01*
Y-93738D01*
Y-93452D01*
Y-93165D01*
Y-92879D01*
X1004837D01*
Y-92593D01*
Y-92306D01*
Y-92020D01*
Y-91734D01*
Y-91448D01*
Y-91161D01*
Y-90875D01*
X1005123D01*
Y-90588D01*
Y-90302D01*
Y-90016D01*
Y-89730D01*
Y-89443D01*
Y-89157D01*
X1005409D01*
Y-88871D01*
Y-88584D01*
Y-88298D01*
Y-88012D01*
Y-87725D01*
Y-87439D01*
X1005696D01*
Y-87153D01*
Y-86866D01*
Y-86580D01*
Y-86294D01*
Y-86007D01*
Y-85721D01*
X1005982D01*
Y-85435D01*
Y-85149D01*
Y-84862D01*
Y-84576D01*
Y-84290D01*
Y-84003D01*
Y-83717D01*
X1006268D01*
Y-83431D01*
Y-83144D01*
Y-82858D01*
Y-82572D01*
Y-82285D01*
Y-81999D01*
X1006555D01*
Y-81713D01*
Y-81427D01*
Y-81140D01*
Y-80854D01*
Y-80568D01*
Y-80281D01*
X1006841D01*
Y-79995D01*
Y-79709D01*
Y-79422D01*
Y-79136D01*
Y-78850D01*
Y-78563D01*
Y-78277D01*
X1007127D01*
Y-77991D01*
Y-77704D01*
Y-77418D01*
Y-77132D01*
Y-76846D01*
Y-76559D01*
X1007413D01*
Y-76273D01*
Y-75987D01*
Y-75700D01*
Y-75414D01*
Y-75128D01*
Y-74841D01*
X1007700D01*
Y-74555D01*
Y-74269D01*
Y-73982D01*
Y-73696D01*
Y-73410D01*
Y-73123D01*
Y-72837D01*
X1007986D01*
Y-72551D01*
Y-72264D01*
Y-71978D01*
Y-71692D01*
Y-71406D01*
Y-71119D01*
X1008272D01*
Y-70833D01*
Y-70547D01*
Y-70260D01*
Y-69974D01*
Y-69688D01*
Y-69401D01*
X1032036D01*
Y-69688D01*
D02*
G37*
G36*
X1165172Y-83717D02*
X1164886D01*
Y-84003D01*
X1164599D01*
Y-84290D01*
Y-84576D01*
X1164313D01*
Y-84862D01*
X1164027D01*
Y-85149D01*
X1163740D01*
Y-85435D01*
Y-85721D01*
X1163454D01*
Y-86007D01*
X1163168D01*
Y-86294D01*
X1162881D01*
Y-86580D01*
X1162595D01*
Y-86866D01*
Y-87153D01*
X1162309D01*
Y-87439D01*
X1162022D01*
Y-87725D01*
X1161736D01*
Y-88012D01*
Y-88298D01*
X1161450D01*
Y-88584D01*
X1161163D01*
Y-88871D01*
X1160877D01*
Y-89157D01*
X1160591D01*
Y-89443D01*
Y-89730D01*
X1160305D01*
Y-90016D01*
X1160018D01*
Y-90302D01*
X1159732D01*
Y-90588D01*
Y-90875D01*
X1159445D01*
Y-91161D01*
X1159159D01*
Y-91448D01*
X1158873D01*
Y-91734D01*
Y-92020D01*
X1158587D01*
Y-92306D01*
X1158300D01*
Y-92593D01*
X1158014D01*
Y-92879D01*
X1157728D01*
Y-93165D01*
Y-93452D01*
X1157441D01*
Y-93738D01*
X1157155D01*
Y-94024D01*
X1156869D01*
Y-94311D01*
Y-94597D01*
X1156582D01*
Y-94883D01*
X1156296D01*
Y-95170D01*
X1156010D01*
Y-95456D01*
Y-95742D01*
X1155723D01*
Y-96029D01*
X1155437D01*
Y-96315D01*
X1155151D01*
Y-96601D01*
X1154865D01*
Y-96887D01*
Y-97174D01*
X1154578D01*
Y-97460D01*
X1154292D01*
Y-97746D01*
X1154006D01*
Y-98033D01*
Y-98319D01*
X1153719D01*
Y-98605D01*
X1153433D01*
Y-98892D01*
X1153147D01*
Y-99178D01*
Y-99464D01*
X1152860D01*
Y-99751D01*
X1152574D01*
Y-100037D01*
X1152288D01*
Y-100323D01*
X1152001D01*
Y-100610D01*
Y-100896D01*
X1151715D01*
Y-101182D01*
X1151429D01*
Y-101468D01*
X1151142D01*
Y-101755D01*
Y-102041D01*
X1150856D01*
Y-102327D01*
X1150570D01*
Y-102614D01*
X1150284D01*
Y-102900D01*
X1149997D01*
Y-103186D01*
Y-103473D01*
X1150284D01*
Y-103759D01*
Y-104045D01*
X1150570D01*
Y-104332D01*
Y-104618D01*
X1150856D01*
Y-104904D01*
X1151142D01*
Y-105191D01*
Y-105477D01*
X1151429D01*
Y-105763D01*
Y-106049D01*
X1151715D01*
Y-106336D01*
Y-106622D01*
X1152001D01*
Y-106908D01*
Y-107195D01*
X1152288D01*
Y-107481D01*
Y-107767D01*
X1152574D01*
Y-108054D01*
Y-108340D01*
X1152860D01*
Y-108626D01*
Y-108913D01*
X1153147D01*
Y-109199D01*
Y-109485D01*
X1153433D01*
Y-109772D01*
X1153719D01*
Y-110058D01*
Y-110344D01*
X1154006D01*
Y-110630D01*
Y-110917D01*
X1154292D01*
Y-111203D01*
Y-111489D01*
X1154578D01*
Y-111776D01*
Y-112062D01*
X1154865D01*
Y-112348D01*
Y-112635D01*
X1155151D01*
Y-112921D01*
Y-113207D01*
X1155437D01*
Y-113494D01*
Y-113780D01*
X1155723D01*
Y-114066D01*
X1156010D01*
Y-114353D01*
Y-114639D01*
X1156296D01*
Y-114925D01*
Y-115211D01*
X1156582D01*
Y-115498D01*
Y-115784D01*
X1156869D01*
Y-116070D01*
Y-116357D01*
X1157155D01*
Y-116643D01*
Y-116929D01*
X1157441D01*
Y-117216D01*
Y-117502D01*
X1157728D01*
Y-117788D01*
Y-118075D01*
X1158014D01*
Y-118361D01*
X1158300D01*
Y-118647D01*
Y-118933D01*
X1158587D01*
Y-119220D01*
Y-119506D01*
X1158873D01*
Y-119792D01*
X1143698D01*
Y-119506D01*
X1143412D01*
Y-119220D01*
Y-118933D01*
Y-118647D01*
X1143126D01*
Y-118361D01*
Y-118075D01*
Y-117788D01*
X1142839D01*
Y-117502D01*
Y-117216D01*
X1142553D01*
Y-116929D01*
Y-116643D01*
Y-116357D01*
X1142267D01*
Y-116070D01*
Y-115784D01*
Y-115498D01*
X1141980D01*
Y-115211D01*
Y-114925D01*
X1141694D01*
Y-114639D01*
Y-114353D01*
Y-114066D01*
X1141408D01*
Y-113780D01*
Y-113494D01*
Y-113207D01*
X1141121D01*
Y-112921D01*
Y-112635D01*
Y-112348D01*
X1140835D01*
Y-112062D01*
X1140263D01*
Y-112348D01*
Y-112635D01*
X1139976D01*
Y-112921D01*
X1139690D01*
Y-113207D01*
Y-113494D01*
X1139404D01*
Y-113780D01*
X1139117D01*
Y-114066D01*
Y-114353D01*
X1138831D01*
Y-114639D01*
X1138545D01*
Y-114925D01*
Y-115211D01*
X1138258D01*
Y-115498D01*
X1137972D01*
Y-115784D01*
X1137686D01*
Y-116070D01*
Y-116357D01*
X1137399D01*
Y-116643D01*
X1137113D01*
Y-116929D01*
Y-117216D01*
X1136827D01*
Y-117502D01*
X1136541D01*
Y-117788D01*
Y-118075D01*
X1136254D01*
Y-118361D01*
X1135968D01*
Y-118647D01*
Y-118933D01*
X1135682D01*
Y-119220D01*
X1135395D01*
Y-119506D01*
Y-119792D01*
X1119362D01*
Y-119506D01*
X1119648D01*
Y-119220D01*
X1119934D01*
Y-118933D01*
X1120221D01*
Y-118647D01*
X1120507D01*
Y-118361D01*
Y-118075D01*
X1120793D01*
Y-117788D01*
X1121080D01*
Y-117502D01*
X1121366D01*
Y-117216D01*
X1121652D01*
Y-116929D01*
Y-116643D01*
X1121939D01*
Y-116357D01*
X1122225D01*
Y-116070D01*
X1122511D01*
Y-115784D01*
Y-115498D01*
X1122797D01*
Y-115211D01*
X1123084D01*
Y-114925D01*
X1123370D01*
Y-114639D01*
X1123656D01*
Y-114353D01*
Y-114066D01*
X1123943D01*
Y-113780D01*
X1124229D01*
Y-113494D01*
X1124515D01*
Y-113207D01*
X1124802D01*
Y-112921D01*
Y-112635D01*
X1125088D01*
Y-112348D01*
X1125374D01*
Y-112062D01*
X1125661D01*
Y-111776D01*
Y-111489D01*
X1125947D01*
Y-111203D01*
X1126233D01*
Y-110917D01*
X1126519D01*
Y-110630D01*
X1126806D01*
Y-110344D01*
Y-110058D01*
X1127092D01*
Y-109772D01*
X1127378D01*
Y-109485D01*
X1127665D01*
Y-109199D01*
Y-108913D01*
X1127951D01*
Y-108626D01*
X1128237D01*
Y-108340D01*
X1128524D01*
Y-108054D01*
X1128810D01*
Y-107767D01*
Y-107481D01*
X1129096D01*
Y-107195D01*
X1129383D01*
Y-106908D01*
X1129669D01*
Y-106622D01*
Y-106336D01*
X1129955D01*
Y-106049D01*
X1130242D01*
Y-105763D01*
X1130528D01*
Y-105477D01*
X1130814D01*
Y-105191D01*
Y-104904D01*
X1131100D01*
Y-104618D01*
X1131387D01*
Y-104332D01*
X1131673D01*
Y-104045D01*
X1131960D01*
Y-103759D01*
Y-103473D01*
X1132246D01*
Y-103186D01*
X1132532D01*
Y-102900D01*
X1132818D01*
Y-102614D01*
Y-102327D01*
X1133105D01*
Y-102041D01*
X1133391D01*
Y-101755D01*
X1133677D01*
Y-101468D01*
X1133964D01*
Y-101182D01*
Y-100896D01*
X1134250D01*
Y-100610D01*
Y-100323D01*
Y-100037D01*
X1133964D01*
Y-99751D01*
X1133677D01*
Y-99464D01*
Y-99178D01*
X1133391D01*
Y-98892D01*
Y-98605D01*
X1133105D01*
Y-98319D01*
Y-98033D01*
X1132818D01*
Y-97746D01*
Y-97460D01*
X1132532D01*
Y-97174D01*
Y-96887D01*
X1132246D01*
Y-96601D01*
Y-96315D01*
X1131960D01*
Y-96029D01*
X1131673D01*
Y-95742D01*
Y-95456D01*
X1131387D01*
Y-95170D01*
Y-94883D01*
X1131100D01*
Y-94597D01*
Y-94311D01*
X1130814D01*
Y-94024D01*
Y-93738D01*
X1130528D01*
Y-93452D01*
Y-93165D01*
X1130242D01*
Y-92879D01*
Y-92593D01*
X1129955D01*
Y-92306D01*
X1129669D01*
Y-92020D01*
Y-91734D01*
X1129383D01*
Y-91448D01*
Y-91161D01*
X1129096D01*
Y-90875D01*
Y-90588D01*
X1128810D01*
Y-90302D01*
Y-90016D01*
X1128524D01*
Y-89730D01*
Y-89443D01*
X1128237D01*
Y-89157D01*
Y-88871D01*
X1127951D01*
Y-88584D01*
Y-88298D01*
X1127665D01*
Y-88012D01*
X1127378D01*
Y-87725D01*
Y-87439D01*
X1127092D01*
Y-87153D01*
Y-86866D01*
X1126806D01*
Y-86580D01*
Y-86294D01*
X1126519D01*
Y-86007D01*
Y-85721D01*
X1126233D01*
Y-85435D01*
Y-85149D01*
X1125947D01*
Y-84862D01*
Y-84576D01*
X1125661D01*
Y-84290D01*
X1125374D01*
Y-84003D01*
Y-83717D01*
X1125088D01*
Y-83431D01*
X1140835D01*
Y-83717D01*
X1141121D01*
Y-84003D01*
Y-84290D01*
Y-84576D01*
X1141408D01*
Y-84862D01*
Y-85149D01*
Y-85435D01*
X1141694D01*
Y-85721D01*
Y-86007D01*
Y-86294D01*
X1141980D01*
Y-86580D01*
Y-86866D01*
Y-87153D01*
X1142267D01*
Y-87439D01*
Y-87725D01*
Y-88012D01*
X1142553D01*
Y-88298D01*
Y-88584D01*
Y-88871D01*
X1142839D01*
Y-89157D01*
Y-89443D01*
Y-89730D01*
X1143126D01*
Y-90016D01*
Y-90302D01*
Y-90588D01*
X1143412D01*
Y-90875D01*
Y-91161D01*
Y-91448D01*
Y-91734D01*
X1143985D01*
Y-91448D01*
X1144271D01*
Y-91161D01*
X1144557D01*
Y-90875D01*
Y-90588D01*
X1144844D01*
Y-90302D01*
X1145130D01*
Y-90016D01*
Y-89730D01*
X1145416D01*
Y-89443D01*
X1145702D01*
Y-89157D01*
Y-88871D01*
X1145989D01*
Y-88584D01*
X1146275D01*
Y-88298D01*
Y-88012D01*
X1146561D01*
Y-87725D01*
X1146848D01*
Y-87439D01*
Y-87153D01*
X1147134D01*
Y-86866D01*
X1147420D01*
Y-86580D01*
Y-86294D01*
X1147707D01*
Y-86007D01*
X1147993D01*
Y-85721D01*
Y-85435D01*
X1148279D01*
Y-85149D01*
X1148566D01*
Y-84862D01*
Y-84576D01*
X1148852D01*
Y-84290D01*
X1149138D01*
Y-84003D01*
Y-83717D01*
X1149425D01*
Y-83431D01*
X1165172D01*
Y-83717D01*
D02*
G37*
%LPC*%
G36*
X1027742Y-80568D02*
X1019725D01*
Y-80854D01*
Y-81140D01*
Y-81427D01*
Y-81713D01*
Y-81999D01*
X1019438D01*
Y-82285D01*
Y-82572D01*
Y-82858D01*
Y-83144D01*
Y-83431D01*
Y-83717D01*
X1019152D01*
Y-84003D01*
Y-84290D01*
Y-84576D01*
Y-84862D01*
Y-85149D01*
Y-85435D01*
X1018866D01*
Y-85721D01*
Y-86007D01*
Y-86294D01*
Y-86580D01*
Y-86866D01*
Y-87153D01*
X1018580D01*
Y-87439D01*
Y-87725D01*
Y-88012D01*
Y-88298D01*
Y-88584D01*
Y-88871D01*
Y-89157D01*
X1018293D01*
Y-89443D01*
Y-89730D01*
Y-90016D01*
Y-90302D01*
Y-90588D01*
Y-90875D01*
X1018007D01*
Y-91161D01*
Y-91448D01*
Y-91734D01*
X1025165D01*
Y-91448D01*
X1026310D01*
Y-91161D01*
X1026883D01*
Y-90875D01*
X1027169D01*
Y-90588D01*
X1027455D01*
Y-90302D01*
X1027742D01*
Y-90016D01*
X1028028D01*
Y-89730D01*
Y-89443D01*
X1028314D01*
Y-89157D01*
Y-88871D01*
X1028601D01*
Y-88584D01*
Y-88298D01*
X1028887D01*
Y-88012D01*
Y-87725D01*
Y-87439D01*
Y-87153D01*
X1029173D01*
Y-86866D01*
Y-86580D01*
Y-86294D01*
Y-86007D01*
Y-85721D01*
X1029459D01*
Y-85435D01*
Y-85149D01*
Y-84862D01*
Y-84576D01*
Y-84290D01*
Y-84003D01*
Y-83717D01*
Y-83431D01*
Y-83144D01*
Y-82858D01*
Y-82572D01*
X1029173D01*
Y-82285D01*
Y-81999D01*
X1028887D01*
Y-81713D01*
Y-81427D01*
X1028601D01*
Y-81140D01*
X1028314D01*
Y-80854D01*
X1027742D01*
Y-80568D01*
D02*
G37*
%LPD*%
D11*
X15748Y141732D02*
G03*
X15748Y141732I-394J0D01*
G01*
Y96457D02*
G03*
X15748Y96457I-394J0D01*
G01*
X67323Y20276D02*
Y21457D01*
X27165Y26181D02*
X29528D01*
Y21457D02*
Y26181D01*
X27165Y21457D02*
X29528D01*
X67323D02*
X69685D01*
Y26181D01*
X67323D02*
X69685D01*
X27165Y197D02*
Y29331D01*
Y197D02*
X67323D01*
X27165Y29331D02*
X67323D01*
Y197D02*
Y29331D01*
X7874Y188090D02*
Y189862D01*
Y179823D02*
Y181594D01*
Y189862D02*
X13780D01*
X7874Y179823D02*
X13780D01*
X18701Y165945D02*
Y173031D01*
X6496Y165945D02*
Y173031D01*
X18701D01*
X6496Y165945D02*
X18701D01*
X211024Y188189D02*
X218110D01*
X211024Y175984D02*
X218110D01*
X211024D02*
Y188189D01*
X218110Y175984D02*
Y188189D01*
X9450Y182283D02*
Y184907D01*
Y183595D01*
X13386D01*
Y186219D02*
Y187531D01*
Y186875D01*
X9450D01*
X10106Y186219D01*
X9449Y171652D02*
X12073D01*
X10761D01*
Y167717D01*
X16008D02*
X13385D01*
X16008Y170340D01*
Y170996D01*
X15352Y171652D01*
X14040D01*
X13385Y170996D01*
X212600Y179528D02*
X215880D01*
X216535Y180183D01*
Y181495D01*
X215880Y182151D01*
X212600D01*
X216535Y183463D02*
Y184775D01*
Y184119D01*
X212600D01*
X213256Y183463D01*
X-196850Y-196850D02*
X1456693D01*
X-196850D02*
Y972441D01*
X1456693Y-196850D02*
Y972441D01*
X-196850D02*
X1456693D01*
X1181102Y-196850D02*
Y-39370D01*
X984252Y-196850D02*
Y-39370D01*
X1456693D01*
X984252Y-157480D02*
X1456693D01*
X1181102Y-118110D02*
X1456693D01*
X1181102Y-78740D02*
X1456693D01*
X1338583Y-157480D02*
Y-118110D01*
X1190945Y-188976D02*
Y-183073D01*
X1193897D01*
X1194881Y-184057D01*
Y-186025D01*
X1193897Y-187009D01*
X1190945D01*
X1192913D02*
X1194881Y-188976D01*
X1196848D02*
Y-183073D01*
X1199800D01*
X1200784Y-184057D01*
Y-186025D01*
X1199800Y-187009D01*
X1196848D01*
X1202752Y-183073D02*
X1204720D01*
X1203736D01*
Y-188976D01*
X1202752D01*
X1204720D01*
X1207672Y-189960D02*
X1211607D01*
X1213575Y-183073D02*
Y-188976D01*
Y-186025D01*
X1217511D01*
Y-183073D01*
Y-188976D01*
X1219479D02*
Y-185041D01*
X1221447Y-183073D01*
X1223415Y-185041D01*
Y-188976D01*
Y-186025D01*
X1219479D01*
X1225383Y-183073D02*
X1229318D01*
X1227350D01*
Y-188976D01*
X1231286Y-189960D02*
X1235222D01*
X1241125Y-183073D02*
X1237190D01*
Y-186025D01*
X1239158D01*
X1237190D01*
Y-188976D01*
X1243093D02*
X1245061D01*
X1244077D01*
Y-183073D01*
X1243093D01*
X1248997Y-185041D02*
X1250965D01*
X1251949Y-186025D01*
Y-188976D01*
X1248997D01*
X1248013Y-187993D01*
X1248997Y-187009D01*
X1251949D01*
X1253917Y-188976D02*
X1256868D01*
X1257852Y-187993D01*
X1256868Y-187009D01*
X1254900D01*
X1253917Y-186025D01*
X1254900Y-185041D01*
X1257852D01*
X1259820Y-183073D02*
Y-188976D01*
Y-186025D01*
X1260804Y-185041D01*
X1262772D01*
X1263756Y-186025D01*
Y-188976D01*
X1265724Y-189960D02*
X1269660D01*
X1271627Y-184057D02*
X1272611Y-183073D01*
X1274579D01*
X1275563Y-184057D01*
Y-187993D01*
X1274579Y-188976D01*
X1272611D01*
X1271627Y-187993D01*
Y-184057D01*
X1277531D02*
X1278515Y-183073D01*
X1280483D01*
X1281467Y-184057D01*
Y-187993D01*
X1280483Y-188976D01*
X1278515D01*
X1277531Y-187993D01*
Y-184057D01*
X1283435Y-188976D02*
Y-187993D01*
X1284418D01*
Y-188976D01*
X1283435D01*
X1288354D02*
Y-183073D01*
X1291306D01*
X1292290Y-184057D01*
Y-186025D01*
X1291306Y-187009D01*
X1288354D01*
X1298194Y-185041D02*
X1295242D01*
X1294258Y-186025D01*
Y-187993D01*
X1295242Y-188976D01*
X1298194D01*
X1300161Y-183073D02*
Y-188976D01*
X1303113D01*
X1304097Y-187993D01*
Y-187009D01*
Y-186025D01*
X1303113Y-185041D01*
X1300161D01*
X1306065Y-183073D02*
Y-188976D01*
X1309017D01*
X1310001Y-187993D01*
Y-184057D01*
X1309017Y-183073D01*
X1306065D01*
X1312953Y-188976D02*
X1314921D01*
X1315904Y-187993D01*
Y-186025D01*
X1314921Y-185041D01*
X1312953D01*
X1311969Y-186025D01*
Y-187993D01*
X1312953Y-188976D01*
X1321808Y-185041D02*
X1318856D01*
X1317872Y-186025D01*
Y-187993D01*
X1318856Y-188976D01*
X1321808D01*
D12*
X1202756Y-110236D02*
Y-101053D01*
X1207348Y-96461D01*
X1211939Y-101053D01*
Y-110236D01*
Y-103349D01*
X1202756D01*
X1216531Y-110236D02*
X1223419D01*
X1225714Y-107940D01*
X1223419Y-105645D01*
X1218827D01*
X1216531Y-103349D01*
X1218827Y-101053D01*
X1225714D01*
X1230306Y-110236D02*
X1237194D01*
X1239489Y-107940D01*
X1237194Y-105645D01*
X1232602D01*
X1230306Y-103349D01*
X1232602Y-101053D01*
X1239489D01*
X1250969Y-110236D02*
X1246377D01*
X1244081Y-107940D01*
Y-103349D01*
X1246377Y-101053D01*
X1250969D01*
X1253265Y-103349D01*
Y-105645D01*
X1244081D01*
X1257856Y-110236D02*
Y-101053D01*
X1260152D01*
X1262448Y-103349D01*
Y-110236D01*
Y-103349D01*
X1264744Y-101053D01*
X1267040Y-103349D01*
Y-110236D01*
X1271631Y-96461D02*
Y-110236D01*
X1278519D01*
X1280815Y-107940D01*
Y-105645D01*
Y-103349D01*
X1278519Y-101053D01*
X1271631D01*
X1285406Y-110236D02*
X1289998D01*
X1287702D01*
Y-96461D01*
X1285406D01*
X1296886Y-101053D02*
Y-107940D01*
X1299181Y-110236D01*
X1306069D01*
Y-112532D01*
X1303773Y-114828D01*
X1301477D01*
X1306069Y-110236D02*
Y-101053D01*
X1324436Y-96461D02*
X1333619D01*
X1329027D01*
Y-110236D01*
X1340507D02*
X1345098D01*
X1347394Y-107940D01*
Y-103349D01*
X1345098Y-101053D01*
X1340507D01*
X1338211Y-103349D01*
Y-107940D01*
X1340507Y-110236D01*
X1351986Y-114828D02*
Y-101053D01*
X1358873D01*
X1361169Y-103349D01*
Y-107940D01*
X1358873Y-110236D01*
X1351986D01*
X1190945Y-57092D02*
Y-72835D01*
Y-64963D01*
X1201440D01*
Y-57092D01*
Y-72835D01*
X1206688D02*
Y-62339D01*
X1211936Y-57092D01*
X1217183Y-62339D01*
Y-72835D01*
Y-64963D01*
X1206688D01*
X1222431Y-57092D02*
X1232926D01*
X1227678D01*
Y-72835D01*
X1238174Y-75459D02*
X1248669D01*
X1264412Y-57092D02*
X1253917D01*
Y-64963D01*
X1259164D01*
X1253917D01*
Y-72835D01*
X1269660Y-57092D02*
Y-72835D01*
X1280155D01*
X1285402D02*
Y-62339D01*
X1290650Y-57092D01*
X1295898Y-62339D01*
Y-72835D01*
Y-64963D01*
X1285402D01*
X1311641Y-59715D02*
X1309017Y-57092D01*
X1303769D01*
X1301145Y-59715D01*
Y-62339D01*
X1303769Y-64963D01*
X1309017D01*
X1311641Y-67587D01*
Y-70211D01*
X1309017Y-72835D01*
X1303769D01*
X1301145Y-70211D01*
X1316888Y-57092D02*
Y-72835D01*
Y-64963D01*
X1327384D01*
Y-57092D01*
Y-72835D01*
X1196850Y-151575D02*
X1201442D01*
X1199146D01*
Y-137800D01*
X1196850Y-140096D01*
X1217513Y-137800D02*
X1208330D01*
Y-144687D01*
X1212921Y-142391D01*
X1215217D01*
X1217513Y-144687D01*
Y-149279D01*
X1215217Y-151575D01*
X1210625D01*
X1208330Y-149279D01*
X1222105Y-151575D02*
X1231288Y-142391D01*
X1235880Y-140096D02*
X1238176Y-137800D01*
X1242767D01*
X1245063Y-140096D01*
Y-149279D01*
X1242767Y-151575D01*
X1238176D01*
X1235880Y-149279D01*
Y-140096D01*
X1258838Y-151575D02*
X1249655D01*
X1258838Y-142391D01*
Y-140096D01*
X1256542Y-137800D01*
X1251951D01*
X1249655Y-140096D01*
X1263430Y-151575D02*
X1272613Y-142391D01*
X1286388Y-151575D02*
X1277205D01*
X1286388Y-142391D01*
Y-140096D01*
X1284093Y-137800D01*
X1279501D01*
X1277205Y-140096D01*
X1290980D02*
X1293276Y-137800D01*
X1297868D01*
X1300163Y-140096D01*
Y-149279D01*
X1297868Y-151575D01*
X1293276D01*
X1290980Y-149279D01*
Y-140096D01*
X1304755Y-151575D02*
X1309347D01*
X1307051D01*
Y-137800D01*
X1304755Y-140096D01*
X1325418Y-137800D02*
X1316234D01*
Y-144687D01*
X1320826Y-142391D01*
X1323122D01*
X1325418Y-144687D01*
Y-149279D01*
X1323122Y-151575D01*
X1318530D01*
X1316234Y-149279D01*
X1360236Y-138456D02*
X1362860Y-135832D01*
X1368108D01*
X1370732Y-138456D01*
Y-148951D01*
X1368108Y-151575D01*
X1362860D01*
X1360236Y-148951D01*
Y-138456D01*
X1375979D02*
X1378603Y-135832D01*
X1383851D01*
X1386475Y-138456D01*
Y-148951D01*
X1383851Y-151575D01*
X1378603D01*
X1375979Y-148951D01*
Y-138456D01*
X1005906Y-175202D02*
Y-190945D01*
X1011153Y-185697D01*
X1016401Y-190945D01*
Y-175202D01*
X1021649Y-190945D02*
X1026896D01*
X1024272D01*
Y-180450D01*
X1021649D01*
X1034768Y-190945D02*
Y-180450D01*
X1037391D01*
X1040015Y-183073D01*
Y-190945D01*
Y-183073D01*
X1042639Y-180450D01*
X1045263Y-183073D01*
Y-190945D01*
X1050511Y-175202D02*
Y-185697D01*
X1055758Y-190945D01*
X1061006Y-185697D01*
Y-175202D01*
X1076749Y-177826D02*
X1074125Y-175202D01*
X1068877D01*
X1066253Y-177826D01*
Y-188321D01*
X1068877Y-190945D01*
X1074125D01*
X1076749Y-188321D01*
Y-183073D01*
X1071501D01*
D14*
X73431Y88630D02*
X79134Y90158D01*
X78370Y93009D01*
X77165Y93704D01*
X73363Y92686D01*
X72667Y91481D01*
X73431Y88630D01*
X77606Y95860D02*
X77097Y97761D01*
X77351Y96810D01*
X71649Y95282D01*
X72854Y94587D01*
X71581Y99339D02*
X70376Y100034D01*
X69866Y101935D01*
X70562Y103140D01*
X71512Y103395D01*
X72717Y102699D01*
X72972Y101749D01*
X72717Y102699D01*
X73413Y103904D01*
X74363Y104159D01*
X75569Y103463D01*
X76078Y101562D01*
X75382Y100357D01*
X91495Y63542D02*
X95669Y67716D01*
X93582Y69804D01*
X92191D01*
X89408Y67021D01*
Y65629D01*
X91495Y63542D01*
Y71891D02*
X90103Y73282D01*
X90799Y72587D01*
X86625Y68412D01*
X88016D01*
X85929Y77457D02*
X81754Y73282D01*
X85929D01*
X83146Y76065D01*
X120913Y51778D02*
X122441Y57480D01*
X119590Y58244D01*
X118385Y57548D01*
X117366Y53747D01*
X118062Y52542D01*
X120913Y51778D01*
X116738Y59008D02*
X114838Y59518D01*
X115788Y59263D01*
X114260Y53561D01*
X115465Y54256D01*
X106657Y55598D02*
X110459Y54579D01*
X111223Y57430D01*
X109067Y56989D01*
X108117Y57244D01*
X107421Y58449D01*
X107930Y60350D01*
X109135Y61046D01*
X111036Y60536D01*
X111732Y59331D01*
X150347Y56109D02*
X148819Y61811D01*
X145968Y61047D01*
X145272Y59842D01*
X146291Y56040D01*
X147496Y55345D01*
X150347Y56109D01*
X143116Y60283D02*
X141216Y59774D01*
X142166Y60028D01*
X143694Y54326D01*
X144390Y55531D01*
X136091Y52289D02*
X137737Y53748D01*
X139128Y56159D01*
X138619Y58059D01*
X137414Y58755D01*
X135513Y58246D01*
X134818Y57041D01*
X135072Y56090D01*
X136277Y55395D01*
X139128Y56159D01*
X173860Y73778D02*
X169685Y77953D01*
X167598Y75866D01*
Y74474D01*
X170381Y71691D01*
X171772D01*
X173860Y73778D01*
X165511D02*
X164119Y72387D01*
X164815Y73083D01*
X168989Y68908D01*
Y70300D01*
X166206Y66125D02*
X163423Y63342D01*
X162728Y64038D01*
Y69604D01*
X162032Y70300D01*
X186017Y102409D02*
X180315Y103937D01*
X179551Y101086D01*
X180247Y99881D01*
X184048Y98862D01*
X185253Y99558D01*
X186017Y102409D01*
X178787Y98235D02*
X178278Y96334D01*
X178532Y97284D01*
X184235Y95756D01*
X183539Y96961D01*
X182266Y92209D02*
X182961Y91004D01*
X182452Y89103D01*
X181247Y88408D01*
X180297Y88662D01*
X179601Y89867D01*
X178396Y89172D01*
X177445Y89426D01*
X176750Y90631D01*
X177259Y92532D01*
X178464Y93228D01*
X179414Y92973D01*
X180110Y91768D01*
X181315Y92464D01*
X182266Y92209D01*
X180110Y91768D02*
X179601Y89867D01*
X174404Y146259D02*
X169291Y143307D01*
X170767Y140751D01*
X172111Y140391D01*
X175520Y142359D01*
X175880Y143703D01*
X174404Y146259D01*
X172243Y138194D02*
X173227Y136490D01*
X172735Y137342D01*
X177848Y140294D01*
X176504Y140654D01*
X175555Y134426D02*
X175195Y133082D01*
X176179Y131377D01*
X177523Y131017D01*
X180931Y132985D01*
X181291Y134329D01*
X180308Y136033D01*
X178963Y136394D01*
X178111Y135902D01*
X177751Y134558D01*
X179227Y132001D01*
X134993Y168301D02*
X133465Y162598D01*
X136316Y161834D01*
X137521Y162530D01*
X138540Y166332D01*
X137844Y167537D01*
X134993Y168301D01*
X142969Y160052D02*
X139167Y161071D01*
X143987Y163853D01*
X144242Y164804D01*
X143546Y166009D01*
X141645Y166518D01*
X140440Y165823D01*
X146143Y164295D02*
X147348Y164990D01*
X149249Y164481D01*
X149944Y163276D01*
X148926Y159474D01*
X147721Y158779D01*
X145820Y159288D01*
X145124Y160493D01*
X146143Y164295D01*
X105952Y164758D02*
X107480Y159055D01*
X110331Y159819D01*
X111027Y161024D01*
X110009Y164826D01*
X108804Y165522D01*
X105952Y164758D01*
X116984Y161602D02*
X113183Y160583D01*
X115966Y165403D01*
X115711Y166354D01*
X114506Y167050D01*
X112605Y166540D01*
X111909Y165335D01*
X118885Y162111D02*
X120786Y162620D01*
X119836Y162366D01*
X118308Y168068D01*
X117612Y166863D01*
X73628Y132479D02*
X78740Y129528D01*
X80216Y132084D01*
X79856Y133428D01*
X76447Y135396D01*
X75103Y135036D01*
X73628Y132479D01*
X83660Y138049D02*
X81692Y134640D01*
X80251Y140016D01*
X79399Y140508D01*
X78055Y140148D01*
X77071Y138444D01*
X77431Y137100D01*
X86612Y143161D02*
X84644Y139753D01*
X83203Y145129D01*
X82351Y145621D01*
X81007Y145261D01*
X80023Y143557D01*
X80383Y142213D01*
X12205Y140156D02*
Y134252D01*
X16140D01*
X18108D02*
X20076D01*
X19092D01*
Y140156D01*
X18108Y139172D01*
X10630Y93699D02*
Y87795D01*
X14566D01*
X20469D02*
X16533D01*
X20469Y91731D01*
Y92715D01*
X19485Y93699D01*
X17517D01*
X16533Y92715D01*
X44094Y10630D02*
Y18501D01*
X48030D01*
X49342Y17189D01*
Y14566D01*
X48030Y13254D01*
X44094D01*
X51966Y10630D02*
X54590D01*
X53278D01*
Y18501D01*
X51966Y17189D01*
X46065Y106299D02*
X51968D01*
Y109251D01*
X50985Y110235D01*
X47049D01*
X46065Y109251D01*
Y106299D01*
X51968Y112203D02*
Y114171D01*
Y113187D01*
X46065D01*
X47049Y112203D01*
X59454Y64765D02*
X64567Y67716D01*
X63091Y70273D01*
X61747Y70633D01*
X58338Y68665D01*
X57978Y67321D01*
X59454Y64765D01*
X59647Y76238D02*
X61615Y72829D01*
X56239Y74270D01*
X55387Y73778D01*
X55027Y72434D01*
X56011Y70730D01*
X57355Y70369D01*
X91536Y36620D02*
X94488Y41732D01*
X91932Y43208D01*
X90588Y42848D01*
X88620Y39440D01*
X88980Y38096D01*
X91536Y36620D01*
X86916Y40424D02*
X85572Y40063D01*
X83867Y41047D01*
X83507Y42391D01*
X83999Y43244D01*
X85343Y43604D01*
X86195Y43112D01*
X85343Y43604D01*
X84983Y44948D01*
X85475Y45800D01*
X86819Y46160D01*
X88523Y45176D01*
X88884Y43832D01*
X133465Y28742D02*
Y34646D01*
X130513D01*
X129529Y33662D01*
Y29726D01*
X130513Y28742D01*
X133465D01*
X124609Y34646D02*
Y28742D01*
X127561Y31694D01*
X123625D01*
X173818Y41738D02*
X170866Y46850D01*
X168310Y45375D01*
X167950Y44030D01*
X169918Y40622D01*
X171262Y40262D01*
X173818Y41738D01*
X165297Y36818D02*
X168705Y38786D01*
X167229Y41342D01*
X166017Y39506D01*
X165165Y39014D01*
X163821Y39374D01*
X162837Y41079D01*
X163197Y42423D01*
X164901Y43407D01*
X166245Y43047D01*
X201569Y73820D02*
X196457Y76772D01*
X194981Y74215D01*
X195341Y72871D01*
X198749Y70903D01*
X200094Y71263D01*
X201569Y73820D01*
X196650Y65299D02*
X196782Y67495D01*
X196061Y70183D01*
X194357Y71167D01*
X193013Y70807D01*
X192029Y69103D01*
X192389Y67759D01*
X193241Y67267D01*
X194585Y67627D01*
X196061Y70183D01*
X209841Y115748D02*
X203937D01*
Y112796D01*
X204921Y111812D01*
X208857D01*
X209841Y112796D01*
Y115748D01*
Y109844D02*
Y105909D01*
X208857D01*
X204921Y109844D01*
X203937D01*
X196057Y156495D02*
X190945Y153543D01*
X192421Y150987D01*
X193765Y150627D01*
X197173Y152595D01*
X197533Y153939D01*
X196057Y156495D01*
X198157Y150891D02*
X199501Y150530D01*
X200485Y148826D01*
X200125Y147482D01*
X199273Y146990D01*
X197929Y147350D01*
X197569Y146006D01*
X196717Y145514D01*
X195373Y145874D01*
X194389Y147579D01*
X194749Y148923D01*
X195601Y149415D01*
X196945Y149054D01*
X197305Y150399D01*
X198157Y150891D01*
X196945Y149054D02*
X197929Y147350D01*
X164763Y183853D02*
X161811Y178740D01*
X164367Y177264D01*
X165711Y177624D01*
X167679Y181033D01*
X167319Y182377D01*
X164763Y183853D01*
X167416Y176640D02*
X167776Y175296D01*
X169480Y174312D01*
X170824Y174673D01*
X172792Y178081D01*
X172432Y179425D01*
X170728Y180409D01*
X169384Y180049D01*
X168892Y179197D01*
X169252Y177853D01*
X171808Y176377D01*
X120866Y192124D02*
Y186221D01*
X123818D01*
X124802Y187204D01*
Y191140D01*
X123818Y192124D01*
X120866D01*
X126770Y186221D02*
X128738D01*
X127754D01*
Y192124D01*
X126770Y191140D01*
X131689D02*
X132673Y192124D01*
X134641D01*
X135625Y191140D01*
Y187204D01*
X134641Y186221D01*
X132673D01*
X131689Y187204D01*
Y191140D01*
X81300Y177947D02*
X84252Y172835D01*
X86808Y174311D01*
X87168Y175655D01*
X85201Y179063D01*
X83856Y179423D01*
X81300Y177947D01*
X89365Y175786D02*
X91069Y176770D01*
X90217Y176278D01*
X87265Y181391D01*
X86905Y180047D01*
X93625Y178246D02*
X95329Y179230D01*
X94477Y178738D01*
X91526Y183851D01*
X91165Y182507D01*
X53155Y144290D02*
X58268Y141339D01*
X59744Y143895D01*
X59383Y145239D01*
X55975Y147207D01*
X54631Y146847D01*
X53155Y144290D01*
X61220Y146451D02*
X62203Y148155D01*
X61712Y147303D01*
X56599Y150255D01*
X56959Y148911D01*
X65647Y154120D02*
X63679Y150712D01*
X62239Y156088D01*
X61387Y156580D01*
X60043Y156220D01*
X59059Y154516D01*
X59419Y153172D01*
D53*
X6004Y164862D02*
G03*
X6004Y164862I-492J0D01*
G01*
X219685Y175000D02*
G03*
X219685Y175000I-492J0D01*
G01*
X1185039Y-161420D02*
Y-169291D01*
X1188975D01*
X1190287Y-167979D01*
Y-162732D01*
X1188975Y-161420D01*
X1185039D01*
X1194223Y-169291D02*
X1196847D01*
X1198158Y-167979D01*
Y-165356D01*
X1196847Y-164044D01*
X1194223D01*
X1192911Y-165356D01*
Y-167979D01*
X1194223Y-169291D01*
X1206030Y-164044D02*
X1202094D01*
X1200782Y-165356D01*
Y-167979D01*
X1202094Y-169291D01*
X1206030D01*
X1208654Y-164044D02*
Y-167979D01*
X1209966Y-169291D01*
X1213902D01*
Y-164044D01*
X1216525Y-169291D02*
Y-164044D01*
X1217837D01*
X1219149Y-165356D01*
Y-169291D01*
Y-165356D01*
X1220461Y-164044D01*
X1221773Y-165356D01*
Y-169291D01*
X1228333D02*
X1225709D01*
X1224397Y-167979D01*
Y-165356D01*
X1225709Y-164044D01*
X1228333D01*
X1229644Y-165356D01*
Y-166667D01*
X1224397D01*
X1232268Y-169291D02*
Y-164044D01*
X1236204D01*
X1237516Y-165356D01*
Y-169291D01*
X1241452Y-162732D02*
Y-164044D01*
X1240140D01*
X1242764D01*
X1241452D01*
Y-167979D01*
X1242764Y-169291D01*
X1185039Y-122050D02*
Y-129921D01*
X1188975D01*
X1190287Y-128609D01*
Y-123362D01*
X1188975Y-122050D01*
X1185039D01*
X1194223Y-124674D02*
X1196847D01*
X1198158Y-125986D01*
Y-129921D01*
X1194223D01*
X1192911Y-128609D01*
X1194223Y-127297D01*
X1198158D01*
X1202094Y-123362D02*
Y-124674D01*
X1200782D01*
X1203406D01*
X1202094D01*
Y-128609D01*
X1203406Y-129921D01*
X1211278D02*
X1208654D01*
X1207342Y-128609D01*
Y-125986D01*
X1208654Y-124674D01*
X1211278D01*
X1212589Y-125986D01*
Y-127297D01*
X1207342D01*
X1185039Y-82680D02*
Y-90551D01*
X1190287D01*
X1194223Y-85303D02*
X1196847D01*
X1198158Y-86615D01*
Y-90551D01*
X1194223D01*
X1192911Y-89239D01*
X1194223Y-87927D01*
X1198158D01*
X1200782Y-85303D02*
Y-89239D01*
X1202094Y-90551D01*
X1206030D01*
Y-91863D01*
X1204718Y-93175D01*
X1203406D01*
X1206030Y-90551D02*
Y-85303D01*
X1212590Y-90551D02*
X1209966D01*
X1208654Y-89239D01*
Y-86615D01*
X1209966Y-85303D01*
X1212590D01*
X1213902Y-86615D01*
Y-87927D01*
X1208654D01*
X1216525Y-85303D02*
Y-90551D01*
Y-87927D01*
X1217837Y-86615D01*
X1219149Y-85303D01*
X1220461D01*
X1232268Y-90551D02*
Y-82680D01*
X1237516Y-90551D01*
Y-82680D01*
X1241452Y-85303D02*
X1244075D01*
X1245387Y-86615D01*
Y-90551D01*
X1241452D01*
X1240140Y-89239D01*
X1241452Y-87927D01*
X1245387D01*
X1248011Y-90551D02*
Y-85303D01*
X1249323D01*
X1250635Y-86615D01*
Y-90551D01*
Y-86615D01*
X1251947Y-85303D01*
X1253259Y-86615D01*
Y-90551D01*
X1259818D02*
X1257195D01*
X1255883Y-89239D01*
Y-86615D01*
X1257195Y-85303D01*
X1259818D01*
X1261130Y-86615D01*
Y-87927D01*
X1255883D01*
X1185039Y-43310D02*
Y-51181D01*
X1188975D01*
X1190287Y-49869D01*
Y-44622D01*
X1188975Y-43310D01*
X1185039D01*
X1194223Y-51181D02*
X1196847D01*
X1198158Y-49869D01*
Y-47245D01*
X1196847Y-45933D01*
X1194223D01*
X1192911Y-47245D01*
Y-49869D01*
X1194223Y-51181D01*
X1206030Y-45933D02*
X1202094D01*
X1200782Y-47245D01*
Y-49869D01*
X1202094Y-51181D01*
X1206030D01*
X1208654Y-45933D02*
Y-49869D01*
X1209966Y-51181D01*
X1213902D01*
Y-45933D01*
X1216525Y-51181D02*
Y-45933D01*
X1217837D01*
X1219149Y-47245D01*
Y-51181D01*
Y-47245D01*
X1220461Y-45933D01*
X1221773Y-47245D01*
Y-51181D01*
X1228333D02*
X1225709D01*
X1224397Y-49869D01*
Y-47245D01*
X1225709Y-45933D01*
X1228333D01*
X1229644Y-47245D01*
Y-48557D01*
X1224397D01*
X1232268Y-51181D02*
Y-45933D01*
X1236204D01*
X1237516Y-47245D01*
Y-51181D01*
X1241452Y-44622D02*
Y-45933D01*
X1240140D01*
X1242764D01*
X1241452D01*
Y-49869D01*
X1242764Y-51181D01*
X988189Y-161420D02*
Y-169291D01*
X992125D01*
X993437Y-167979D01*
Y-162732D01*
X992125Y-161420D01*
X988189D01*
X999996Y-169291D02*
X997372D01*
X996060Y-167979D01*
Y-165356D01*
X997372Y-164044D01*
X999996D01*
X1001308Y-165356D01*
Y-166667D01*
X996060D01*
X1003932Y-169291D02*
X1007868D01*
X1009180Y-167979D01*
X1007868Y-166667D01*
X1005244D01*
X1003932Y-165356D01*
X1005244Y-164044D01*
X1009180D01*
X1014427Y-171915D02*
X1015739D01*
X1017051Y-170603D01*
Y-164044D01*
X1013115D01*
X1011803Y-165356D01*
Y-167979D01*
X1013115Y-169291D01*
X1017051D01*
X1019675D02*
X1022299D01*
X1020987D01*
Y-164044D01*
X1019675D01*
X1026235Y-169291D02*
Y-164044D01*
X1030170D01*
X1031482Y-165356D01*
Y-169291D01*
X1038042D02*
X1035418D01*
X1034106Y-167979D01*
Y-165356D01*
X1035418Y-164044D01*
X1038042D01*
X1039354Y-165356D01*
Y-166667D01*
X1034106D01*
X1041977Y-164044D02*
Y-169291D01*
Y-166667D01*
X1043289Y-165356D01*
X1044601Y-164044D01*
X1045913D01*
X1342520Y-129921D02*
Y-122050D01*
X1346455D01*
X1347767Y-123362D01*
Y-125986D01*
X1346455Y-127297D01*
X1342520D01*
X1345144D02*
X1347767Y-129921D01*
X1354327D02*
X1351703D01*
X1350391Y-128609D01*
Y-125986D01*
X1351703Y-124674D01*
X1354327D01*
X1355639Y-125986D01*
Y-127297D01*
X1350391D01*
X1358263Y-124674D02*
X1360886Y-129921D01*
X1363510Y-124674D01*
D54*
X7677Y129724D02*
Y145079D01*
Y129724D02*
X23031D01*
Y145079D01*
X7677D02*
X23031D01*
X7677Y84449D02*
Y99803D01*
Y84449D02*
X23031D01*
Y99803D01*
X7677D02*
X23031D01*
X225394Y175591D02*
X231299D01*
X225394D02*
Y178740D01*
X231299D01*
Y175591D02*
Y178740D01*
X225394Y185433D02*
X231299D01*
X225394D02*
Y188583D01*
X231299D01*
Y185433D02*
Y188583D01*
X204331Y179134D02*
Y185039D01*
X201181Y179134D02*
X204331D01*
X201181D02*
Y185039D01*
X204331D01*
X33465Y146653D02*
Y152559D01*
X36614D01*
Y146653D02*
Y152559D01*
X33465Y146653D02*
X36614D01*
X16339Y159645D02*
X22244D01*
Y156496D02*
Y159645D01*
X16339Y156496D02*
X22244D01*
X16339D02*
Y159645D01*
X25197Y175197D02*
Y181102D01*
X22048Y175197D02*
X25197D01*
X22048D02*
Y181102D01*
X25197D01*
X35827Y132480D02*
Y138386D01*
X38976D01*
Y132480D02*
Y138386D01*
X35827Y132480D02*
X38976D01*
X33268Y101181D02*
Y107087D01*
X36417D01*
Y101181D02*
Y107087D01*
X33268Y101181D02*
X36417D01*
X35630Y87205D02*
Y93110D01*
X38780D01*
Y87205D02*
Y93110D01*
X35630Y87205D02*
X38780D01*
X33858Y113386D02*
Y119291D01*
X22047D02*
X33858D01*
X22047Y113386D02*
Y119291D01*
Y113386D02*
X33858D01*
X30906Y77756D02*
X36811D01*
X30906Y65945D02*
Y77756D01*
Y65945D02*
X36811D01*
Y77756D01*
X37008Y33661D02*
Y39567D01*
Y33661D02*
X48819D01*
Y39567D01*
X37008D02*
X48819D01*
X21260Y153248D02*
Y154035D01*
X18504Y154134D02*
X26378D01*
Y149016D02*
Y154134D01*
X18504Y149016D02*
X26378D01*
X18504D02*
Y154134D01*
X21260Y107972D02*
Y108760D01*
X18504Y108858D02*
X26378D01*
Y103740D02*
Y108858D01*
X18504Y103740D02*
X26378D01*
X18504D02*
Y108858D01*
X206693Y194488D02*
X212598D01*
Y191339D02*
Y194488D01*
X206693Y191339D02*
X212598D01*
X206693D02*
Y194488D01*
X68906Y106235D02*
X69160Y105284D01*
X68906Y106235D02*
X73849Y107559D01*
X74104Y106609D01*
X79505Y86453D02*
X79759Y85503D01*
X74816Y84178D02*
X79759Y85503D01*
X74561Y85129D02*
X74816Y84178D01*
X78124Y106055D02*
X78277Y105485D01*
X76196Y107169D02*
X78124Y106055D01*
X66308Y104520D02*
X71709Y84365D01*
X77717Y107577D02*
X83117Y87422D01*
X66308Y104520D02*
X77717Y107577D01*
X71709Y84365D02*
X83117Y87422D01*
X78817Y77247D02*
X79513Y76551D01*
X78817Y77247D02*
X82436Y80866D01*
X83132Y80170D01*
X97887Y65416D02*
X98583Y64720D01*
X94964Y61101D02*
X98583Y64720D01*
X94268Y61797D02*
X94964Y61101D01*
X86890Y81701D02*
X87308Y81284D01*
X84663Y81701D02*
X86890D01*
X77425Y74463D02*
X92180Y59709D01*
X85777Y82815D02*
X100531Y68060D01*
X77425Y74463D02*
X85777Y82815D01*
X92180Y59709D02*
X100531Y68060D01*
X101895Y57099D02*
X102845Y56844D01*
X101895Y57099D02*
X103219Y62043D01*
X104170Y61788D01*
X124325Y56388D02*
X125276Y56133D01*
X123951Y51189D02*
X125276Y56133D01*
X123001Y51444D02*
X123951Y51189D01*
X106659Y64993D02*
X107230Y64840D01*
X104730Y63880D02*
X106659Y64993D01*
X102081Y53992D02*
X122236Y48592D01*
X105138Y65401D02*
X125293Y60000D01*
X102081Y53992D02*
X105138Y65401D01*
X122236Y48592D02*
X125293Y60000D01*
X131954Y51189D02*
X132905Y51444D01*
X130630Y56133D02*
X131954Y51189D01*
X130630Y56133D02*
X131580Y56388D01*
X151735Y61788D02*
X152686Y62043D01*
X154011Y57099D01*
X153060Y56844D02*
X154011Y57099D01*
X132133Y60408D02*
X132704Y60561D01*
X131020Y58479D02*
X132133Y60408D01*
X133669Y48592D02*
X153824Y53992D01*
X130612Y60000D02*
X150768Y65401D01*
X130612Y60000D02*
X133669Y48592D01*
X150768Y65401D02*
X153824Y53992D01*
X160942Y61101D02*
X161638Y61797D01*
X157323Y64720D02*
X160942Y61101D01*
X157323Y64720D02*
X158019Y65416D01*
X172773Y80170D02*
X173469Y80866D01*
X177088Y77247D01*
X176392Y76551D02*
X177088Y77247D01*
X156488Y69174D02*
X156905Y69591D01*
X156488Y66947D02*
X156488Y69174D01*
X163726Y59709D02*
X178480Y74463D01*
X155374Y68060D02*
X170129Y82815D01*
X155374Y68060D02*
X163726Y59709D01*
X170129Y82815D02*
X178480Y74463D01*
X181090Y84178D02*
X181345Y85129D01*
X176146Y85503D02*
X181090Y84178D01*
X176146Y85503D02*
X176401Y86453D01*
X181801Y106609D02*
X182056Y107559D01*
X187000Y106235D01*
X186745Y105284D02*
X187000Y106235D01*
X173196Y88943D02*
X173349Y89513D01*
X173196Y88943D02*
X174309Y87014D01*
X184197Y84365D02*
X189597Y104520D01*
X172788Y87422D02*
X178189Y107577D01*
X172788Y87422D02*
X184197Y84365D01*
X178189Y107577D02*
X189597Y104520D01*
X183460Y130236D02*
X183952Y129384D01*
X179520Y126825D02*
X183952Y129384D01*
X179028Y127677D02*
X179520Y126825D01*
X168103Y146600D02*
X168595Y145748D01*
X168103Y146600D02*
X172535Y149159D01*
X173027Y148307D01*
X174706Y127682D02*
X175001Y127171D01*
X177153Y126595D01*
X175584Y149783D02*
X186017Y131713D01*
X165356Y143878D02*
X175789Y125807D01*
X186017Y131713D01*
X165356Y143878D02*
X175584Y149783D01*
X153060Y163628D02*
X154011Y163373D01*
X152686Y158430D02*
X154011Y163373D01*
X151735Y158684D02*
X152686Y158430D01*
X130630Y164340D02*
X131580Y164085D01*
X130630Y164340D02*
X131954Y169283D01*
X132905Y169029D01*
X148676Y155632D02*
X149246Y155479D01*
X151175Y156593D01*
X133669Y171881D02*
X153824Y166480D01*
X130612Y160472D02*
X150768Y155072D01*
X153824Y166480D01*
X130612Y160472D02*
X133669Y171881D01*
X123001Y169029D02*
X123951Y169283D01*
X125276Y164340D01*
X124325Y164085D02*
X125276Y164340D01*
X103219Y158430D02*
X104170Y158684D01*
X101895Y163373D02*
X103219Y158430D01*
X101895Y163373D02*
X102845Y163628D01*
X123202Y159912D02*
X123772Y160065D01*
X124886Y161993D01*
X102081Y166480D02*
X122236Y171881D01*
X105138Y155072D02*
X125293Y160472D01*
X122236Y171881D02*
X125293Y160472D01*
X102081Y166480D02*
X105138Y155072D01*
X82878Y148307D02*
X83371Y149159D01*
X87803Y146600D01*
X87311Y145748D02*
X87803Y146600D01*
X76386Y126825D02*
X76878Y127677D01*
X71953Y129384D02*
X76386Y126825D01*
X71953Y129384D02*
X72445Y130236D01*
X89467Y142003D02*
X89763Y142514D01*
X89186Y144665D02*
X89763Y142514D01*
X69888Y131713D02*
X80321Y149783D01*
X80117Y125807D02*
X90550Y143878D01*
X80321Y149783D02*
X90550Y143878D01*
X69888Y131713D02*
X80117Y125807D01*
X25197Y123228D02*
Y127953D01*
X28346D01*
Y123228D02*
Y127953D01*
X25197Y123228D02*
X28346D01*
X25197Y124409D02*
X28346D01*
X25197Y124803D02*
X28346D01*
X25197Y77953D02*
Y82677D01*
X28346D01*
Y77953D02*
Y82677D01*
X25197Y77953D02*
X28346D01*
X25197Y79134D02*
X28346D01*
X25197Y79527D02*
X28346D01*
X25197Y140157D02*
X33858D01*
X25197Y134646D02*
Y140157D01*
Y134646D02*
X33858D01*
Y140157D01*
X25197Y94882D02*
X33858D01*
X25197Y89370D02*
Y94882D01*
Y89370D02*
X33858D01*
Y94882D01*
X46260Y120669D02*
Y121653D01*
X51378D01*
Y120669D02*
Y121653D01*
Y98819D02*
Y99803D01*
X46260Y98819D02*
X51378D01*
X46260D02*
Y99803D01*
X55118Y119095D02*
X55118Y118504D01*
X53543Y120669D02*
X55118Y119095D01*
X43307Y99803D02*
Y120669D01*
X55118Y99803D02*
Y120669D01*
X43307D02*
X55118D01*
X43307Y99803D02*
X55118D01*
X51496Y79277D02*
X51988Y78425D01*
X51496Y79277D02*
X55928Y81836D01*
X56420Y80984D01*
X66854Y62914D02*
X67346Y62061D01*
X62913Y59502D02*
X67346Y62061D01*
X62421Y60355D02*
X62913Y59502D01*
X60447Y81490D02*
X60742Y80979D01*
X58296Y82067D02*
X60447Y81490D01*
X49431Y76949D02*
X59864Y58878D01*
X59660Y82854D02*
X70093Y64784D01*
X49431Y76949D02*
X59660Y82854D01*
X59864Y58878D02*
X70093Y64784D01*
X77219Y45197D02*
X78071Y44705D01*
X77219Y45197D02*
X79778Y49629D01*
X80630Y49137D01*
X98701Y38704D02*
X99553Y38212D01*
X96994Y33779D02*
X99553Y38212D01*
X96142Y34271D02*
X96994Y33779D01*
X83864Y51589D02*
X84375Y51293D01*
X81713Y51012D02*
X83864Y51589D01*
X76595Y42147D02*
X94665Y31714D01*
X82500Y52376D02*
X100571Y41943D01*
X76595Y42147D02*
X82500Y52376D01*
X94665Y31714D02*
X100571Y41943D01*
X116535Y28543D02*
X117520D01*
X116535D02*
Y33661D01*
X117520D01*
X138386D02*
X139370D01*
Y28543D02*
Y33661D01*
X138386Y28543D02*
X139370D01*
X119095Y37402D02*
X119685Y37402D01*
X117520Y35827D02*
X119095Y37402D01*
X117520Y25591D02*
X138386D01*
X117520Y37402D02*
X138386D01*
X117520Y25591D02*
Y37402D01*
X138386Y25591D02*
Y37402D01*
X158912Y33779D02*
X159764Y34271D01*
X156352Y38212D02*
X158912Y33779D01*
X156352Y38212D02*
X157205Y38704D01*
X175276Y49137D02*
X176128Y49629D01*
X178687Y45197D01*
X177834Y44705D02*
X178687Y45197D01*
X156699Y42730D02*
X157210Y43026D01*
X156122Y40579D02*
X156699Y42730D01*
X161240Y31714D02*
X179311Y42147D01*
X155335Y41943D02*
X173405Y52376D01*
X155335Y41943D02*
X161240Y31714D01*
X173405Y52376D02*
X179311Y42147D01*
X192992Y59502D02*
X193484Y60355D01*
X188560Y62061D02*
X192992Y59502D01*
X188560Y62061D02*
X189052Y62914D01*
X199485Y80984D02*
X199977Y81836D01*
X204410Y79277D01*
X203917Y78425D02*
X204410Y79277D01*
X186600Y66147D02*
X186896Y66659D01*
X186600Y66147D02*
X187177Y63996D01*
X196042Y58878D02*
X206475Y76949D01*
X185813Y64784D02*
X196246Y82854D01*
X185813Y64784D02*
X196042Y58878D01*
X196246Y82854D02*
X206475Y76949D01*
X209646Y98819D02*
Y99803D01*
X204528Y98819D02*
X209646D01*
X204528D02*
Y99803D01*
Y120669D02*
Y121653D01*
X209646D01*
Y120669D02*
Y121653D01*
X200787Y101969D02*
X200787Y101378D01*
X202362Y99803D01*
X212598D02*
Y120669D01*
X200787Y99803D02*
Y120669D01*
Y99803D02*
X212598D01*
X200787Y120669D02*
X212598D01*
X203917Y142047D02*
X204410Y141195D01*
X199977Y138636D02*
X204410Y141195D01*
X199485Y139488D02*
X199977Y138636D01*
X188560Y158411D02*
X189052Y157559D01*
X188560Y158411D02*
X192992Y160970D01*
X193484Y160118D01*
X195163Y139494D02*
X195458Y138982D01*
X197610Y138406D01*
X196042Y161594D02*
X206475Y143524D01*
X185813Y155689D02*
X196246Y137618D01*
X206475Y143524D01*
X185813Y155689D02*
X196042Y161594D01*
X177834Y175768D02*
X178687Y175276D01*
X176128Y170843D02*
X178687Y175276D01*
X175276Y171335D02*
X176128Y170843D01*
X156352Y182261D02*
X157205Y181769D01*
X156352Y182261D02*
X158912Y186693D01*
X159764Y186201D01*
X171530Y169179D02*
X172042Y168884D01*
X174193Y169460D01*
X161240Y188758D02*
X179311Y178325D01*
X155335Y178529D02*
X173405Y168096D01*
X179311Y178325D01*
X155335Y178529D02*
X161240Y188758D01*
X138386Y191929D02*
X139370D01*
Y186811D02*
Y191929D01*
X138386Y186811D02*
X139370D01*
X116535D02*
X117520D01*
X116535D02*
Y191929D01*
X117520D01*
X136221Y183071D02*
X136811Y183071D01*
X138386Y184646D01*
X117520Y194882D02*
X138386D01*
X117520Y183071D02*
X138386D01*
Y194882D01*
X117520Y183071D02*
Y194882D01*
X96142Y186201D02*
X96994Y186693D01*
X99553Y182261D01*
X98701Y181769D02*
X99553Y182261D01*
X79778Y170843D02*
X80630Y171335D01*
X77219Y175276D02*
X79778Y170843D01*
X77219Y175276D02*
X78071Y175768D01*
X98695Y177447D02*
X99207Y177742D01*
X99783Y179893D01*
X76595Y178325D02*
X94665Y188758D01*
X82500Y168096D02*
X100571Y178529D01*
X94665Y188758D02*
X100571Y178529D01*
X76595Y178325D02*
X82500Y168096D01*
X62421Y160118D02*
X62913Y160970D01*
X67346Y158411D01*
X66854Y157559D02*
X67346Y158411D01*
X55928Y138636D02*
X56420Y139488D01*
X51496Y141195D02*
X55928Y138636D01*
X51496Y141195D02*
X51988Y142047D01*
X69010Y153814D02*
X69305Y154325D01*
X68729Y156476D02*
X69305Y154325D01*
X49431Y143524D02*
X59864Y161594D01*
X59660Y137618D02*
X70093Y155689D01*
X59864Y161594D02*
X70093Y155689D01*
X49431Y143524D02*
X59660Y137618D01*
X21784Y152034D02*
X21456Y152362D01*
X20800D01*
X20472Y152034D01*
Y150722D01*
X20800Y150394D01*
X21456D01*
X21784Y150722D01*
X23752Y150394D02*
X22440D01*
X23752Y151706D01*
Y152034D01*
X23424Y152362D01*
X22768D01*
X22440Y152034D01*
X27559Y138582D02*
Y136614D01*
X27953Y136221D01*
X28740D01*
X29133Y136614D01*
Y138582D01*
X31495Y136221D02*
X29921D01*
X31495Y137795D01*
Y138188D01*
X31101Y138582D01*
X30314D01*
X29921Y138188D01*
X36220Y148425D02*
X34253D01*
Y149409D01*
X34581Y149737D01*
X35236D01*
X35565Y149409D01*
Y148425D01*
Y149081D02*
X36220Y149737D01*
Y151377D02*
X34253D01*
X35236Y150393D01*
Y151705D01*
X38583Y133465D02*
X36615D01*
Y134449D01*
X36943Y134776D01*
X37599D01*
X37927Y134449D01*
Y133465D01*
Y134121D02*
X38583Y134776D01*
X36615Y135432D02*
Y136744D01*
X36943D01*
X38255Y135432D01*
X38583D01*
X21391Y106364D02*
X21063Y106692D01*
X20407D01*
X20079Y106364D01*
Y105052D01*
X20407Y104724D01*
X21063D01*
X21391Y105052D01*
X23031Y104724D02*
Y106692D01*
X22047Y105708D01*
X23359D01*
X27165Y93306D02*
Y91338D01*
X27559Y90945D01*
X28346D01*
X28740Y91338D01*
Y93306D01*
X29527Y92913D02*
X29920Y93306D01*
X30707D01*
X31101Y92913D01*
Y92519D01*
X30707Y92126D01*
X30314D01*
X30707D01*
X31101Y91732D01*
Y91338D01*
X30707Y90945D01*
X29920D01*
X29527Y91338D01*
X35827Y102362D02*
X33859D01*
Y103346D01*
X34187Y103674D01*
X34843D01*
X35171Y103346D01*
Y102362D01*
Y103018D02*
X35827Y103674D01*
X34187Y104330D02*
X33859Y104658D01*
Y105314D01*
X34187Y105642D01*
X34515D01*
X34843Y105314D01*
X35171Y105642D01*
X35499D01*
X35827Y105314D01*
Y104658D01*
X35499Y104330D01*
X35171D01*
X34843Y104658D01*
X34515Y104330D01*
X34187D01*
X34843Y104658D02*
Y105314D01*
X38189Y88583D02*
X36221D01*
Y89567D01*
X36549Y89895D01*
X37205D01*
X37533Y89567D01*
Y88583D01*
Y89239D02*
X38189Y89895D01*
X37861Y90551D02*
X38189Y90878D01*
Y91535D01*
X37861Y91862D01*
X36549D01*
X36221Y91535D01*
Y90878D01*
X36549Y90551D01*
X36877D01*
X37205Y90878D01*
Y91862D01*
X24803Y176772D02*
X22835D01*
Y177756D01*
X23163Y178084D01*
X23819D01*
X24147Y177756D01*
Y176772D01*
Y177428D02*
X24803Y178084D01*
X22835Y180051D02*
X23163Y179395D01*
X23819Y178740D01*
X24475D01*
X24803Y179068D01*
Y179723D01*
X24475Y180051D01*
X24147D01*
X23819Y179723D01*
Y178740D01*
X17717Y157087D02*
Y159055D01*
X18700D01*
X19028Y158727D01*
Y158071D01*
X18700Y157743D01*
X17717D01*
X18372D02*
X19028Y157087D01*
X20996Y159055D02*
X19684D01*
Y158071D01*
X20340Y158398D01*
X20668D01*
X20996Y158071D01*
Y157415D01*
X20668Y157087D01*
X20012D01*
X19684Y157415D01*
X227165Y176378D02*
Y178346D01*
X228149D01*
X228477Y178018D01*
Y177362D01*
X228149Y177034D01*
X227165D01*
X227821D02*
X228477Y176378D01*
X229133D02*
X229789D01*
X229461D01*
Y178346D01*
X229133Y178018D01*
X226772Y185827D02*
Y187795D01*
X227756D01*
X228084Y187467D01*
Y186811D01*
X227756Y186483D01*
X226772D01*
X227428D02*
X228084Y185827D01*
X230051D02*
X228740D01*
X230051Y187139D01*
Y187467D01*
X229723Y187795D01*
X229067D01*
X228740Y187467D01*
X203937Y180709D02*
X201969D01*
Y181693D01*
X202297Y182021D01*
X202953D01*
X203281Y181693D01*
Y180709D01*
Y181365D02*
X203937Y182021D01*
X202297Y182676D02*
X201969Y183004D01*
Y183660D01*
X202297Y183988D01*
X202625D01*
X202953Y183660D01*
Y183333D01*
Y183660D01*
X203281Y183988D01*
X203609D01*
X203937Y183660D01*
Y183004D01*
X203609Y182676D01*
X209580Y193766D02*
X209252Y194094D01*
X208596D01*
X208268Y193766D01*
Y192454D01*
X208596Y192126D01*
X209252D01*
X209580Y192454D01*
X210236Y192126D02*
X210892D01*
X210564D01*
Y194094D01*
X210236Y193766D01*
X11811Y220472D02*
G03*
X0Y208661I0J-11811D01*
G01*
Y11811D02*
G03*
X11811Y0I11811J0D01*
G01*
X244094D02*
G03*
X255906Y11811I0J11811D01*
G01*
Y208661D02*
G03*
X244094Y220472I-11811J0D01*
G01*
X110236Y96457D02*
G03*
X114173Y92520I3937J0D01*
G01*
X141732D02*
G03*
X145669Y96457I0J3937D01*
G01*
Y124016D02*
G03*
X141732Y127953I-3937J0D01*
G01*
X114173D02*
G03*
X110236Y124016I0J-3937D01*
G01*
X255906Y11811D02*
Y208661D01*
X11811Y220472D02*
X244094D01*
X11811Y0D02*
X244094D01*
X114173Y127953D02*
X141732D01*
X145669Y96457D02*
Y124016D01*
X114173Y92520D02*
X141732D01*
X110236Y96457D02*
Y124016D01*
X0Y11811D02*
Y208661D01*
D62*
X29922Y122441D02*
X33071D01*
Y124015D01*
X32546Y124540D01*
X30447D01*
X29922Y124015D01*
Y122441D01*
X33071Y127689D02*
Y125590D01*
X30972Y127689D01*
X30447D01*
X29922Y127164D01*
Y126114D01*
X30447Y125590D01*
Y128738D02*
X29922Y129263D01*
Y130312D01*
X30447Y130837D01*
X30972D01*
X31497Y130312D01*
Y129788D01*
Y130312D01*
X32021Y130837D01*
X32546D01*
X33071Y130312D01*
Y129263D01*
X32546Y128738D01*
X20867Y74410D02*
X24016D01*
Y75984D01*
X23491Y76508D01*
X21392D01*
X20867Y75984D01*
Y74410D01*
X24016Y79657D02*
Y77558D01*
X21917Y79657D01*
X21392D01*
X20867Y79132D01*
Y78083D01*
X21392Y77558D01*
X24016Y82281D02*
X20867D01*
X22442Y80707D01*
Y82806D01*
X27558Y117027D02*
X27066Y117519D01*
X26083D01*
X25591Y117027D01*
Y115059D01*
X26083Y114567D01*
X27066D01*
X27558Y115059D01*
X28542Y117027D02*
X29034Y117519D01*
X30018D01*
X30510Y117027D01*
Y116535D01*
X30018Y116043D01*
X29526D01*
X30018D01*
X30510Y115551D01*
Y115059D01*
X30018Y114567D01*
X29034D01*
X28542Y115059D01*
X32973Y71653D02*
X32481Y71161D01*
Y70177D01*
X32973Y69685D01*
X34941D01*
X35433Y70177D01*
Y71161D01*
X34941Y71653D01*
X32481Y74605D02*
Y72637D01*
X33957D01*
X33465Y73621D01*
Y74113D01*
X33957Y74605D01*
X34941D01*
X35433Y74113D01*
Y73129D01*
X34941Y72637D01*
X42519Y37499D02*
X42027Y37991D01*
X41043D01*
X40551Y37499D01*
Y35531D01*
X41043Y35039D01*
X42027D01*
X42519Y35531D01*
X45471Y37991D02*
X44487Y37499D01*
X43503Y36515D01*
Y35531D01*
X43995Y35039D01*
X44979D01*
X45471Y35531D01*
Y36023D01*
X44979Y36515D01*
X43503D01*
M02*
