G04 Layer_Color=8388736*
%FSLAX25Y25*%
%MOIN*%
G70*
G01*
G75*
%ADD11C,0.00787*%
%ADD12C,0.01575*%
%ADD53C,0.00984*%
%ADD54C,0.00394*%
%ADD63R,0.08674X0.04225*%
%ADD64R,0.03162X0.04343*%
%ADD65R,0.04343X0.03162*%
%ADD66R,0.04343X0.07887*%
%ADD67R,0.07887X0.04343*%
%ADD68R,0.03556X0.06706*%
G04:AMPARAMS|DCode=69|XSize=106.42mil|YSize=74.93mil|CornerRadius=0mil|HoleSize=0mil|Usage=FLASHONLY|Rotation=105.000|XOffset=0mil|YOffset=0mil|HoleType=Round|Shape=Rectangle|*
%AMROTATEDRECTD69*
4,1,4,0.04996,-0.04170,-0.02242,-0.06110,-0.04996,0.04170,0.02242,0.06110,0.04996,-0.04170,0.0*
%
%ADD69ROTATEDRECTD69*%

G04:AMPARAMS|DCode=70|XSize=31.62mil|YSize=67.06mil|CornerRadius=0mil|HoleSize=0mil|Usage=FLASHONLY|Rotation=105.000|XOffset=0mil|YOffset=0mil|HoleType=Round|Shape=Rectangle|*
%AMROTATEDRECTD70*
4,1,4,0.03648,-0.00660,-0.02829,-0.02395,-0.03648,0.00660,0.02829,0.02395,0.03648,-0.00660,0.0*
%
%ADD70ROTATEDRECTD70*%

G04:AMPARAMS|DCode=71|XSize=106.42mil|YSize=74.93mil|CornerRadius=0mil|HoleSize=0mil|Usage=FLASHONLY|Rotation=135.000|XOffset=0mil|YOffset=0mil|HoleType=Round|Shape=Rectangle|*
%AMROTATEDRECTD71*
4,1,4,0.06412,-0.01114,0.01114,-0.06412,-0.06412,0.01114,-0.01114,0.06412,0.06412,-0.01114,0.0*
%
%ADD71ROTATEDRECTD71*%

G04:AMPARAMS|DCode=72|XSize=31.62mil|YSize=67.06mil|CornerRadius=0mil|HoleSize=0mil|Usage=FLASHONLY|Rotation=135.000|XOffset=0mil|YOffset=0mil|HoleType=Round|Shape=Rectangle|*
%AMROTATEDRECTD72*
4,1,4,0.03489,0.01253,-0.01253,-0.03489,-0.03489,-0.01253,0.01253,0.03489,0.03489,0.01253,0.0*
%
%ADD72ROTATEDRECTD72*%

G04:AMPARAMS|DCode=73|XSize=106.42mil|YSize=74.93mil|CornerRadius=0mil|HoleSize=0mil|Usage=FLASHONLY|Rotation=165.000|XOffset=0mil|YOffset=0mil|HoleType=Round|Shape=Rectangle|*
%AMROTATEDRECTD73*
4,1,4,0.06110,0.02242,0.04170,-0.04996,-0.06110,-0.02242,-0.04170,0.04996,0.06110,0.02242,0.0*
%
%ADD73ROTATEDRECTD73*%

G04:AMPARAMS|DCode=74|XSize=31.62mil|YSize=67.06mil|CornerRadius=0mil|HoleSize=0mil|Usage=FLASHONLY|Rotation=165.000|XOffset=0mil|YOffset=0mil|HoleType=Round|Shape=Rectangle|*
%AMROTATEDRECTD74*
4,1,4,0.02395,0.02829,0.00660,-0.03648,-0.02395,-0.02829,-0.00660,0.03648,0.02395,0.02829,0.0*
%
%ADD74ROTATEDRECTD74*%

G04:AMPARAMS|DCode=75|XSize=106.42mil|YSize=74.93mil|CornerRadius=0mil|HoleSize=0mil|Usage=FLASHONLY|Rotation=195.000|XOffset=0mil|YOffset=0mil|HoleType=Round|Shape=Rectangle|*
%AMROTATEDRECTD75*
4,1,4,0.04170,0.04996,0.06110,-0.02242,-0.04170,-0.04996,-0.06110,0.02242,0.04170,0.04996,0.0*
%
%ADD75ROTATEDRECTD75*%

G04:AMPARAMS|DCode=76|XSize=31.62mil|YSize=67.06mil|CornerRadius=0mil|HoleSize=0mil|Usage=FLASHONLY|Rotation=195.000|XOffset=0mil|YOffset=0mil|HoleType=Round|Shape=Rectangle|*
%AMROTATEDRECTD76*
4,1,4,0.00660,0.03648,0.02395,-0.02829,-0.00660,-0.03648,-0.02395,0.02829,0.00660,0.03648,0.0*
%
%ADD76ROTATEDRECTD76*%

G04:AMPARAMS|DCode=77|XSize=106.42mil|YSize=74.93mil|CornerRadius=0mil|HoleSize=0mil|Usage=FLASHONLY|Rotation=225.000|XOffset=0mil|YOffset=0mil|HoleType=Round|Shape=Rectangle|*
%AMROTATEDRECTD77*
4,1,4,0.01114,0.06412,0.06412,0.01114,-0.01114,-0.06412,-0.06412,-0.01114,0.01114,0.06412,0.0*
%
%ADD77ROTATEDRECTD77*%

G04:AMPARAMS|DCode=78|XSize=31.62mil|YSize=67.06mil|CornerRadius=0mil|HoleSize=0mil|Usage=FLASHONLY|Rotation=225.000|XOffset=0mil|YOffset=0mil|HoleType=Round|Shape=Rectangle|*
%AMROTATEDRECTD78*
4,1,4,-0.01253,0.03489,0.03489,-0.01253,0.01253,-0.03489,-0.03489,0.01253,-0.01253,0.03489,0.0*
%
%ADD78ROTATEDRECTD78*%

G04:AMPARAMS|DCode=79|XSize=106.42mil|YSize=74.93mil|CornerRadius=0mil|HoleSize=0mil|Usage=FLASHONLY|Rotation=255.000|XOffset=0mil|YOffset=0mil|HoleType=Round|Shape=Rectangle|*
%AMROTATEDRECTD79*
4,1,4,-0.02242,0.06110,0.04996,0.04170,0.02242,-0.06110,-0.04996,-0.04170,-0.02242,0.06110,0.0*
%
%ADD79ROTATEDRECTD79*%

G04:AMPARAMS|DCode=80|XSize=31.62mil|YSize=67.06mil|CornerRadius=0mil|HoleSize=0mil|Usage=FLASHONLY|Rotation=255.000|XOffset=0mil|YOffset=0mil|HoleType=Round|Shape=Rectangle|*
%AMROTATEDRECTD80*
4,1,4,-0.02829,0.02395,0.03648,0.00660,0.02829,-0.02395,-0.03648,-0.00660,-0.02829,0.02395,0.0*
%
%ADD80ROTATEDRECTD80*%

G04:AMPARAMS|DCode=81|XSize=106.42mil|YSize=74.93mil|CornerRadius=0mil|HoleSize=0mil|Usage=FLASHONLY|Rotation=300.000|XOffset=0mil|YOffset=0mil|HoleType=Round|Shape=Rectangle|*
%AMROTATEDRECTD81*
4,1,4,-0.05905,0.02735,0.00584,0.06482,0.05905,-0.02735,-0.00584,-0.06482,-0.05905,0.02735,0.0*
%
%ADD81ROTATEDRECTD81*%

G04:AMPARAMS|DCode=82|XSize=31.62mil|YSize=67.06mil|CornerRadius=0mil|HoleSize=0mil|Usage=FLASHONLY|Rotation=300.000|XOffset=0mil|YOffset=0mil|HoleType=Round|Shape=Rectangle|*
%AMROTATEDRECTD82*
4,1,4,-0.03694,-0.00307,0.02113,0.03046,0.03694,0.00307,-0.02113,-0.03046,-0.03694,-0.00307,0.0*
%
%ADD82ROTATEDRECTD82*%

G04:AMPARAMS|DCode=83|XSize=106.42mil|YSize=74.93mil|CornerRadius=0mil|HoleSize=0mil|Usage=FLASHONLY|Rotation=60.000|XOffset=0mil|YOffset=0mil|HoleType=Round|Shape=Rectangle|*
%AMROTATEDRECTD83*
4,1,4,0.00584,-0.06482,-0.05905,-0.02735,-0.00584,0.06482,0.05905,0.02735,0.00584,-0.06482,0.0*
%
%ADD83ROTATEDRECTD83*%

G04:AMPARAMS|DCode=84|XSize=31.62mil|YSize=67.06mil|CornerRadius=0mil|HoleSize=0mil|Usage=FLASHONLY|Rotation=60.000|XOffset=0mil|YOffset=0mil|HoleType=Round|Shape=Rectangle|*
%AMROTATEDRECTD84*
4,1,4,0.02113,-0.03046,-0.03694,0.00307,-0.02113,0.03046,0.03694,-0.00307,0.02113,-0.03046,0.0*
%
%ADD84ROTATEDRECTD84*%

%ADD85R,0.02375X0.02690*%
%ADD86R,0.02375X0.04343*%
%ADD87R,0.04737X0.04147*%
%ADD88R,0.04737X0.04147*%
%ADD89R,0.03162X0.05328*%
%ADD90R,0.07493X0.10642*%
%ADD91R,0.06706X0.03162*%
G04:AMPARAMS|DCode=92|XSize=106.42mil|YSize=74.93mil|CornerRadius=0mil|HoleSize=0mil|Usage=FLASHONLY|Rotation=150.000|XOffset=0mil|YOffset=0mil|HoleType=Round|Shape=Rectangle|*
%AMROTATEDRECTD92*
4,1,4,0.06482,0.00584,0.02735,-0.05905,-0.06482,-0.00584,-0.02735,0.05905,0.06482,0.00584,0.0*
%
%ADD92ROTATEDRECTD92*%

G04:AMPARAMS|DCode=93|XSize=31.62mil|YSize=67.06mil|CornerRadius=0mil|HoleSize=0mil|Usage=FLASHONLY|Rotation=150.000|XOffset=0mil|YOffset=0mil|HoleType=Round|Shape=Rectangle|*
%AMROTATEDRECTD93*
4,1,4,0.03046,0.02113,-0.00307,-0.03694,-0.03046,-0.02113,0.00307,0.03694,0.03046,0.02113,0.0*
%
%ADD93ROTATEDRECTD93*%

%ADD94R,0.10642X0.07493*%
%ADD95R,0.03162X0.06706*%
G04:AMPARAMS|DCode=96|XSize=106.42mil|YSize=74.93mil|CornerRadius=0mil|HoleSize=0mil|Usage=FLASHONLY|Rotation=210.000|XOffset=0mil|YOffset=0mil|HoleType=Round|Shape=Rectangle|*
%AMROTATEDRECTD96*
4,1,4,0.02735,0.05905,0.06482,-0.00584,-0.02735,-0.05905,-0.06482,0.00584,0.02735,0.05905,0.0*
%
%ADD96ROTATEDRECTD96*%

G04:AMPARAMS|DCode=97|XSize=31.62mil|YSize=67.06mil|CornerRadius=0mil|HoleSize=0mil|Usage=FLASHONLY|Rotation=210.000|XOffset=0mil|YOffset=0mil|HoleType=Round|Shape=Rectangle|*
%AMROTATEDRECTD97*
4,1,4,-0.00307,0.03694,0.03046,-0.02113,0.00307,-0.03694,-0.03046,0.02113,-0.00307,0.03694,0.0*
%
%ADD97ROTATEDRECTD97*%

%ADD98R,0.05328X0.03162*%
%ADD99C,0.06706*%
%ADD100R,0.06706X0.06706*%
%ADD101R,0.08674X0.08674*%
G04:AMPARAMS|DCode=102|XSize=86.74mil|YSize=86.74mil|CornerRadius=23.69mil|HoleSize=0mil|Usage=FLASHONLY|Rotation=0.000|XOffset=0mil|YOffset=0mil|HoleType=Round|Shape=RoundedRectangle|*
%AMROUNDEDRECTD102*
21,1,0.08674,0.03937,0,0,0.0*
21,1,0.03937,0.08674,0,0,0.0*
1,1,0.04737,0.01969,-0.01969*
1,1,0.04737,-0.01969,-0.01969*
1,1,0.04737,-0.01969,0.01969*
1,1,0.04737,0.01969,0.01969*
%
%ADD102ROUNDEDRECTD102*%
%ADD103C,0.05918*%
%ADD104C,0.05118*%
%ADD105C,0.24410*%
G36*
X1121080Y-83717D02*
Y-84003D01*
Y-84290D01*
Y-84576D01*
Y-84862D01*
Y-85149D01*
Y-85435D01*
Y-85721D01*
Y-86007D01*
Y-86294D01*
Y-86580D01*
Y-86866D01*
Y-87153D01*
Y-87439D01*
Y-87725D01*
Y-88012D01*
Y-88298D01*
Y-88584D01*
Y-88871D01*
Y-89157D01*
Y-89443D01*
X1120793D01*
Y-89730D01*
Y-90016D01*
Y-90302D01*
Y-90588D01*
Y-90875D01*
X1120507D01*
Y-91161D01*
Y-91448D01*
Y-91734D01*
Y-92020D01*
X1120221D01*
Y-92306D01*
Y-92593D01*
Y-92879D01*
Y-93165D01*
X1119934D01*
Y-93452D01*
Y-93738D01*
Y-94024D01*
X1119648D01*
Y-94311D01*
Y-94597D01*
Y-94883D01*
X1119362D01*
Y-95170D01*
Y-95456D01*
Y-95742D01*
X1119075D01*
Y-96029D01*
Y-96315D01*
Y-96601D01*
X1118789D01*
Y-96887D01*
Y-97174D01*
X1118503D01*
Y-97460D01*
Y-97746D01*
X1118217D01*
Y-98033D01*
Y-98319D01*
Y-98605D01*
X1117930D01*
Y-98892D01*
Y-99178D01*
X1117644D01*
Y-99464D01*
Y-99751D01*
Y-100037D01*
X1117358D01*
Y-100323D01*
Y-100610D01*
X1117071D01*
Y-100896D01*
Y-101182D01*
Y-101468D01*
X1116785D01*
Y-101755D01*
Y-102041D01*
X1116499D01*
Y-102327D01*
Y-102614D01*
Y-102900D01*
X1116212D01*
Y-103186D01*
Y-103473D01*
X1115926D01*
Y-103759D01*
Y-104045D01*
Y-104332D01*
X1115640D01*
Y-104618D01*
Y-104904D01*
X1115353D01*
Y-105191D01*
Y-105477D01*
Y-105763D01*
X1115067D01*
Y-106049D01*
Y-106336D01*
X1114781D01*
Y-106622D01*
Y-106908D01*
Y-107195D01*
X1114494D01*
Y-107481D01*
Y-107767D01*
X1114208D01*
Y-108054D01*
Y-108340D01*
Y-108626D01*
X1113922D01*
Y-108913D01*
Y-109199D01*
X1113636D01*
Y-109485D01*
Y-109772D01*
Y-110058D01*
X1113349D01*
Y-110344D01*
Y-110630D01*
X1113063D01*
Y-110917D01*
Y-111203D01*
Y-111489D01*
X1112776D01*
Y-111776D01*
Y-112062D01*
X1112490D01*
Y-112348D01*
Y-112635D01*
Y-112921D01*
X1112204D01*
Y-113207D01*
Y-113494D01*
X1111918D01*
Y-113780D01*
Y-114066D01*
Y-114353D01*
X1111631D01*
Y-114639D01*
Y-114925D01*
X1111345D01*
Y-115211D01*
Y-115498D01*
Y-115784D01*
X1111059D01*
Y-116070D01*
Y-116357D01*
X1110772D01*
Y-116643D01*
Y-116929D01*
Y-117216D01*
X1110486D01*
Y-117502D01*
Y-117788D01*
X1110200D01*
Y-118075D01*
Y-118361D01*
Y-118647D01*
X1109913D01*
Y-118933D01*
Y-119220D01*
X1109627D01*
Y-119506D01*
Y-119792D01*
Y-120079D01*
X1109341D01*
Y-120365D01*
Y-120651D01*
X1109054D01*
Y-120938D01*
Y-121224D01*
X1108768D01*
Y-121510D01*
Y-121797D01*
X1108482D01*
Y-122083D01*
Y-122369D01*
Y-122656D01*
X1108195D01*
Y-122942D01*
X1107909D01*
Y-123228D01*
Y-123514D01*
Y-123801D01*
X1107623D01*
Y-124087D01*
X1107337D01*
Y-124373D01*
Y-124660D01*
X1107050D01*
Y-124946D01*
Y-125232D01*
X1106764D01*
Y-125519D01*
Y-125805D01*
X1106478D01*
Y-126091D01*
Y-126378D01*
X1106191D01*
Y-126664D01*
X1105905D01*
Y-126950D01*
Y-127237D01*
X1105619D01*
Y-127523D01*
Y-127809D01*
X1105332D01*
Y-128095D01*
X1105046D01*
Y-128382D01*
X1104760D01*
Y-128668D01*
Y-128954D01*
X1104473D01*
Y-129241D01*
X1104187D01*
Y-129527D01*
Y-129813D01*
X1103901D01*
Y-130100D01*
X1103615D01*
Y-130386D01*
X1103328D01*
Y-130672D01*
Y-130959D01*
X1103042D01*
Y-131245D01*
X1102756D01*
Y-131531D01*
X1102469D01*
Y-131818D01*
X1102183D01*
Y-132104D01*
X1101897D01*
Y-132390D01*
Y-132676D01*
X1101610D01*
Y-132963D01*
X1101324D01*
Y-133249D01*
X1101038D01*
Y-133535D01*
X1100751D01*
Y-133822D01*
X1100465D01*
Y-134108D01*
X1100179D01*
Y-134394D01*
X1099892D01*
Y-134681D01*
X1099320D01*
Y-134967D01*
X1099034D01*
Y-135253D01*
X1098747D01*
Y-135540D01*
X1098461D01*
Y-135826D01*
X1098175D01*
Y-136112D01*
X1097602D01*
Y-136399D01*
X1097316D01*
Y-136685D01*
X1096743D01*
Y-136971D01*
X1096457D01*
Y-137258D01*
X1095884D01*
Y-137544D01*
X1095598D01*
Y-137830D01*
X1095025D01*
Y-138117D01*
X1094452D01*
Y-138403D01*
X1093880D01*
Y-138689D01*
X1093307D01*
Y-138975D01*
X1092735D01*
Y-139262D01*
X1091876D01*
Y-139548D01*
X1091303D01*
Y-139834D01*
X1090444D01*
Y-140121D01*
X1089299D01*
Y-140407D01*
X1088154D01*
Y-140693D01*
X1086436D01*
Y-140980D01*
X1084432D01*
Y-141266D01*
X1084145D01*
Y-140980D01*
Y-140693D01*
Y-140407D01*
Y-140121D01*
Y-139834D01*
Y-139548D01*
Y-139262D01*
Y-138975D01*
Y-138689D01*
Y-138403D01*
Y-138117D01*
Y-137830D01*
Y-137544D01*
Y-137258D01*
Y-136971D01*
Y-136685D01*
Y-136399D01*
Y-136112D01*
Y-135826D01*
Y-135540D01*
Y-135253D01*
Y-134967D01*
Y-134681D01*
Y-134394D01*
Y-134108D01*
Y-133822D01*
Y-133535D01*
Y-133249D01*
Y-132963D01*
Y-132676D01*
Y-132390D01*
Y-132104D01*
Y-131818D01*
X1084718D01*
Y-131531D01*
X1085291D01*
Y-131245D01*
X1085863D01*
Y-130959D01*
X1086436D01*
Y-130672D01*
X1087008D01*
Y-130386D01*
X1087581D01*
Y-130100D01*
X1087867D01*
Y-129813D01*
X1088440D01*
Y-129527D01*
X1088726D01*
Y-129241D01*
X1089299D01*
Y-128954D01*
X1089585D01*
Y-128668D01*
X1089872D01*
Y-128382D01*
X1090444D01*
Y-128095D01*
X1090730D01*
Y-127809D01*
X1091017D01*
Y-127523D01*
X1091303D01*
Y-127237D01*
X1091589D01*
Y-126950D01*
X1091876D01*
Y-126664D01*
X1092162D01*
Y-126378D01*
X1092448D01*
Y-126091D01*
X1092735D01*
Y-125805D01*
X1093021D01*
Y-125519D01*
X1093307D01*
Y-125232D01*
X1093594D01*
Y-124946D01*
Y-124660D01*
X1093880D01*
Y-124373D01*
X1094166D01*
Y-124087D01*
X1094452D01*
Y-123801D01*
Y-123514D01*
X1094739D01*
Y-123228D01*
X1095025D01*
Y-122942D01*
Y-122656D01*
X1095311D01*
Y-122369D01*
Y-122083D01*
X1095598D01*
Y-121797D01*
X1095884D01*
Y-121510D01*
Y-121224D01*
X1096170D01*
Y-120938D01*
Y-120651D01*
X1096457D01*
Y-120365D01*
Y-120079D01*
X1094739D01*
Y-119792D01*
X1092735D01*
Y-119506D01*
X1091589D01*
Y-119220D01*
X1091017D01*
Y-118933D01*
X1090158D01*
Y-118647D01*
X1089585D01*
Y-118361D01*
X1089299D01*
Y-118075D01*
X1088726D01*
Y-117788D01*
X1088440D01*
Y-117502D01*
X1088154D01*
Y-117216D01*
X1087867D01*
Y-116929D01*
X1087581D01*
Y-116643D01*
X1087295D01*
Y-116357D01*
Y-116070D01*
X1087008D01*
Y-115784D01*
X1086722D01*
Y-115498D01*
Y-115211D01*
X1086436D01*
Y-114925D01*
Y-114639D01*
X1086149D01*
Y-114353D01*
Y-114066D01*
X1085863D01*
Y-113780D01*
Y-113494D01*
Y-113207D01*
X1085577D01*
Y-112921D01*
Y-112635D01*
Y-112348D01*
Y-112062D01*
X1085291D01*
Y-111776D01*
Y-111489D01*
Y-111203D01*
Y-110917D01*
Y-110630D01*
Y-110344D01*
Y-110058D01*
X1085004D01*
Y-109772D01*
Y-109485D01*
Y-109199D01*
Y-108913D01*
Y-108626D01*
Y-108340D01*
Y-108054D01*
Y-107767D01*
Y-107481D01*
Y-107195D01*
Y-106908D01*
Y-106622D01*
Y-106336D01*
Y-106049D01*
Y-105763D01*
X1084718D01*
Y-105477D01*
Y-105191D01*
Y-104904D01*
Y-104618D01*
Y-104332D01*
Y-104045D01*
Y-103759D01*
Y-103473D01*
Y-103186D01*
Y-102900D01*
Y-102614D01*
Y-102327D01*
Y-102041D01*
Y-101755D01*
Y-101468D01*
X1084432D01*
Y-101182D01*
Y-100896D01*
Y-100610D01*
Y-100323D01*
Y-100037D01*
Y-99751D01*
Y-99464D01*
Y-99178D01*
Y-98892D01*
Y-98605D01*
Y-98319D01*
Y-98033D01*
Y-97746D01*
Y-97460D01*
Y-97174D01*
Y-96887D01*
X1084145D01*
Y-96601D01*
Y-96315D01*
Y-96029D01*
Y-95742D01*
Y-95456D01*
Y-95170D01*
Y-94883D01*
Y-94597D01*
Y-94311D01*
Y-94024D01*
Y-93738D01*
Y-93452D01*
Y-93165D01*
Y-92879D01*
Y-92593D01*
Y-92306D01*
X1083859D01*
Y-92020D01*
Y-91734D01*
Y-91448D01*
Y-91161D01*
Y-90875D01*
Y-90588D01*
Y-90302D01*
Y-90016D01*
Y-89730D01*
Y-89443D01*
Y-89157D01*
Y-88871D01*
Y-88584D01*
Y-88298D01*
X1083573D01*
Y-88012D01*
Y-87725D01*
Y-87439D01*
Y-87153D01*
Y-86866D01*
Y-86580D01*
Y-86294D01*
Y-86007D01*
Y-85721D01*
Y-85435D01*
Y-85149D01*
Y-84862D01*
Y-84576D01*
Y-84290D01*
Y-84003D01*
Y-83717D01*
X1083286D01*
Y-83431D01*
X1097029D01*
Y-83717D01*
Y-84003D01*
Y-84290D01*
Y-84576D01*
Y-84862D01*
Y-85149D01*
Y-85435D01*
Y-85721D01*
Y-86007D01*
Y-86294D01*
Y-86580D01*
Y-86866D01*
Y-87153D01*
Y-87439D01*
X1097316D01*
Y-87725D01*
Y-88012D01*
Y-88298D01*
Y-88584D01*
Y-88871D01*
Y-89157D01*
Y-89443D01*
Y-89730D01*
Y-90016D01*
Y-90302D01*
Y-90588D01*
Y-90875D01*
Y-91161D01*
Y-91448D01*
Y-91734D01*
Y-92020D01*
Y-92306D01*
Y-92593D01*
Y-92879D01*
Y-93165D01*
Y-93452D01*
Y-93738D01*
Y-94024D01*
Y-94311D01*
Y-94597D01*
Y-94883D01*
Y-95170D01*
Y-95456D01*
Y-95742D01*
Y-96029D01*
Y-96315D01*
Y-96601D01*
Y-96887D01*
Y-97174D01*
Y-97460D01*
Y-97746D01*
Y-98033D01*
Y-98319D01*
Y-98605D01*
Y-98892D01*
Y-99178D01*
X1097602D01*
Y-99464D01*
X1097316D01*
Y-99751D01*
Y-100037D01*
X1097602D01*
Y-100323D01*
Y-100610D01*
Y-100896D01*
Y-101182D01*
Y-101468D01*
Y-101755D01*
Y-102041D01*
Y-102327D01*
Y-102614D01*
Y-102900D01*
Y-103186D01*
Y-103473D01*
Y-103759D01*
Y-104045D01*
Y-104332D01*
Y-104618D01*
Y-104904D01*
Y-105191D01*
Y-105477D01*
Y-105763D01*
Y-106049D01*
Y-106336D01*
Y-106622D01*
Y-106908D01*
Y-107195D01*
Y-107481D01*
X1097888D01*
Y-107767D01*
Y-108054D01*
Y-108340D01*
X1098175D01*
Y-108626D01*
X1098461D01*
Y-108913D01*
X1098747D01*
Y-109199D01*
X1099606D01*
Y-109485D01*
X1100465D01*
Y-109199D01*
X1100751D01*
Y-108913D01*
Y-108626D01*
Y-108340D01*
X1101038D01*
Y-108054D01*
Y-107767D01*
X1101324D01*
Y-107481D01*
Y-107195D01*
Y-106908D01*
X1101610D01*
Y-106622D01*
Y-106336D01*
Y-106049D01*
X1101897D01*
Y-105763D01*
Y-105477D01*
Y-105191D01*
X1102183D01*
Y-104904D01*
Y-104618D01*
Y-104332D01*
X1102469D01*
Y-104045D01*
Y-103759D01*
X1102756D01*
Y-103473D01*
Y-103186D01*
Y-102900D01*
X1103042D01*
Y-102614D01*
Y-102327D01*
Y-102041D01*
X1103328D01*
Y-101755D01*
Y-101468D01*
Y-101182D01*
X1103615D01*
Y-100896D01*
Y-100610D01*
X1103901D01*
Y-100323D01*
Y-100037D01*
Y-99751D01*
X1104187D01*
Y-99464D01*
Y-99178D01*
Y-98892D01*
X1104473D01*
Y-98605D01*
Y-98319D01*
Y-98033D01*
X1104760D01*
Y-97746D01*
Y-97460D01*
X1105046D01*
Y-97174D01*
Y-96887D01*
Y-96601D01*
X1105332D01*
Y-96315D01*
Y-96029D01*
Y-95742D01*
X1105619D01*
Y-95456D01*
Y-95170D01*
Y-94883D01*
X1105905D01*
Y-94597D01*
Y-94311D01*
X1106191D01*
Y-94024D01*
Y-93738D01*
Y-93452D01*
X1106478D01*
Y-93165D01*
Y-92879D01*
Y-92593D01*
X1106764D01*
Y-92306D01*
Y-92020D01*
Y-91734D01*
X1107050D01*
Y-91448D01*
Y-91161D01*
Y-90875D01*
Y-90588D01*
X1107337D01*
Y-90302D01*
Y-90016D01*
Y-89730D01*
Y-89443D01*
X1107623D01*
Y-89157D01*
Y-88871D01*
Y-88584D01*
Y-88298D01*
Y-88012D01*
X1107909D01*
Y-87725D01*
Y-87439D01*
Y-87153D01*
Y-86866D01*
Y-86580D01*
Y-86294D01*
X1108195D01*
Y-86007D01*
Y-85721D01*
Y-85435D01*
Y-85149D01*
Y-84862D01*
Y-84576D01*
Y-84290D01*
Y-84003D01*
Y-83717D01*
Y-83431D01*
X1121080D01*
Y-83717D01*
D02*
G37*
G36*
X1063244Y-66252D02*
Y-66538D01*
X1062958D01*
Y-66825D01*
Y-67111D01*
Y-67397D01*
Y-67684D01*
Y-67970D01*
Y-68256D01*
X1062672D01*
Y-68542D01*
Y-68829D01*
Y-69115D01*
Y-69401D01*
Y-69688D01*
Y-69974D01*
X1062385D01*
Y-70260D01*
Y-70547D01*
Y-70833D01*
Y-71119D01*
Y-71406D01*
Y-71692D01*
Y-71978D01*
X1062099D01*
Y-72264D01*
Y-72551D01*
Y-72837D01*
Y-73123D01*
Y-73410D01*
Y-73696D01*
X1061813D01*
Y-73982D01*
Y-74269D01*
Y-74555D01*
Y-74841D01*
Y-75128D01*
Y-75414D01*
X1061526D01*
Y-75700D01*
Y-75987D01*
Y-76273D01*
Y-76559D01*
Y-76846D01*
Y-77132D01*
Y-77418D01*
X1061240D01*
Y-77704D01*
Y-77991D01*
Y-78277D01*
Y-78563D01*
Y-78850D01*
Y-79136D01*
X1060954D01*
Y-79422D01*
Y-79709D01*
Y-79995D01*
Y-80281D01*
Y-80568D01*
Y-80854D01*
X1060668D01*
Y-81140D01*
Y-81427D01*
Y-81713D01*
Y-81999D01*
Y-82285D01*
Y-82572D01*
X1060381D01*
Y-82858D01*
Y-83144D01*
Y-83431D01*
Y-83717D01*
Y-84003D01*
Y-84290D01*
Y-84576D01*
X1060095D01*
Y-84862D01*
Y-85149D01*
Y-85435D01*
Y-85721D01*
Y-86007D01*
Y-86294D01*
X1059809D01*
Y-86580D01*
Y-86866D01*
X1060381D01*
Y-86580D01*
X1060668D01*
Y-86294D01*
X1060954D01*
Y-86007D01*
X1061526D01*
Y-85721D01*
X1061813D01*
Y-85435D01*
X1062099D01*
Y-85149D01*
X1062672D01*
Y-84862D01*
X1063244D01*
Y-84576D01*
X1063531D01*
Y-84290D01*
X1064103D01*
Y-84003D01*
X1064962D01*
Y-83717D01*
X1065535D01*
Y-83431D01*
X1066394D01*
Y-83144D01*
X1067825D01*
Y-82858D01*
X1074124D01*
Y-83144D01*
X1075270D01*
Y-83431D01*
X1076128D01*
Y-83717D01*
X1076701D01*
Y-84003D01*
X1076987D01*
Y-84290D01*
X1077560D01*
Y-84576D01*
X1077846D01*
Y-84862D01*
X1078133D01*
Y-85149D01*
X1078419D01*
Y-85435D01*
X1078705D01*
Y-85721D01*
Y-86007D01*
X1078992D01*
Y-86294D01*
Y-86580D01*
X1079278D01*
Y-86866D01*
Y-87153D01*
Y-87439D01*
X1079564D01*
Y-87725D01*
Y-88012D01*
Y-88298D01*
Y-88584D01*
X1079850D01*
Y-88871D01*
Y-89157D01*
Y-89443D01*
Y-89730D01*
Y-90016D01*
Y-90302D01*
Y-90588D01*
Y-90875D01*
Y-91161D01*
Y-91448D01*
Y-91734D01*
Y-92020D01*
Y-92306D01*
Y-92593D01*
Y-92879D01*
Y-93165D01*
Y-93452D01*
Y-93738D01*
X1079564D01*
Y-94024D01*
Y-94311D01*
Y-94597D01*
Y-94883D01*
Y-95170D01*
Y-95456D01*
Y-95742D01*
X1079278D01*
Y-96029D01*
Y-96315D01*
Y-96601D01*
Y-96887D01*
Y-97174D01*
Y-97460D01*
Y-97746D01*
X1078992D01*
Y-98033D01*
Y-98319D01*
Y-98605D01*
Y-98892D01*
Y-99178D01*
Y-99464D01*
X1078705D01*
Y-99751D01*
Y-100037D01*
Y-100323D01*
Y-100610D01*
Y-100896D01*
Y-101182D01*
X1078419D01*
Y-101468D01*
Y-101755D01*
Y-102041D01*
Y-102327D01*
Y-102614D01*
Y-102900D01*
X1078133D01*
Y-103186D01*
Y-103473D01*
Y-103759D01*
Y-104045D01*
Y-104332D01*
Y-104618D01*
Y-104904D01*
X1077846D01*
Y-105191D01*
Y-105477D01*
Y-105763D01*
Y-106049D01*
Y-106336D01*
Y-106622D01*
X1077560D01*
Y-106908D01*
Y-107195D01*
Y-107481D01*
Y-107767D01*
Y-108054D01*
Y-108340D01*
X1077274D01*
Y-108626D01*
Y-108913D01*
Y-109199D01*
Y-109485D01*
Y-109772D01*
Y-110058D01*
Y-110344D01*
X1076987D01*
Y-110630D01*
Y-110917D01*
Y-111203D01*
Y-111489D01*
Y-111776D01*
Y-112062D01*
X1076701D01*
Y-112348D01*
Y-112635D01*
Y-112921D01*
Y-113207D01*
Y-113494D01*
Y-113780D01*
X1076415D01*
Y-114066D01*
Y-114353D01*
Y-114639D01*
Y-114925D01*
Y-115211D01*
Y-115498D01*
X1076128D01*
Y-115784D01*
Y-116070D01*
Y-116357D01*
Y-116643D01*
Y-116929D01*
Y-117216D01*
Y-117502D01*
X1075842D01*
Y-117788D01*
Y-118075D01*
Y-118361D01*
Y-118647D01*
Y-118933D01*
Y-119220D01*
X1075556D01*
Y-119506D01*
Y-119792D01*
X1062385D01*
Y-119506D01*
Y-119220D01*
X1062672D01*
Y-118933D01*
Y-118647D01*
Y-118361D01*
Y-118075D01*
Y-117788D01*
Y-117502D01*
X1062958D01*
Y-117216D01*
Y-116929D01*
Y-116643D01*
Y-116357D01*
Y-116070D01*
Y-115784D01*
Y-115498D01*
X1063244D01*
Y-115211D01*
Y-114925D01*
Y-114639D01*
Y-114353D01*
Y-114066D01*
Y-113780D01*
X1063531D01*
Y-113494D01*
Y-113207D01*
Y-112921D01*
Y-112635D01*
Y-112348D01*
Y-112062D01*
X1063817D01*
Y-111776D01*
Y-111489D01*
Y-111203D01*
Y-110917D01*
Y-110630D01*
Y-110344D01*
Y-110058D01*
X1064103D01*
Y-109772D01*
Y-109485D01*
Y-109199D01*
Y-108913D01*
Y-108626D01*
Y-108340D01*
X1064390D01*
Y-108054D01*
Y-107767D01*
Y-107481D01*
Y-107195D01*
Y-106908D01*
Y-106622D01*
Y-106336D01*
X1064676D01*
Y-106049D01*
Y-105763D01*
Y-105477D01*
Y-105191D01*
Y-104904D01*
Y-104618D01*
X1064962D01*
Y-104332D01*
Y-104045D01*
Y-103759D01*
Y-103473D01*
Y-103186D01*
Y-102900D01*
X1065249D01*
Y-102614D01*
Y-102327D01*
Y-102041D01*
Y-101755D01*
Y-101468D01*
Y-101182D01*
X1065535D01*
Y-100896D01*
Y-100610D01*
Y-100323D01*
Y-100037D01*
Y-99751D01*
Y-99464D01*
Y-99178D01*
X1065821D01*
Y-98892D01*
Y-98605D01*
Y-98319D01*
Y-98033D01*
Y-97746D01*
Y-97460D01*
X1066107D01*
Y-97174D01*
Y-96887D01*
Y-96601D01*
Y-96315D01*
Y-96029D01*
Y-95742D01*
Y-95456D01*
X1066394D01*
Y-95170D01*
Y-94883D01*
Y-94597D01*
Y-94311D01*
Y-94024D01*
Y-93738D01*
X1066107D01*
Y-93452D01*
Y-93165D01*
X1065821D01*
Y-92879D01*
X1065535D01*
Y-92593D01*
X1064962D01*
Y-92306D01*
X1063244D01*
Y-92593D01*
X1061813D01*
Y-92879D01*
X1060954D01*
Y-93165D01*
X1060381D01*
Y-93452D01*
X1060095D01*
Y-93738D01*
X1059522D01*
Y-94024D01*
X1059236D01*
Y-94311D01*
X1058950D01*
Y-94597D01*
Y-94883D01*
X1058663D01*
Y-95170D01*
Y-95456D01*
Y-95742D01*
X1058377D01*
Y-96029D01*
Y-96315D01*
Y-96601D01*
Y-96887D01*
Y-97174D01*
Y-97460D01*
X1058091D01*
Y-97746D01*
Y-98033D01*
Y-98319D01*
Y-98605D01*
Y-98892D01*
Y-99178D01*
Y-99464D01*
X1057804D01*
Y-99751D01*
Y-100037D01*
Y-100323D01*
Y-100610D01*
Y-100896D01*
Y-101182D01*
X1057518D01*
Y-101468D01*
Y-101755D01*
Y-102041D01*
Y-102327D01*
Y-102614D01*
Y-102900D01*
X1057232D01*
Y-103186D01*
Y-103473D01*
Y-103759D01*
Y-104045D01*
Y-104332D01*
Y-104618D01*
X1056946D01*
Y-104904D01*
Y-105191D01*
Y-105477D01*
Y-105763D01*
Y-106049D01*
Y-106336D01*
Y-106622D01*
X1056659D01*
Y-106908D01*
Y-107195D01*
Y-107481D01*
Y-107767D01*
Y-108054D01*
Y-108340D01*
X1056373D01*
Y-108626D01*
Y-108913D01*
Y-109199D01*
Y-109485D01*
Y-109772D01*
Y-110058D01*
X1056087D01*
Y-110344D01*
Y-110630D01*
Y-110917D01*
Y-111203D01*
Y-111489D01*
Y-111776D01*
Y-112062D01*
X1055800D01*
Y-112348D01*
Y-112635D01*
Y-112921D01*
Y-113207D01*
Y-113494D01*
Y-113780D01*
X1055514D01*
Y-114066D01*
Y-114353D01*
Y-114639D01*
Y-114925D01*
Y-115211D01*
Y-115498D01*
X1055228D01*
Y-115784D01*
Y-116070D01*
Y-116357D01*
Y-116643D01*
Y-116929D01*
Y-117216D01*
X1054941D01*
Y-117502D01*
Y-117788D01*
Y-118075D01*
Y-118361D01*
Y-118647D01*
Y-118933D01*
Y-119220D01*
X1054655D01*
Y-119506D01*
Y-119792D01*
X1041485D01*
Y-119506D01*
Y-119220D01*
X1041771D01*
Y-118933D01*
Y-118647D01*
Y-118361D01*
Y-118075D01*
Y-117788D01*
Y-117502D01*
Y-117216D01*
X1042057D01*
Y-116929D01*
Y-116643D01*
Y-116357D01*
Y-116070D01*
Y-115784D01*
Y-115498D01*
X1042344D01*
Y-115211D01*
Y-114925D01*
Y-114639D01*
Y-114353D01*
Y-114066D01*
Y-113780D01*
X1042630D01*
Y-113494D01*
Y-113207D01*
Y-112921D01*
Y-112635D01*
Y-112348D01*
Y-112062D01*
Y-111776D01*
X1042916D01*
Y-111489D01*
Y-111203D01*
Y-110917D01*
Y-110630D01*
Y-110344D01*
Y-110058D01*
X1043202D01*
Y-109772D01*
Y-109485D01*
Y-109199D01*
Y-108913D01*
Y-108626D01*
Y-108340D01*
X1043489D01*
Y-108054D01*
Y-107767D01*
Y-107481D01*
Y-107195D01*
Y-106908D01*
Y-106622D01*
X1043775D01*
Y-106336D01*
Y-106049D01*
Y-105763D01*
Y-105477D01*
Y-105191D01*
Y-104904D01*
Y-104618D01*
X1044061D01*
Y-104332D01*
Y-104045D01*
Y-103759D01*
Y-103473D01*
Y-103186D01*
Y-102900D01*
X1044348D01*
Y-102614D01*
Y-102327D01*
Y-102041D01*
Y-101755D01*
Y-101468D01*
Y-101182D01*
X1044634D01*
Y-100896D01*
Y-100610D01*
Y-100323D01*
Y-100037D01*
Y-99751D01*
Y-99464D01*
Y-99178D01*
X1044920D01*
Y-98892D01*
Y-98605D01*
Y-98319D01*
Y-98033D01*
Y-97746D01*
Y-97460D01*
X1045207D01*
Y-97174D01*
Y-96887D01*
Y-96601D01*
Y-96315D01*
Y-96029D01*
Y-95742D01*
X1045493D01*
Y-95456D01*
Y-95170D01*
Y-94883D01*
Y-94597D01*
Y-94311D01*
Y-94024D01*
X1045779D01*
Y-93738D01*
Y-93452D01*
Y-93165D01*
Y-92879D01*
Y-92593D01*
Y-92306D01*
Y-92020D01*
X1046066D01*
Y-91734D01*
Y-91448D01*
Y-91161D01*
Y-90875D01*
Y-90588D01*
Y-90302D01*
X1046352D01*
Y-90016D01*
Y-89730D01*
Y-89443D01*
Y-89157D01*
Y-88871D01*
Y-88584D01*
X1046638D01*
Y-88298D01*
Y-88012D01*
Y-87725D01*
Y-87439D01*
Y-87153D01*
Y-86866D01*
X1046925D01*
Y-86580D01*
Y-86294D01*
Y-86007D01*
Y-85721D01*
Y-85435D01*
Y-85149D01*
Y-84862D01*
X1047211D01*
Y-84576D01*
Y-84290D01*
Y-84003D01*
Y-83717D01*
Y-83431D01*
Y-83144D01*
X1047497D01*
Y-82858D01*
Y-82572D01*
Y-82285D01*
Y-81999D01*
Y-81713D01*
Y-81427D01*
X1047783D01*
Y-81140D01*
Y-80854D01*
Y-80568D01*
Y-80281D01*
Y-79995D01*
Y-79709D01*
Y-79422D01*
X1048070D01*
Y-79136D01*
Y-78850D01*
Y-78563D01*
Y-78277D01*
Y-77991D01*
Y-77704D01*
X1048356D01*
Y-77418D01*
Y-77132D01*
Y-76846D01*
Y-76559D01*
Y-76273D01*
Y-75987D01*
X1048642D01*
Y-75700D01*
Y-75414D01*
Y-75128D01*
Y-74841D01*
Y-74555D01*
Y-74269D01*
X1048929D01*
Y-73982D01*
Y-73696D01*
Y-73410D01*
Y-73123D01*
Y-72837D01*
Y-72551D01*
Y-72264D01*
X1049215D01*
Y-71978D01*
Y-71692D01*
Y-71406D01*
Y-71119D01*
Y-70833D01*
Y-70547D01*
X1049501D01*
Y-70260D01*
Y-69974D01*
Y-69688D01*
Y-69401D01*
Y-69115D01*
Y-68829D01*
X1049788D01*
Y-68542D01*
Y-68256D01*
Y-67970D01*
Y-67684D01*
Y-67397D01*
Y-67111D01*
Y-66825D01*
X1050074D01*
Y-66538D01*
Y-66252D01*
Y-65966D01*
X1063244D01*
Y-66252D01*
D02*
G37*
G36*
X1032036Y-69688D02*
X1033754D01*
Y-69974D01*
X1034613D01*
Y-70260D01*
X1035472D01*
Y-70547D01*
X1036331D01*
Y-70833D01*
X1036904D01*
Y-71119D01*
X1037190D01*
Y-71406D01*
X1037763D01*
Y-71692D01*
X1038049D01*
Y-71978D01*
X1038622D01*
Y-72264D01*
X1038908D01*
Y-72551D01*
X1039194D01*
Y-72837D01*
X1039480D01*
Y-73123D01*
X1039767D01*
Y-73410D01*
X1040053D01*
Y-73696D01*
X1040339D01*
Y-73982D01*
Y-74269D01*
X1040626D01*
Y-74555D01*
X1040912D01*
Y-74841D01*
Y-75128D01*
X1041198D01*
Y-75414D01*
X1041485D01*
Y-75700D01*
Y-75987D01*
X1041771D01*
Y-76273D01*
Y-76559D01*
Y-76846D01*
X1042057D01*
Y-77132D01*
Y-77418D01*
Y-77704D01*
X1042344D01*
Y-77991D01*
Y-78277D01*
Y-78563D01*
Y-78850D01*
X1042630D01*
Y-79136D01*
Y-79422D01*
Y-79709D01*
Y-79995D01*
Y-80281D01*
X1042916D01*
Y-80568D01*
Y-80854D01*
Y-81140D01*
Y-81427D01*
Y-81713D01*
Y-81999D01*
Y-82285D01*
Y-82572D01*
Y-82858D01*
Y-83144D01*
Y-83431D01*
Y-83717D01*
Y-84003D01*
Y-84290D01*
Y-84576D01*
Y-84862D01*
Y-85149D01*
Y-85435D01*
Y-85721D01*
Y-86007D01*
X1042630D01*
Y-86294D01*
Y-86580D01*
Y-86866D01*
Y-87153D01*
Y-87439D01*
Y-87725D01*
Y-88012D01*
X1042344D01*
Y-88298D01*
Y-88584D01*
Y-88871D01*
Y-89157D01*
Y-89443D01*
X1042057D01*
Y-89730D01*
Y-90016D01*
Y-90302D01*
Y-90588D01*
Y-90875D01*
X1041771D01*
Y-91161D01*
Y-91448D01*
Y-91734D01*
X1041485D01*
Y-92020D01*
Y-92306D01*
Y-92593D01*
Y-92879D01*
X1041198D01*
Y-93165D01*
Y-93452D01*
Y-93738D01*
X1040912D01*
Y-94024D01*
Y-94311D01*
X1040626D01*
Y-94597D01*
Y-94883D01*
Y-95170D01*
X1040339D01*
Y-95456D01*
Y-95742D01*
X1040053D01*
Y-96029D01*
Y-96315D01*
X1039767D01*
Y-96601D01*
Y-96887D01*
X1039480D01*
Y-97174D01*
X1039194D01*
Y-97460D01*
Y-97746D01*
X1038908D01*
Y-98033D01*
X1038622D01*
Y-98319D01*
X1038335D01*
Y-98605D01*
Y-98892D01*
X1038049D01*
Y-99178D01*
X1037763D01*
Y-99464D01*
X1037476D01*
Y-99751D01*
X1037190D01*
Y-100037D01*
X1036904D01*
Y-100323D01*
X1036331D01*
Y-100610D01*
X1036045D01*
Y-100896D01*
X1035472D01*
Y-101182D01*
X1035186D01*
Y-101468D01*
X1034613D01*
Y-101755D01*
X1033754D01*
Y-102041D01*
X1032895D01*
Y-102327D01*
X1032036D01*
Y-102614D01*
X1030318D01*
Y-102900D01*
X1025165D01*
Y-102614D01*
X1022588D01*
Y-102327D01*
X1020584D01*
Y-102041D01*
X1019152D01*
Y-101755D01*
X1017721D01*
Y-101468D01*
X1016289D01*
Y-101755D01*
Y-102041D01*
Y-102327D01*
Y-102614D01*
Y-102900D01*
Y-103186D01*
Y-103473D01*
X1016003D01*
Y-103759D01*
Y-104045D01*
Y-104332D01*
Y-104618D01*
Y-104904D01*
Y-105191D01*
X1015716D01*
Y-105477D01*
Y-105763D01*
Y-106049D01*
Y-106336D01*
Y-106622D01*
Y-106908D01*
X1015430D01*
Y-107195D01*
Y-107481D01*
Y-107767D01*
Y-108054D01*
Y-108340D01*
Y-108626D01*
Y-108913D01*
X1015144D01*
Y-109199D01*
Y-109485D01*
Y-109772D01*
Y-110058D01*
Y-110344D01*
Y-110630D01*
X1014857D01*
Y-110917D01*
Y-111203D01*
Y-111489D01*
Y-111776D01*
Y-112062D01*
Y-112348D01*
X1014571D01*
Y-112635D01*
Y-112921D01*
Y-113207D01*
Y-113494D01*
Y-113780D01*
Y-114066D01*
Y-114353D01*
X1014285D01*
Y-114639D01*
Y-114925D01*
Y-115211D01*
Y-115498D01*
Y-115784D01*
Y-116070D01*
X1013999D01*
Y-116357D01*
Y-116643D01*
Y-116929D01*
Y-117216D01*
Y-117502D01*
Y-117788D01*
X1013712D01*
Y-118075D01*
Y-118361D01*
Y-118647D01*
Y-118933D01*
Y-119220D01*
Y-119506D01*
Y-119792D01*
X1000256D01*
Y-119506D01*
X1000542D01*
Y-119220D01*
Y-118933D01*
Y-118647D01*
Y-118361D01*
Y-118075D01*
X1000828D01*
Y-117788D01*
Y-117502D01*
Y-117216D01*
Y-116929D01*
Y-116643D01*
Y-116357D01*
Y-116070D01*
X1001114D01*
Y-115784D01*
Y-115498D01*
Y-115211D01*
Y-114925D01*
Y-114639D01*
Y-114353D01*
X1001401D01*
Y-114066D01*
Y-113780D01*
Y-113494D01*
Y-113207D01*
Y-112921D01*
Y-112635D01*
X1001687D01*
Y-112348D01*
Y-112062D01*
Y-111776D01*
Y-111489D01*
Y-111203D01*
Y-110917D01*
Y-110630D01*
X1001974D01*
Y-110344D01*
Y-110058D01*
Y-109772D01*
Y-109485D01*
Y-109199D01*
Y-108913D01*
X1002260D01*
Y-108626D01*
Y-108340D01*
Y-108054D01*
Y-107767D01*
Y-107481D01*
Y-107195D01*
X1002546D01*
Y-106908D01*
Y-106622D01*
Y-106336D01*
Y-106049D01*
Y-105763D01*
Y-105477D01*
X1002832D01*
Y-105191D01*
Y-104904D01*
Y-104618D01*
Y-104332D01*
Y-104045D01*
Y-103759D01*
Y-103473D01*
X1003119D01*
Y-103186D01*
Y-102900D01*
Y-102614D01*
Y-102327D01*
Y-102041D01*
Y-101755D01*
X1003405D01*
Y-101468D01*
Y-101182D01*
Y-100896D01*
Y-100610D01*
Y-100323D01*
Y-100037D01*
X1003691D01*
Y-99751D01*
Y-99464D01*
Y-99178D01*
Y-98892D01*
Y-98605D01*
Y-98319D01*
X1003978D01*
Y-98033D01*
Y-97746D01*
Y-97460D01*
Y-97174D01*
Y-96887D01*
Y-96601D01*
Y-96315D01*
X1004264D01*
Y-96029D01*
Y-95742D01*
Y-95456D01*
Y-95170D01*
Y-94883D01*
Y-94597D01*
X1004550D01*
Y-94311D01*
Y-94024D01*
Y-93738D01*
Y-93452D01*
Y-93165D01*
Y-92879D01*
X1004837D01*
Y-92593D01*
Y-92306D01*
Y-92020D01*
Y-91734D01*
Y-91448D01*
Y-91161D01*
Y-90875D01*
X1005123D01*
Y-90588D01*
Y-90302D01*
Y-90016D01*
Y-89730D01*
Y-89443D01*
Y-89157D01*
X1005409D01*
Y-88871D01*
Y-88584D01*
Y-88298D01*
Y-88012D01*
Y-87725D01*
Y-87439D01*
X1005696D01*
Y-87153D01*
Y-86866D01*
Y-86580D01*
Y-86294D01*
Y-86007D01*
Y-85721D01*
X1005982D01*
Y-85435D01*
Y-85149D01*
Y-84862D01*
Y-84576D01*
Y-84290D01*
Y-84003D01*
Y-83717D01*
X1006268D01*
Y-83431D01*
Y-83144D01*
Y-82858D01*
Y-82572D01*
Y-82285D01*
Y-81999D01*
X1006555D01*
Y-81713D01*
Y-81427D01*
Y-81140D01*
Y-80854D01*
Y-80568D01*
Y-80281D01*
X1006841D01*
Y-79995D01*
Y-79709D01*
Y-79422D01*
Y-79136D01*
Y-78850D01*
Y-78563D01*
Y-78277D01*
X1007127D01*
Y-77991D01*
Y-77704D01*
Y-77418D01*
Y-77132D01*
Y-76846D01*
Y-76559D01*
X1007413D01*
Y-76273D01*
Y-75987D01*
Y-75700D01*
Y-75414D01*
Y-75128D01*
Y-74841D01*
X1007700D01*
Y-74555D01*
Y-74269D01*
Y-73982D01*
Y-73696D01*
Y-73410D01*
Y-73123D01*
Y-72837D01*
X1007986D01*
Y-72551D01*
Y-72264D01*
Y-71978D01*
Y-71692D01*
Y-71406D01*
Y-71119D01*
X1008272D01*
Y-70833D01*
Y-70547D01*
Y-70260D01*
Y-69974D01*
Y-69688D01*
Y-69401D01*
X1032036D01*
Y-69688D01*
D02*
G37*
G36*
X1165172Y-83717D02*
X1164886D01*
Y-84003D01*
X1164599D01*
Y-84290D01*
Y-84576D01*
X1164313D01*
Y-84862D01*
X1164027D01*
Y-85149D01*
X1163740D01*
Y-85435D01*
Y-85721D01*
X1163454D01*
Y-86007D01*
X1163168D01*
Y-86294D01*
X1162881D01*
Y-86580D01*
X1162595D01*
Y-86866D01*
Y-87153D01*
X1162309D01*
Y-87439D01*
X1162022D01*
Y-87725D01*
X1161736D01*
Y-88012D01*
Y-88298D01*
X1161450D01*
Y-88584D01*
X1161163D01*
Y-88871D01*
X1160877D01*
Y-89157D01*
X1160591D01*
Y-89443D01*
Y-89730D01*
X1160305D01*
Y-90016D01*
X1160018D01*
Y-90302D01*
X1159732D01*
Y-90588D01*
Y-90875D01*
X1159445D01*
Y-91161D01*
X1159159D01*
Y-91448D01*
X1158873D01*
Y-91734D01*
Y-92020D01*
X1158587D01*
Y-92306D01*
X1158300D01*
Y-92593D01*
X1158014D01*
Y-92879D01*
X1157728D01*
Y-93165D01*
Y-93452D01*
X1157441D01*
Y-93738D01*
X1157155D01*
Y-94024D01*
X1156869D01*
Y-94311D01*
Y-94597D01*
X1156582D01*
Y-94883D01*
X1156296D01*
Y-95170D01*
X1156010D01*
Y-95456D01*
Y-95742D01*
X1155723D01*
Y-96029D01*
X1155437D01*
Y-96315D01*
X1155151D01*
Y-96601D01*
X1154865D01*
Y-96887D01*
Y-97174D01*
X1154578D01*
Y-97460D01*
X1154292D01*
Y-97746D01*
X1154006D01*
Y-98033D01*
Y-98319D01*
X1153719D01*
Y-98605D01*
X1153433D01*
Y-98892D01*
X1153147D01*
Y-99178D01*
Y-99464D01*
X1152860D01*
Y-99751D01*
X1152574D01*
Y-100037D01*
X1152288D01*
Y-100323D01*
X1152001D01*
Y-100610D01*
Y-100896D01*
X1151715D01*
Y-101182D01*
X1151429D01*
Y-101468D01*
X1151142D01*
Y-101755D01*
Y-102041D01*
X1150856D01*
Y-102327D01*
X1150570D01*
Y-102614D01*
X1150284D01*
Y-102900D01*
X1149997D01*
Y-103186D01*
Y-103473D01*
X1150284D01*
Y-103759D01*
Y-104045D01*
X1150570D01*
Y-104332D01*
Y-104618D01*
X1150856D01*
Y-104904D01*
X1151142D01*
Y-105191D01*
Y-105477D01*
X1151429D01*
Y-105763D01*
Y-106049D01*
X1151715D01*
Y-106336D01*
Y-106622D01*
X1152001D01*
Y-106908D01*
Y-107195D01*
X1152288D01*
Y-107481D01*
Y-107767D01*
X1152574D01*
Y-108054D01*
Y-108340D01*
X1152860D01*
Y-108626D01*
Y-108913D01*
X1153147D01*
Y-109199D01*
Y-109485D01*
X1153433D01*
Y-109772D01*
X1153719D01*
Y-110058D01*
Y-110344D01*
X1154006D01*
Y-110630D01*
Y-110917D01*
X1154292D01*
Y-111203D01*
Y-111489D01*
X1154578D01*
Y-111776D01*
Y-112062D01*
X1154865D01*
Y-112348D01*
Y-112635D01*
X1155151D01*
Y-112921D01*
Y-113207D01*
X1155437D01*
Y-113494D01*
Y-113780D01*
X1155723D01*
Y-114066D01*
X1156010D01*
Y-114353D01*
Y-114639D01*
X1156296D01*
Y-114925D01*
Y-115211D01*
X1156582D01*
Y-115498D01*
Y-115784D01*
X1156869D01*
Y-116070D01*
Y-116357D01*
X1157155D01*
Y-116643D01*
Y-116929D01*
X1157441D01*
Y-117216D01*
Y-117502D01*
X1157728D01*
Y-117788D01*
Y-118075D01*
X1158014D01*
Y-118361D01*
X1158300D01*
Y-118647D01*
Y-118933D01*
X1158587D01*
Y-119220D01*
Y-119506D01*
X1158873D01*
Y-119792D01*
X1143698D01*
Y-119506D01*
X1143412D01*
Y-119220D01*
Y-118933D01*
Y-118647D01*
X1143126D01*
Y-118361D01*
Y-118075D01*
Y-117788D01*
X1142839D01*
Y-117502D01*
Y-117216D01*
X1142553D01*
Y-116929D01*
Y-116643D01*
Y-116357D01*
X1142267D01*
Y-116070D01*
Y-115784D01*
Y-115498D01*
X1141980D01*
Y-115211D01*
Y-114925D01*
X1141694D01*
Y-114639D01*
Y-114353D01*
Y-114066D01*
X1141408D01*
Y-113780D01*
Y-113494D01*
Y-113207D01*
X1141121D01*
Y-112921D01*
Y-112635D01*
Y-112348D01*
X1140835D01*
Y-112062D01*
X1140263D01*
Y-112348D01*
Y-112635D01*
X1139976D01*
Y-112921D01*
X1139690D01*
Y-113207D01*
Y-113494D01*
X1139404D01*
Y-113780D01*
X1139117D01*
Y-114066D01*
Y-114353D01*
X1138831D01*
Y-114639D01*
X1138545D01*
Y-114925D01*
Y-115211D01*
X1138258D01*
Y-115498D01*
X1137972D01*
Y-115784D01*
X1137686D01*
Y-116070D01*
Y-116357D01*
X1137399D01*
Y-116643D01*
X1137113D01*
Y-116929D01*
Y-117216D01*
X1136827D01*
Y-117502D01*
X1136541D01*
Y-117788D01*
Y-118075D01*
X1136254D01*
Y-118361D01*
X1135968D01*
Y-118647D01*
Y-118933D01*
X1135682D01*
Y-119220D01*
X1135395D01*
Y-119506D01*
Y-119792D01*
X1119362D01*
Y-119506D01*
X1119648D01*
Y-119220D01*
X1119934D01*
Y-118933D01*
X1120221D01*
Y-118647D01*
X1120507D01*
Y-118361D01*
Y-118075D01*
X1120793D01*
Y-117788D01*
X1121080D01*
Y-117502D01*
X1121366D01*
Y-117216D01*
X1121652D01*
Y-116929D01*
Y-116643D01*
X1121939D01*
Y-116357D01*
X1122225D01*
Y-116070D01*
X1122511D01*
Y-115784D01*
Y-115498D01*
X1122797D01*
Y-115211D01*
X1123084D01*
Y-114925D01*
X1123370D01*
Y-114639D01*
X1123656D01*
Y-114353D01*
Y-114066D01*
X1123943D01*
Y-113780D01*
X1124229D01*
Y-113494D01*
X1124515D01*
Y-113207D01*
X1124802D01*
Y-112921D01*
Y-112635D01*
X1125088D01*
Y-112348D01*
X1125374D01*
Y-112062D01*
X1125661D01*
Y-111776D01*
Y-111489D01*
X1125947D01*
Y-111203D01*
X1126233D01*
Y-110917D01*
X1126519D01*
Y-110630D01*
X1126806D01*
Y-110344D01*
Y-110058D01*
X1127092D01*
Y-109772D01*
X1127378D01*
Y-109485D01*
X1127665D01*
Y-109199D01*
Y-108913D01*
X1127951D01*
Y-108626D01*
X1128237D01*
Y-108340D01*
X1128524D01*
Y-108054D01*
X1128810D01*
Y-107767D01*
Y-107481D01*
X1129096D01*
Y-107195D01*
X1129383D01*
Y-106908D01*
X1129669D01*
Y-106622D01*
Y-106336D01*
X1129955D01*
Y-106049D01*
X1130242D01*
Y-105763D01*
X1130528D01*
Y-105477D01*
X1130814D01*
Y-105191D01*
Y-104904D01*
X1131100D01*
Y-104618D01*
X1131387D01*
Y-104332D01*
X1131673D01*
Y-104045D01*
X1131960D01*
Y-103759D01*
Y-103473D01*
X1132246D01*
Y-103186D01*
X1132532D01*
Y-102900D01*
X1132818D01*
Y-102614D01*
Y-102327D01*
X1133105D01*
Y-102041D01*
X1133391D01*
Y-101755D01*
X1133677D01*
Y-101468D01*
X1133964D01*
Y-101182D01*
Y-100896D01*
X1134250D01*
Y-100610D01*
Y-100323D01*
Y-100037D01*
X1133964D01*
Y-99751D01*
X1133677D01*
Y-99464D01*
Y-99178D01*
X1133391D01*
Y-98892D01*
Y-98605D01*
X1133105D01*
Y-98319D01*
Y-98033D01*
X1132818D01*
Y-97746D01*
Y-97460D01*
X1132532D01*
Y-97174D01*
Y-96887D01*
X1132246D01*
Y-96601D01*
Y-96315D01*
X1131960D01*
Y-96029D01*
X1131673D01*
Y-95742D01*
Y-95456D01*
X1131387D01*
Y-95170D01*
Y-94883D01*
X1131100D01*
Y-94597D01*
Y-94311D01*
X1130814D01*
Y-94024D01*
Y-93738D01*
X1130528D01*
Y-93452D01*
Y-93165D01*
X1130242D01*
Y-92879D01*
Y-92593D01*
X1129955D01*
Y-92306D01*
X1129669D01*
Y-92020D01*
Y-91734D01*
X1129383D01*
Y-91448D01*
Y-91161D01*
X1129096D01*
Y-90875D01*
Y-90588D01*
X1128810D01*
Y-90302D01*
Y-90016D01*
X1128524D01*
Y-89730D01*
Y-89443D01*
X1128237D01*
Y-89157D01*
Y-88871D01*
X1127951D01*
Y-88584D01*
Y-88298D01*
X1127665D01*
Y-88012D01*
X1127378D01*
Y-87725D01*
Y-87439D01*
X1127092D01*
Y-87153D01*
Y-86866D01*
X1126806D01*
Y-86580D01*
Y-86294D01*
X1126519D01*
Y-86007D01*
Y-85721D01*
X1126233D01*
Y-85435D01*
Y-85149D01*
X1125947D01*
Y-84862D01*
Y-84576D01*
X1125661D01*
Y-84290D01*
X1125374D01*
Y-84003D01*
Y-83717D01*
X1125088D01*
Y-83431D01*
X1140835D01*
Y-83717D01*
X1141121D01*
Y-84003D01*
Y-84290D01*
Y-84576D01*
X1141408D01*
Y-84862D01*
Y-85149D01*
Y-85435D01*
X1141694D01*
Y-85721D01*
Y-86007D01*
Y-86294D01*
X1141980D01*
Y-86580D01*
Y-86866D01*
Y-87153D01*
X1142267D01*
Y-87439D01*
Y-87725D01*
Y-88012D01*
X1142553D01*
Y-88298D01*
Y-88584D01*
Y-88871D01*
X1142839D01*
Y-89157D01*
Y-89443D01*
Y-89730D01*
X1143126D01*
Y-90016D01*
Y-90302D01*
Y-90588D01*
X1143412D01*
Y-90875D01*
Y-91161D01*
Y-91448D01*
Y-91734D01*
X1143985D01*
Y-91448D01*
X1144271D01*
Y-91161D01*
X1144557D01*
Y-90875D01*
Y-90588D01*
X1144844D01*
Y-90302D01*
X1145130D01*
Y-90016D01*
Y-89730D01*
X1145416D01*
Y-89443D01*
X1145702D01*
Y-89157D01*
Y-88871D01*
X1145989D01*
Y-88584D01*
X1146275D01*
Y-88298D01*
Y-88012D01*
X1146561D01*
Y-87725D01*
X1146848D01*
Y-87439D01*
Y-87153D01*
X1147134D01*
Y-86866D01*
X1147420D01*
Y-86580D01*
Y-86294D01*
X1147707D01*
Y-86007D01*
X1147993D01*
Y-85721D01*
Y-85435D01*
X1148279D01*
Y-85149D01*
X1148566D01*
Y-84862D01*
Y-84576D01*
X1148852D01*
Y-84290D01*
X1149138D01*
Y-84003D01*
Y-83717D01*
X1149425D01*
Y-83431D01*
X1165172D01*
Y-83717D01*
D02*
G37*
%LPC*%
G36*
X1027742Y-80568D02*
X1019725D01*
Y-80854D01*
Y-81140D01*
Y-81427D01*
Y-81713D01*
Y-81999D01*
X1019438D01*
Y-82285D01*
Y-82572D01*
Y-82858D01*
Y-83144D01*
Y-83431D01*
Y-83717D01*
X1019152D01*
Y-84003D01*
Y-84290D01*
Y-84576D01*
Y-84862D01*
Y-85149D01*
Y-85435D01*
X1018866D01*
Y-85721D01*
Y-86007D01*
Y-86294D01*
Y-86580D01*
Y-86866D01*
Y-87153D01*
X1018580D01*
Y-87439D01*
Y-87725D01*
Y-88012D01*
Y-88298D01*
Y-88584D01*
Y-88871D01*
Y-89157D01*
X1018293D01*
Y-89443D01*
Y-89730D01*
Y-90016D01*
Y-90302D01*
Y-90588D01*
Y-90875D01*
X1018007D01*
Y-91161D01*
Y-91448D01*
Y-91734D01*
X1025165D01*
Y-91448D01*
X1026310D01*
Y-91161D01*
X1026883D01*
Y-90875D01*
X1027169D01*
Y-90588D01*
X1027455D01*
Y-90302D01*
X1027742D01*
Y-90016D01*
X1028028D01*
Y-89730D01*
Y-89443D01*
X1028314D01*
Y-89157D01*
Y-88871D01*
X1028601D01*
Y-88584D01*
Y-88298D01*
X1028887D01*
Y-88012D01*
Y-87725D01*
Y-87439D01*
Y-87153D01*
X1029173D01*
Y-86866D01*
Y-86580D01*
Y-86294D01*
Y-86007D01*
Y-85721D01*
X1029459D01*
Y-85435D01*
Y-85149D01*
Y-84862D01*
Y-84576D01*
Y-84290D01*
Y-84003D01*
Y-83717D01*
Y-83431D01*
Y-83144D01*
Y-82858D01*
Y-82572D01*
X1029173D01*
Y-82285D01*
Y-81999D01*
X1028887D01*
Y-81713D01*
Y-81427D01*
X1028601D01*
Y-81140D01*
X1028314D01*
Y-80854D01*
X1027742D01*
Y-80568D01*
D02*
G37*
%LPD*%
G36*
X20873Y101187D02*
X20897Y101185D01*
X20898Y101185D01*
X20899Y101185D01*
X20923Y101180D01*
X20949Y101175D01*
X20949Y101175D01*
X20950Y101175D01*
X20975Y101166D01*
X20999Y101158D01*
X20999Y101158D01*
X21000Y101158D01*
X21023Y101146D01*
X21046Y101135D01*
X23211Y99895D01*
X23212Y99895D01*
X23212Y99894D01*
X23233Y99881D01*
X23255Y99866D01*
X23255Y99866D01*
X23256Y99865D01*
X23276Y99848D01*
X23294Y99832D01*
X23295Y99831D01*
X23295Y99831D01*
X23312Y99811D01*
X23329Y99792D01*
X23329Y99792D01*
X23330Y99791D01*
X23344Y99770D01*
X23358Y99749D01*
X23359Y99748D01*
X23359Y99748D01*
X23371Y99724D01*
X23382Y99702D01*
X23382Y99701D01*
X23382Y99701D01*
X23391Y99675D01*
X23399Y99652D01*
X23399Y99652D01*
X23399Y99651D01*
X23404Y99625D01*
X23409Y99601D01*
X23409Y99600D01*
X23409Y99599D01*
X23411Y99572D01*
X23413Y99549D01*
X23413Y99548D01*
X23413Y99547D01*
Y95079D01*
X23409Y95026D01*
X23399Y94975D01*
X23382Y94925D01*
X23359Y94878D01*
X23330Y94835D01*
X23295Y94795D01*
X23256Y94761D01*
X23212Y94732D01*
X23165Y94708D01*
X23116Y94691D01*
X23064Y94681D01*
X23012Y94678D01*
X19961D01*
X19937Y94679D01*
X19913Y94681D01*
X19911Y94681D01*
X19908Y94681D01*
X19885Y94686D01*
X19862Y94690D01*
X19859Y94691D01*
X19857Y94691D01*
X19835Y94699D01*
X19812Y94706D01*
X19810Y94708D01*
X19807Y94708D01*
X19786Y94719D01*
X19765Y94729D01*
X19762Y94730D01*
X19760Y94732D01*
X19740Y94745D01*
X19721Y94758D01*
X19719Y94759D01*
X19717Y94761D01*
X19699Y94776D01*
X19681Y94792D01*
X17455Y96961D01*
X13254D01*
X11028Y94792D01*
X11010Y94776D01*
X10992Y94761D01*
X10990Y94759D01*
X10988Y94758D01*
X10968Y94745D01*
X10949Y94732D01*
X10946Y94730D01*
X10944Y94729D01*
X10922Y94719D01*
X10901Y94708D01*
X10899Y94708D01*
X10897Y94706D01*
X10874Y94699D01*
X10852Y94691D01*
X10849Y94691D01*
X10847Y94690D01*
X10824Y94686D01*
X10800Y94681D01*
X10798Y94681D01*
X10795Y94681D01*
X10771Y94679D01*
X10748Y94678D01*
X7697D01*
X7644Y94681D01*
X7593Y94691D01*
X7543Y94708D01*
X7496Y94732D01*
X7453Y94761D01*
X7413Y94795D01*
X7379Y94835D01*
X7350Y94878D01*
X7327Y94925D01*
X7310Y94975D01*
X7299Y95026D01*
X7296Y95079D01*
Y99547D01*
X7296Y99548D01*
X7296Y99549D01*
X7298Y99572D01*
X7299Y99599D01*
X7300Y99600D01*
X7300Y99601D01*
X7305Y99626D01*
X7310Y99651D01*
X7310Y99652D01*
X7310Y99652D01*
X7318Y99676D01*
X7327Y99701D01*
X7327Y99701D01*
X7327Y99702D01*
X7338Y99723D01*
X7350Y99748D01*
X7350Y99748D01*
X7350Y99749D01*
X7365Y99770D01*
X7379Y99791D01*
X7379Y99792D01*
X7380Y99792D01*
X7397Y99811D01*
X7413Y99831D01*
X7414Y99831D01*
X7414Y99832D01*
X7433Y99848D01*
X7453Y99865D01*
X7453Y99866D01*
X7454Y99866D01*
X7476Y99881D01*
X7496Y99894D01*
X7497Y99895D01*
X7498Y99895D01*
X9663Y101135D01*
X9686Y101147D01*
X9709Y101158D01*
X9709Y101158D01*
X9710Y101158D01*
X9734Y101166D01*
X9759Y101175D01*
X9759Y101175D01*
X9760Y101175D01*
X9786Y101180D01*
X9810Y101185D01*
X9811Y101185D01*
X9811Y101185D01*
X9836Y101187D01*
X9862Y101188D01*
X20846D01*
X20873Y101187D01*
D02*
G37*
G36*
X23064Y89571D02*
X23116Y89560D01*
X23165Y89544D01*
X23212Y89520D01*
X23256Y89491D01*
X23295Y89457D01*
X23330Y89417D01*
X23359Y89374D01*
X23382Y89327D01*
X23399Y89277D01*
X23409Y89226D01*
X23413Y89173D01*
Y84705D01*
X23413Y84704D01*
X23413Y84703D01*
X23411Y84680D01*
X23409Y84652D01*
X23409Y84652D01*
X23409Y84651D01*
X23404Y84627D01*
X23399Y84601D01*
X23399Y84600D01*
X23399Y84600D01*
X23391Y84577D01*
X23382Y84551D01*
X23382Y84551D01*
X23382Y84550D01*
X23371Y84528D01*
X23359Y84504D01*
X23359Y84504D01*
X23358Y84503D01*
X23344Y84482D01*
X23330Y84461D01*
X23329Y84460D01*
X23329Y84460D01*
X23312Y84440D01*
X23295Y84421D01*
X23295Y84421D01*
X23294Y84420D01*
X23276Y84404D01*
X23256Y84387D01*
X23255Y84386D01*
X23255Y84386D01*
X23233Y84371D01*
X23212Y84358D01*
X23212Y84357D01*
X23211Y84357D01*
X21046Y83117D01*
X21023Y83106D01*
X21000Y83094D01*
X20999Y83094D01*
X20999Y83094D01*
X20975Y83086D01*
X20950Y83077D01*
X20949Y83077D01*
X20949Y83077D01*
X20923Y83072D01*
X20899Y83067D01*
X20898Y83067D01*
X20897Y83067D01*
X20873Y83065D01*
X20846Y83064D01*
X9862D01*
X9836Y83065D01*
X9811Y83067D01*
X9811Y83067D01*
X9810Y83067D01*
X9786Y83072D01*
X9760Y83077D01*
X9759Y83077D01*
X9759Y83077D01*
X9734Y83086D01*
X9710Y83094D01*
X9709Y83094D01*
X9709Y83094D01*
X9686Y83105D01*
X9663Y83117D01*
X7498Y84357D01*
X7497Y84357D01*
X7496Y84358D01*
X7476Y84371D01*
X7454Y84386D01*
X7453Y84386D01*
X7453Y84387D01*
X7433Y84404D01*
X7414Y84420D01*
X7414Y84421D01*
X7413Y84421D01*
X7397Y84440D01*
X7380Y84460D01*
X7379Y84460D01*
X7379Y84461D01*
X7365Y84482D01*
X7350Y84503D01*
X7350Y84504D01*
X7350Y84504D01*
X7338Y84528D01*
X7327Y84550D01*
X7327Y84551D01*
X7327Y84551D01*
X7318Y84576D01*
X7310Y84600D01*
X7310Y84600D01*
X7310Y84601D01*
X7305Y84626D01*
X7300Y84651D01*
X7300Y84652D01*
X7299Y84652D01*
X7298Y84680D01*
X7296Y84703D01*
X7296Y84704D01*
X7296Y84705D01*
Y89173D01*
X7299Y89226D01*
X7310Y89277D01*
X7327Y89327D01*
X7350Y89374D01*
X7379Y89417D01*
X7413Y89457D01*
X7453Y89491D01*
X7496Y89520D01*
X7543Y89544D01*
X7593Y89560D01*
X7644Y89571D01*
X7697Y89574D01*
X10748D01*
X10771Y89573D01*
X10795Y89571D01*
X10798Y89571D01*
X10800Y89571D01*
X10824Y89566D01*
X10847Y89562D01*
X10849Y89561D01*
X10852Y89560D01*
X10874Y89553D01*
X10897Y89546D01*
X10899Y89544D01*
X10901Y89544D01*
X10922Y89533D01*
X10944Y89523D01*
X10946Y89521D01*
X10949Y89520D01*
X10968Y89507D01*
X10988Y89494D01*
X10990Y89493D01*
X10992Y89491D01*
X11010Y89476D01*
X11028Y89460D01*
X13254Y87291D01*
X17455D01*
X19681Y89460D01*
X19699Y89476D01*
X19717Y89491D01*
X19719Y89493D01*
X19721Y89494D01*
X19740Y89507D01*
X19760Y89520D01*
X19762Y89521D01*
X19765Y89523D01*
X19786Y89533D01*
X19807Y89544D01*
X19810Y89544D01*
X19812Y89546D01*
X19835Y89553D01*
X19857Y89560D01*
X19859Y89561D01*
X19862Y89562D01*
X19885Y89566D01*
X19908Y89571D01*
X19911Y89571D01*
X19913Y89571D01*
X19937Y89573D01*
X19961Y89574D01*
X23012D01*
X23064Y89571D01*
D02*
G37*
G36*
X20873Y146462D02*
X20897Y146461D01*
X20898Y146460D01*
X20899Y146460D01*
X20923Y146456D01*
X20949Y146450D01*
X20949Y146450D01*
X20950Y146450D01*
X20975Y146442D01*
X20999Y146434D01*
X20999Y146434D01*
X21000Y146433D01*
X21023Y146422D01*
X21046Y146411D01*
X23211Y145171D01*
X23212Y145170D01*
X23212Y145170D01*
X23233Y145156D01*
X23255Y145142D01*
X23255Y145141D01*
X23256Y145141D01*
X23276Y145124D01*
X23294Y145107D01*
X23295Y145107D01*
X23295Y145106D01*
X23312Y145087D01*
X23329Y145068D01*
X23329Y145067D01*
X23330Y145067D01*
X23344Y145045D01*
X23358Y145025D01*
X23359Y145024D01*
X23359Y145023D01*
X23371Y145000D01*
X23382Y144977D01*
X23382Y144977D01*
X23382Y144976D01*
X23391Y144951D01*
X23399Y144928D01*
X23399Y144927D01*
X23399Y144927D01*
X23404Y144900D01*
X23409Y144877D01*
X23409Y144876D01*
X23409Y144875D01*
X23411Y144848D01*
X23413Y144824D01*
X23413Y144824D01*
X23413Y144823D01*
Y140354D01*
X23409Y140302D01*
X23399Y140251D01*
X23382Y140201D01*
X23359Y140154D01*
X23330Y140110D01*
X23295Y140071D01*
X23256Y140036D01*
X23212Y140007D01*
X23165Y139984D01*
X23116Y139967D01*
X23064Y139957D01*
X23012Y139953D01*
X19961D01*
X19937Y139955D01*
X19913Y139956D01*
X19911Y139957D01*
X19908Y139957D01*
X19885Y139962D01*
X19862Y139966D01*
X19859Y139967D01*
X19857Y139967D01*
X19835Y139975D01*
X19812Y139982D01*
X19810Y139983D01*
X19807Y139984D01*
X19786Y139994D01*
X19765Y140005D01*
X19762Y140006D01*
X19760Y140007D01*
X19740Y140020D01*
X19721Y140033D01*
X19719Y140035D01*
X19717Y140036D01*
X19699Y140052D01*
X19681Y140067D01*
X17455Y142237D01*
X13254D01*
X11028Y140067D01*
X11010Y140052D01*
X10992Y140036D01*
X10990Y140035D01*
X10988Y140033D01*
X10968Y140020D01*
X10949Y140007D01*
X10946Y140006D01*
X10944Y140005D01*
X10922Y139994D01*
X10901Y139984D01*
X10899Y139983D01*
X10897Y139982D01*
X10874Y139975D01*
X10852Y139967D01*
X10849Y139967D01*
X10847Y139966D01*
X10824Y139962D01*
X10800Y139957D01*
X10798Y139957D01*
X10795Y139956D01*
X10771Y139955D01*
X10748Y139953D01*
X7697D01*
X7644Y139957D01*
X7593Y139967D01*
X7543Y139984D01*
X7496Y140007D01*
X7453Y140036D01*
X7413Y140071D01*
X7379Y140110D01*
X7350Y140154D01*
X7327Y140201D01*
X7310Y140251D01*
X7299Y140302D01*
X7296Y140354D01*
Y144823D01*
X7296Y144824D01*
X7296Y144824D01*
X7298Y144848D01*
X7299Y144875D01*
X7300Y144876D01*
X7300Y144877D01*
X7305Y144901D01*
X7310Y144927D01*
X7310Y144927D01*
X7310Y144928D01*
X7318Y144951D01*
X7327Y144976D01*
X7327Y144977D01*
X7327Y144977D01*
X7338Y144999D01*
X7350Y145023D01*
X7350Y145024D01*
X7350Y145025D01*
X7365Y145045D01*
X7379Y145067D01*
X7379Y145067D01*
X7380Y145068D01*
X7397Y145087D01*
X7413Y145106D01*
X7414Y145107D01*
X7414Y145107D01*
X7433Y145124D01*
X7453Y145141D01*
X7453Y145141D01*
X7454Y145142D01*
X7476Y145156D01*
X7496Y145170D01*
X7497Y145170D01*
X7498Y145171D01*
X9663Y146411D01*
X9686Y146422D01*
X9709Y146433D01*
X9709Y146434D01*
X9710Y146434D01*
X9734Y146442D01*
X9759Y146450D01*
X9759Y146450D01*
X9760Y146450D01*
X9786Y146456D01*
X9810Y146460D01*
X9811Y146460D01*
X9811Y146461D01*
X9836Y146462D01*
X9862Y146464D01*
X20846D01*
X20873Y146462D01*
D02*
G37*
G36*
X23064Y134846D02*
X23116Y134836D01*
X23165Y134819D01*
X23212Y134796D01*
X23256Y134767D01*
X23295Y134732D01*
X23330Y134693D01*
X23359Y134649D01*
X23382Y134602D01*
X23399Y134553D01*
X23409Y134501D01*
X23413Y134449D01*
Y129980D01*
X23413Y129980D01*
X23413Y129979D01*
X23411Y129955D01*
X23409Y129928D01*
X23409Y129927D01*
X23409Y129927D01*
X23404Y129903D01*
X23399Y129877D01*
X23399Y129876D01*
X23399Y129875D01*
X23391Y129852D01*
X23382Y129827D01*
X23382Y129826D01*
X23382Y129826D01*
X23371Y129804D01*
X23359Y129780D01*
X23359Y129779D01*
X23358Y129779D01*
X23344Y129758D01*
X23330Y129736D01*
X23329Y129736D01*
X23329Y129735D01*
X23312Y129716D01*
X23295Y129697D01*
X23295Y129696D01*
X23294Y129696D01*
X23276Y129680D01*
X23256Y129662D01*
X23255Y129662D01*
X23255Y129661D01*
X23233Y129647D01*
X23212Y129633D01*
X23212Y129633D01*
X23211Y129632D01*
X21046Y128392D01*
X21023Y128381D01*
X21000Y128370D01*
X20999Y128370D01*
X20999Y128369D01*
X20975Y128361D01*
X20950Y128353D01*
X20949Y128353D01*
X20949Y128353D01*
X20923Y128348D01*
X20899Y128343D01*
X20898Y128343D01*
X20897Y128342D01*
X20873Y128341D01*
X20846Y128339D01*
X9862D01*
X9836Y128341D01*
X9811Y128342D01*
X9811Y128343D01*
X9810Y128343D01*
X9786Y128348D01*
X9760Y128353D01*
X9759Y128353D01*
X9759Y128353D01*
X9734Y128361D01*
X9710Y128369D01*
X9709Y128370D01*
X9709Y128370D01*
X9686Y128381D01*
X9663Y128392D01*
X7498Y129632D01*
X7497Y129633D01*
X7496Y129633D01*
X7476Y129647D01*
X7454Y129661D01*
X7453Y129662D01*
X7453Y129662D01*
X7433Y129680D01*
X7414Y129696D01*
X7414Y129696D01*
X7413Y129697D01*
X7397Y129716D01*
X7380Y129735D01*
X7379Y129736D01*
X7379Y129736D01*
X7365Y129758D01*
X7350Y129779D01*
X7350Y129779D01*
X7350Y129780D01*
X7338Y129804D01*
X7327Y129826D01*
X7327Y129826D01*
X7327Y129827D01*
X7318Y129852D01*
X7310Y129875D01*
X7310Y129876D01*
X7310Y129877D01*
X7305Y129902D01*
X7300Y129927D01*
X7300Y129927D01*
X7299Y129928D01*
X7298Y129955D01*
X7296Y129979D01*
X7296Y129980D01*
X7296Y129980D01*
Y134449D01*
X7299Y134501D01*
X7310Y134553D01*
X7327Y134602D01*
X7350Y134649D01*
X7379Y134693D01*
X7413Y134732D01*
X7453Y134767D01*
X7496Y134796D01*
X7543Y134819D01*
X7593Y134836D01*
X7644Y134846D01*
X7697Y134850D01*
X10748D01*
X10771Y134848D01*
X10795Y134847D01*
X10798Y134846D01*
X10800Y134846D01*
X10824Y134842D01*
X10847Y134837D01*
X10849Y134836D01*
X10852Y134836D01*
X10874Y134828D01*
X10897Y134821D01*
X10899Y134820D01*
X10901Y134819D01*
X10922Y134809D01*
X10944Y134799D01*
X10946Y134797D01*
X10949Y134796D01*
X10968Y134783D01*
X10988Y134770D01*
X10990Y134768D01*
X10992Y134767D01*
X11010Y134751D01*
X11028Y134736D01*
X13254Y132566D01*
X17455D01*
X19681Y134736D01*
X19699Y134751D01*
X19717Y134767D01*
X19719Y134768D01*
X19721Y134770D01*
X19740Y134783D01*
X19760Y134796D01*
X19762Y134797D01*
X19765Y134799D01*
X19786Y134809D01*
X19807Y134819D01*
X19810Y134820D01*
X19812Y134821D01*
X19835Y134828D01*
X19857Y134836D01*
X19859Y134836D01*
X19862Y134837D01*
X19885Y134842D01*
X19908Y134846D01*
X19911Y134846D01*
X19913Y134847D01*
X19937Y134848D01*
X19961Y134850D01*
X23012D01*
X23064Y134846D01*
D02*
G37*
D11*
X-196850Y-196850D02*
X1456693D01*
X-196850D02*
Y972441D01*
X1456693Y-196850D02*
Y972441D01*
X-196850D02*
X1456693D01*
X1181102Y-196850D02*
Y-39370D01*
X984252Y-196850D02*
Y-39370D01*
X1456693D01*
X984252Y-157480D02*
X1456693D01*
X1181102Y-118110D02*
X1456693D01*
X1181102Y-78740D02*
X1456693D01*
X1338583Y-157480D02*
Y-118110D01*
X1190945Y-188976D02*
Y-183073D01*
X1193897D01*
X1194881Y-184057D01*
Y-186025D01*
X1193897Y-187009D01*
X1190945D01*
X1192913D02*
X1194881Y-188976D01*
X1196848D02*
Y-183073D01*
X1199800D01*
X1200784Y-184057D01*
Y-186025D01*
X1199800Y-187009D01*
X1196848D01*
X1202752Y-183073D02*
X1204720D01*
X1203736D01*
Y-188976D01*
X1202752D01*
X1204720D01*
X1207672Y-189960D02*
X1211607D01*
X1213575Y-183073D02*
Y-188976D01*
Y-186025D01*
X1217511D01*
Y-183073D01*
Y-188976D01*
X1219479D02*
Y-185041D01*
X1221447Y-183073D01*
X1223415Y-185041D01*
Y-188976D01*
Y-186025D01*
X1219479D01*
X1225383Y-183073D02*
X1229318D01*
X1227350D01*
Y-188976D01*
X1231286Y-189960D02*
X1235222D01*
X1241125Y-183073D02*
X1237190D01*
Y-186025D01*
X1239158D01*
X1237190D01*
Y-188976D01*
X1243093D02*
X1245061D01*
X1244077D01*
Y-183073D01*
X1243093D01*
X1248997Y-185041D02*
X1250965D01*
X1251949Y-186025D01*
Y-188976D01*
X1248997D01*
X1248013Y-187993D01*
X1248997Y-187009D01*
X1251949D01*
X1253917Y-188976D02*
X1256868D01*
X1257852Y-187993D01*
X1256868Y-187009D01*
X1254900D01*
X1253917Y-186025D01*
X1254900Y-185041D01*
X1257852D01*
X1259820Y-183073D02*
Y-188976D01*
Y-186025D01*
X1260804Y-185041D01*
X1262772D01*
X1263756Y-186025D01*
Y-188976D01*
X1265724Y-189960D02*
X1269660D01*
X1271627Y-184057D02*
X1272611Y-183073D01*
X1274579D01*
X1275563Y-184057D01*
Y-187993D01*
X1274579Y-188976D01*
X1272611D01*
X1271627Y-187993D01*
Y-184057D01*
X1277531D02*
X1278515Y-183073D01*
X1280483D01*
X1281467Y-184057D01*
Y-187993D01*
X1280483Y-188976D01*
X1278515D01*
X1277531Y-187993D01*
Y-184057D01*
X1283435Y-188976D02*
Y-187993D01*
X1284418D01*
Y-188976D01*
X1283435D01*
X1288354D02*
Y-183073D01*
X1291306D01*
X1292290Y-184057D01*
Y-186025D01*
X1291306Y-187009D01*
X1288354D01*
X1298194Y-185041D02*
X1295242D01*
X1294258Y-186025D01*
Y-187993D01*
X1295242Y-188976D01*
X1298194D01*
X1300161Y-183073D02*
Y-188976D01*
X1303113D01*
X1304097Y-187993D01*
Y-187009D01*
Y-186025D01*
X1303113Y-185041D01*
X1300161D01*
X1306065Y-183073D02*
Y-188976D01*
X1309017D01*
X1310001Y-187993D01*
Y-184057D01*
X1309017Y-183073D01*
X1306065D01*
X1312953Y-188976D02*
X1314921D01*
X1315904Y-187993D01*
Y-186025D01*
X1314921Y-185041D01*
X1312953D01*
X1311969Y-186025D01*
Y-187993D01*
X1312953Y-188976D01*
X1321808Y-185041D02*
X1318856D01*
X1317872Y-186025D01*
Y-187993D01*
X1318856Y-188976D01*
X1321808D01*
D12*
X1202756Y-96461D02*
X1211939D01*
X1207348D01*
Y-110236D01*
X1218827D02*
X1223419D01*
X1225714Y-107940D01*
Y-103349D01*
X1223419Y-101053D01*
X1218827D01*
X1216531Y-103349D01*
Y-107940D01*
X1218827Y-110236D01*
X1230306Y-114828D02*
Y-101053D01*
X1237194D01*
X1239489Y-103349D01*
Y-107940D01*
X1237194Y-110236D01*
X1230306D01*
X1267040Y-98757D02*
X1264744Y-96461D01*
X1260152D01*
X1257856Y-98757D01*
Y-101053D01*
X1260152Y-103349D01*
X1264744D01*
X1267040Y-105645D01*
Y-107940D01*
X1264744Y-110236D01*
X1260152D01*
X1257856Y-107940D01*
X1273927Y-110236D02*
X1278519D01*
X1280815Y-107940D01*
Y-103349D01*
X1278519Y-101053D01*
X1273927D01*
X1271631Y-103349D01*
Y-107940D01*
X1273927Y-110236D01*
X1285406D02*
X1289998D01*
X1287702D01*
Y-96461D01*
X1285406D01*
X1306069D02*
Y-110236D01*
X1299181D01*
X1296886Y-107940D01*
Y-103349D01*
X1299181Y-101053D01*
X1306069D01*
X1317548Y-110236D02*
X1312957D01*
X1310661Y-107940D01*
Y-103349D01*
X1312957Y-101053D01*
X1317548D01*
X1319844Y-103349D01*
Y-105645D01*
X1310661D01*
X1324436Y-101053D02*
Y-110236D01*
Y-105645D01*
X1326732Y-103349D01*
X1329027Y-101053D01*
X1331323D01*
X1190945Y-57092D02*
Y-72835D01*
Y-64963D01*
X1201440D01*
Y-57092D01*
Y-72835D01*
X1206688D02*
Y-62339D01*
X1211936Y-57092D01*
X1217183Y-62339D01*
Y-72835D01*
Y-64963D01*
X1206688D01*
X1222431Y-57092D02*
X1232926D01*
X1227678D01*
Y-72835D01*
X1238174Y-75459D02*
X1248669D01*
X1264412Y-57092D02*
X1253917D01*
Y-64963D01*
X1259164D01*
X1253917D01*
Y-72835D01*
X1269660Y-57092D02*
Y-72835D01*
X1280155D01*
X1285402D02*
Y-62339D01*
X1290650Y-57092D01*
X1295898Y-62339D01*
Y-72835D01*
Y-64963D01*
X1285402D01*
X1311641Y-59715D02*
X1309017Y-57092D01*
X1303769D01*
X1301145Y-59715D01*
Y-62339D01*
X1303769Y-64963D01*
X1309017D01*
X1311641Y-67587D01*
Y-70211D01*
X1309017Y-72835D01*
X1303769D01*
X1301145Y-70211D01*
X1316888Y-57092D02*
Y-72835D01*
Y-64963D01*
X1327384D01*
Y-57092D01*
Y-72835D01*
X1196850Y-151575D02*
X1201442D01*
X1199146D01*
Y-137800D01*
X1196850Y-140096D01*
X1217513Y-137800D02*
X1208330D01*
Y-144687D01*
X1212921Y-142391D01*
X1215217D01*
X1217513Y-144687D01*
Y-149279D01*
X1215217Y-151575D01*
X1210625D01*
X1208330Y-149279D01*
X1222105Y-151575D02*
X1231288Y-142391D01*
X1235880Y-140096D02*
X1238176Y-137800D01*
X1242767D01*
X1245063Y-140096D01*
Y-149279D01*
X1242767Y-151575D01*
X1238176D01*
X1235880Y-149279D01*
Y-140096D01*
X1258838Y-151575D02*
X1249655D01*
X1258838Y-142391D01*
Y-140096D01*
X1256542Y-137800D01*
X1251951D01*
X1249655Y-140096D01*
X1263430Y-151575D02*
X1272613Y-142391D01*
X1286388Y-151575D02*
X1277205D01*
X1286388Y-142391D01*
Y-140096D01*
X1284093Y-137800D01*
X1279501D01*
X1277205Y-140096D01*
X1290980D02*
X1293276Y-137800D01*
X1297868D01*
X1300163Y-140096D01*
Y-149279D01*
X1297868Y-151575D01*
X1293276D01*
X1290980Y-149279D01*
Y-140096D01*
X1304755Y-151575D02*
X1309347D01*
X1307051D01*
Y-137800D01*
X1304755Y-140096D01*
X1325418Y-137800D02*
X1316234D01*
Y-144687D01*
X1320826Y-142391D01*
X1323122D01*
X1325418Y-144687D01*
Y-149279D01*
X1323122Y-151575D01*
X1318530D01*
X1316234Y-149279D01*
X1360236Y-138456D02*
X1362860Y-135832D01*
X1368108D01*
X1370732Y-138456D01*
Y-148951D01*
X1368108Y-151575D01*
X1362860D01*
X1360236Y-148951D01*
Y-138456D01*
X1375979D02*
X1378603Y-135832D01*
X1383851D01*
X1386475Y-138456D01*
Y-148951D01*
X1383851Y-151575D01*
X1378603D01*
X1375979Y-148951D01*
Y-138456D01*
X1005906Y-175202D02*
Y-190945D01*
X1011153Y-185697D01*
X1016401Y-190945D01*
Y-175202D01*
X1021649Y-190945D02*
X1026896D01*
X1024272D01*
Y-180450D01*
X1021649D01*
X1034768Y-190945D02*
Y-180450D01*
X1037391D01*
X1040015Y-183073D01*
Y-190945D01*
Y-183073D01*
X1042639Y-180450D01*
X1045263Y-183073D01*
Y-190945D01*
X1050511Y-175202D02*
Y-185697D01*
X1055758Y-190945D01*
X1061006Y-185697D01*
Y-175202D01*
X1076749Y-177826D02*
X1074125Y-175202D01*
X1068877D01*
X1066253Y-177826D01*
Y-188321D01*
X1068877Y-190945D01*
X1074125D01*
X1076749Y-188321D01*
Y-183073D01*
X1071501D01*
D53*
X1185039Y-161420D02*
Y-169291D01*
X1188975D01*
X1190287Y-167979D01*
Y-162732D01*
X1188975Y-161420D01*
X1185039D01*
X1194223Y-169291D02*
X1196847D01*
X1198158Y-167979D01*
Y-165356D01*
X1196847Y-164044D01*
X1194223D01*
X1192911Y-165356D01*
Y-167979D01*
X1194223Y-169291D01*
X1206030Y-164044D02*
X1202094D01*
X1200782Y-165356D01*
Y-167979D01*
X1202094Y-169291D01*
X1206030D01*
X1208654Y-164044D02*
Y-167979D01*
X1209966Y-169291D01*
X1213902D01*
Y-164044D01*
X1216525Y-169291D02*
Y-164044D01*
X1217837D01*
X1219149Y-165356D01*
Y-169291D01*
Y-165356D01*
X1220461Y-164044D01*
X1221773Y-165356D01*
Y-169291D01*
X1228333D02*
X1225709D01*
X1224397Y-167979D01*
Y-165356D01*
X1225709Y-164044D01*
X1228333D01*
X1229644Y-165356D01*
Y-166667D01*
X1224397D01*
X1232268Y-169291D02*
Y-164044D01*
X1236204D01*
X1237516Y-165356D01*
Y-169291D01*
X1241452Y-162732D02*
Y-164044D01*
X1240140D01*
X1242764D01*
X1241452D01*
Y-167979D01*
X1242764Y-169291D01*
X1185039Y-122050D02*
Y-129921D01*
X1188975D01*
X1190287Y-128609D01*
Y-123362D01*
X1188975Y-122050D01*
X1185039D01*
X1194223Y-124674D02*
X1196847D01*
X1198158Y-125986D01*
Y-129921D01*
X1194223D01*
X1192911Y-128609D01*
X1194223Y-127297D01*
X1198158D01*
X1202094Y-123362D02*
Y-124674D01*
X1200782D01*
X1203406D01*
X1202094D01*
Y-128609D01*
X1203406Y-129921D01*
X1211278D02*
X1208654D01*
X1207342Y-128609D01*
Y-125986D01*
X1208654Y-124674D01*
X1211278D01*
X1212589Y-125986D01*
Y-127297D01*
X1207342D01*
X1185039Y-82680D02*
Y-90551D01*
X1190287D01*
X1194223Y-85303D02*
X1196847D01*
X1198158Y-86615D01*
Y-90551D01*
X1194223D01*
X1192911Y-89239D01*
X1194223Y-87927D01*
X1198158D01*
X1200782Y-85303D02*
Y-89239D01*
X1202094Y-90551D01*
X1206030D01*
Y-91863D01*
X1204718Y-93175D01*
X1203406D01*
X1206030Y-90551D02*
Y-85303D01*
X1212590Y-90551D02*
X1209966D01*
X1208654Y-89239D01*
Y-86615D01*
X1209966Y-85303D01*
X1212590D01*
X1213902Y-86615D01*
Y-87927D01*
X1208654D01*
X1216525Y-85303D02*
Y-90551D01*
Y-87927D01*
X1217837Y-86615D01*
X1219149Y-85303D01*
X1220461D01*
X1232268Y-90551D02*
Y-82680D01*
X1237516Y-90551D01*
Y-82680D01*
X1241452Y-85303D02*
X1244075D01*
X1245387Y-86615D01*
Y-90551D01*
X1241452D01*
X1240140Y-89239D01*
X1241452Y-87927D01*
X1245387D01*
X1248011Y-90551D02*
Y-85303D01*
X1249323D01*
X1250635Y-86615D01*
Y-90551D01*
Y-86615D01*
X1251947Y-85303D01*
X1253259Y-86615D01*
Y-90551D01*
X1259818D02*
X1257195D01*
X1255883Y-89239D01*
Y-86615D01*
X1257195Y-85303D01*
X1259818D01*
X1261130Y-86615D01*
Y-87927D01*
X1255883D01*
X1185039Y-43310D02*
Y-51181D01*
X1188975D01*
X1190287Y-49869D01*
Y-44622D01*
X1188975Y-43310D01*
X1185039D01*
X1194223Y-51181D02*
X1196847D01*
X1198158Y-49869D01*
Y-47245D01*
X1196847Y-45933D01*
X1194223D01*
X1192911Y-47245D01*
Y-49869D01*
X1194223Y-51181D01*
X1206030Y-45933D02*
X1202094D01*
X1200782Y-47245D01*
Y-49869D01*
X1202094Y-51181D01*
X1206030D01*
X1208654Y-45933D02*
Y-49869D01*
X1209966Y-51181D01*
X1213902D01*
Y-45933D01*
X1216525Y-51181D02*
Y-45933D01*
X1217837D01*
X1219149Y-47245D01*
Y-51181D01*
Y-47245D01*
X1220461Y-45933D01*
X1221773Y-47245D01*
Y-51181D01*
X1228333D02*
X1225709D01*
X1224397Y-49869D01*
Y-47245D01*
X1225709Y-45933D01*
X1228333D01*
X1229644Y-47245D01*
Y-48557D01*
X1224397D01*
X1232268Y-51181D02*
Y-45933D01*
X1236204D01*
X1237516Y-47245D01*
Y-51181D01*
X1241452Y-44622D02*
Y-45933D01*
X1240140D01*
X1242764D01*
X1241452D01*
Y-49869D01*
X1242764Y-51181D01*
X988189Y-161420D02*
Y-169291D01*
X992125D01*
X993437Y-167979D01*
Y-162732D01*
X992125Y-161420D01*
X988189D01*
X999996Y-169291D02*
X997372D01*
X996060Y-167979D01*
Y-165356D01*
X997372Y-164044D01*
X999996D01*
X1001308Y-165356D01*
Y-166667D01*
X996060D01*
X1003932Y-169291D02*
X1007868D01*
X1009180Y-167979D01*
X1007868Y-166667D01*
X1005244D01*
X1003932Y-165356D01*
X1005244Y-164044D01*
X1009180D01*
X1014427Y-171915D02*
X1015739D01*
X1017051Y-170603D01*
Y-164044D01*
X1013115D01*
X1011803Y-165356D01*
Y-167979D01*
X1013115Y-169291D01*
X1017051D01*
X1019675D02*
X1022299D01*
X1020987D01*
Y-164044D01*
X1019675D01*
X1026235Y-169291D02*
Y-164044D01*
X1030170D01*
X1031482Y-165356D01*
Y-169291D01*
X1038042D02*
X1035418D01*
X1034106Y-167979D01*
Y-165356D01*
X1035418Y-164044D01*
X1038042D01*
X1039354Y-165356D01*
Y-166667D01*
X1034106D01*
X1041977Y-164044D02*
Y-169291D01*
Y-166667D01*
X1043289Y-165356D01*
X1044601Y-164044D01*
X1045913D01*
X1342520Y-129921D02*
Y-122050D01*
X1346455D01*
X1347767Y-123362D01*
Y-125986D01*
X1346455Y-127297D01*
X1342520D01*
X1345144D02*
X1347767Y-129921D01*
X1354327D02*
X1351703D01*
X1350391Y-128609D01*
Y-125986D01*
X1351703Y-124674D01*
X1354327D01*
X1355639Y-125986D01*
Y-127297D01*
X1350391D01*
X1358263Y-124674D02*
X1360886Y-129921D01*
X1363510Y-124674D01*
D54*
X11811Y220472D02*
G03*
X0Y208661I0J-11811D01*
G01*
Y11811D02*
G03*
X11811Y0I11811J0D01*
G01*
X244094D02*
G03*
X255906Y11811I0J11811D01*
G01*
Y208661D02*
G03*
X244094Y220472I-11811J0D01*
G01*
X110236Y96457D02*
G03*
X114173Y92520I3937J0D01*
G01*
X141732D02*
G03*
X145669Y96457I0J3937D01*
G01*
Y124016D02*
G03*
X141732Y127953I-3937J0D01*
G01*
X114173D02*
G03*
X110236Y124016I0J-3937D01*
G01*
X255906Y11811D02*
Y208661D01*
X11811Y220472D02*
X244094D01*
X11811Y0D02*
X244094D01*
X114173Y127953D02*
X141732D01*
X145669Y96457D02*
Y124016D01*
X114173Y92520D02*
X141732D01*
X110236Y96457D02*
Y124016D01*
X0Y11811D02*
Y208661D01*
D63*
X15354Y130453D02*
D03*
Y144350D02*
D03*
Y85177D02*
D03*
Y99075D02*
D03*
D64*
X225394Y177165D02*
D03*
X231299D02*
D03*
X225394Y187008D02*
D03*
X231299D02*
D03*
X22244Y158071D02*
D03*
X16339D02*
D03*
X212598Y192913D02*
D03*
X206693D02*
D03*
D65*
X202756Y179134D02*
D03*
Y185039D02*
D03*
X35039Y152559D02*
D03*
Y146653D02*
D03*
X23622Y175197D02*
D03*
Y181102D02*
D03*
X37402Y138386D02*
D03*
Y132480D02*
D03*
X34843Y107087D02*
D03*
Y101181D02*
D03*
X37205Y93110D02*
D03*
Y87205D02*
D03*
D66*
X22244Y116339D02*
D03*
X33661D02*
D03*
X48622Y36614D02*
D03*
X37205D02*
D03*
D67*
X33858Y66142D02*
D03*
Y77559D02*
D03*
D68*
X26181Y151575D02*
D03*
X18701D02*
D03*
X26181Y106299D02*
D03*
X18701D02*
D03*
D69*
X75171Y94259D02*
D03*
D70*
X71683Y105756D02*
D03*
X76982Y85981D02*
D03*
D71*
X90231Y70009D02*
D03*
D72*
X81462Y78221D02*
D03*
X95938Y63745D02*
D03*
D73*
X115398Y56538D02*
D03*
X140507Y163935D02*
D03*
D74*
X103698Y59265D02*
D03*
X123473Y53967D02*
D03*
X152208Y161207D02*
D03*
X132433Y166506D02*
D03*
D75*
X143930Y57455D02*
D03*
X111976Y163018D02*
D03*
D76*
X132433Y53967D02*
D03*
X152208Y59265D02*
D03*
X123473Y166506D02*
D03*
X103698Y161207D02*
D03*
D77*
X168180Y72515D02*
D03*
D78*
X159967Y63745D02*
D03*
X174444Y78221D02*
D03*
D79*
X181651Y97682D02*
D03*
D80*
X178924Y85981D02*
D03*
X184222Y105756D02*
D03*
D81*
X174801Y139330D02*
D03*
X60648Y69332D02*
D03*
X195258Y151141D02*
D03*
D82*
X181146Y129127D02*
D03*
X170909Y146857D02*
D03*
X54303Y79534D02*
D03*
X64539Y61804D02*
D03*
X201603Y140938D02*
D03*
X191367Y158668D02*
D03*
D83*
X79333Y136261D02*
D03*
X197030Y72400D02*
D03*
X58876Y148072D02*
D03*
D84*
X84996Y146857D02*
D03*
X74760Y129127D02*
D03*
X191367Y61804D02*
D03*
X201603Y79534D02*
D03*
X64539Y158668D02*
D03*
X54303Y140938D02*
D03*
D85*
X26772Y122992D02*
D03*
Y128189D02*
D03*
Y77716D02*
D03*
Y82913D02*
D03*
D86*
X26969Y133071D02*
D03*
X29528D02*
D03*
X32087D02*
D03*
Y141732D02*
D03*
X26969D02*
D03*
Y87795D02*
D03*
X29528D02*
D03*
X32087D02*
D03*
Y96457D02*
D03*
X26969D02*
D03*
D87*
X17323Y181102D02*
D03*
X7874Y184842D02*
D03*
D88*
X17323Y188582D02*
D03*
D89*
X8858Y174114D02*
D03*
X16339D02*
D03*
Y164862D02*
D03*
X12599D02*
D03*
X8858D02*
D03*
X12599Y174114D02*
D03*
D90*
X49213Y108465D02*
D03*
X206693Y112008D02*
D03*
D91*
X48819Y120472D02*
D03*
Y100000D02*
D03*
X207087D02*
D03*
Y120472D02*
D03*
D92*
X90117Y41159D02*
D03*
X165789Y179313D02*
D03*
D93*
X79521Y46822D02*
D03*
X97251Y36586D02*
D03*
X176384Y173650D02*
D03*
X158655Y183886D02*
D03*
D94*
X129724Y31496D02*
D03*
X126181Y188976D02*
D03*
D95*
X117717Y31102D02*
D03*
X138189D02*
D03*
Y189370D02*
D03*
X117717D02*
D03*
D96*
X168857Y42931D02*
D03*
X87048Y177541D02*
D03*
D97*
X158655Y36586D02*
D03*
X176384Y46822D02*
D03*
X97251Y183886D02*
D03*
X79521Y173650D02*
D03*
D98*
X209941Y178347D02*
D03*
Y185827D02*
D03*
X219193D02*
D03*
Y182087D02*
D03*
Y178347D02*
D03*
D99*
X102954Y201693D02*
D03*
X102954Y211693D02*
D03*
X82954D02*
D03*
Y201693D02*
D03*
X92954Y211693D02*
D03*
X92954Y201693D02*
D03*
X62954Y211693D02*
D03*
Y201693D02*
D03*
X72954Y211693D02*
D03*
X72953Y201693D02*
D03*
X52953D02*
D03*
X52953Y211693D02*
D03*
X42954Y201693D02*
D03*
Y211693D02*
D03*
X32954Y201693D02*
D03*
X112954Y211693D02*
D03*
Y201693D02*
D03*
X132954D02*
D03*
X132954Y211693D02*
D03*
X122954Y201693D02*
D03*
Y211693D02*
D03*
X142954Y201693D02*
D03*
Y211693D02*
D03*
X212954D02*
D03*
Y201693D02*
D03*
X222954Y211693D02*
D03*
X222954Y201693D02*
D03*
X202954Y201693D02*
D03*
X202954Y211693D02*
D03*
X162954Y201693D02*
D03*
X162954Y211693D02*
D03*
X152954Y201693D02*
D03*
Y211693D02*
D03*
X182954Y201693D02*
D03*
X182954Y211693D02*
D03*
X172954Y201693D02*
D03*
Y211693D02*
D03*
X192954D02*
D03*
X192954Y201693D02*
D03*
D100*
X32954Y211693D02*
D03*
D101*
X37244Y13583D02*
D03*
D102*
X57244D02*
D03*
D103*
X169291Y160433D02*
D03*
Y111220D02*
D03*
X86614D02*
D03*
Y160433D02*
D03*
D104*
X238661Y167323D02*
D03*
X208661D02*
D03*
X218661D02*
D03*
X238661Y187323D02*
D03*
Y177323D02*
D03*
D105*
X13780Y13780D02*
D03*
Y206693D02*
D03*
X242126D02*
D03*
Y13780D02*
D03*
M02*
