M48
;Layer_Color=9474304
;FILE_FORMAT=2:5
INCH,LZ
;TYPE=PLATED
T1F00S00C0.01181
T2F00S00C0.02362
T3F00S00C0.03543
T4F00S00C0.05118
;TYPE=NON_PLATED
T5F00S00C0.07874
T6F00S00C0.10827
%
T01
X0133071Y0026378
Y0036614
X0142022Y0051645
X0145254Y0052511
X0148487Y0053377
X0145837Y0063265
X0142605Y0062398
X0139373Y0061532
X0169433Y0066529
X0171799Y0068896
X0174165Y0071262
X0164561Y0076134
X0162195Y0073767
X0166927Y00785
X0175841Y0095774
X0176708Y0099007
X0177574Y0102239
X0187461Y009959
X0186595Y0096357
X0185729Y0093125
X019427Y0077858
X0192597Y0074959
X0190924Y0072061
X0201462Y0069841
X0203135Y0072739
X0199789Y0066943
X0201575Y0108661
Y0112008
Y0115354
X0211811
Y0112008
Y0108661
X0169196Y0049037
X0166298Y0047363
X01634Y004569
X0168518Y0036825
X0171416Y0038499
X0174314Y0040172
X0129724Y0036614
X0126378
Y0026378
X0129724
X0117306Y0050728
X0114074Y0051594
X0110841Y005246
X0113491Y0062348
X0116723Y0061481
X0119956Y0060615
X0096216Y0071262
X009385Y0073628
X0091484Y0075994
X0086612Y006639
X0084246Y0068756
X0088978Y0064024
X0089778Y0047265
X0092676Y0045592
X0095574Y0043919
X0090456Y0035054
X0087558Y0036727
X008466Y00384
X0052756Y0038583
Y0034646
X0057888Y0063875
X0056215Y0066773
X0054542Y0069671
X006508Y0071891
X0066753Y0068993
X0063407Y0074789
X0071094Y0089702
X0070228Y0092935
X0069362Y0096167
X0080115Y0095584
X0079249Y0098816
X0080981Y0092352
X0070866Y0109252
X0054331Y0108465
Y0111811
Y0105118
X0044094
Y0108465
Y0111811
X0030315Y0108268
Y0104331
X0029528Y0091535
X0031299Y0082874
X004626Y008563
X0045276Y0089567
X0028346Y0066142
X001811Y011437
Y0118307
X0031299Y012815
X0072945Y0125984
X0082092Y0130804
X0083766Y0133702
X0085439Y01366
X0074901Y013882
X0076574Y0141718
X0073228Y0135922
X0061635Y0142615
X0063308Y0145513
X0064982Y0148411
X0054444Y0150631
X005277Y0147733
X0056117Y0153529
X0030315Y0153543
Y0149606
X0036417Y0142126
X0029528Y0136811
X0022244Y0161811
X0023623Y0171259
X0086709Y0171436
X0089607Y0173109
X0092506Y0174782
X0087387Y0183647
X0084489Y0181974
X0081591Y0180301
X0107419Y0167095
X0110651Y0167961
X0113884Y0168827
X0113301Y0158074
X0116533Y015894
X0110068Y0157208
X0122835Y0183858
X0126181
X0129527
Y0194095
X0126181
X0122835
X0138599Y0169745
X0141832Y0168878
X0145064Y0168012
X0142415Y0158125
X0139182Y0158991
X013595Y0159857
X0160331Y0176554
X016323Y0174881
X0166128Y0173207
X0168348Y0183746
X016545Y0185419
X0171246Y0182072
X017756Y0144787
X0179233Y0141889
X0180906Y013899
X0170368Y013677
X0172041Y0133872
X0168695Y0139669
X0192499Y0145683
X0190825Y0148582
X0189152Y015148
X019969Y01537
X0201364Y0150802
X0198017Y0156598
X0209941Y0189272
X0208268Y0197638
X022441Y0182087
T02
X0208661Y0167323
X0218661
X0238661
Y0177323
Y0187323
T03
X0032954Y0201693
X0042954
X0052953
X0052953Y0211693
X0062954Y0211693
Y0201693
X0072953
X0072954Y0211693
X0082954Y0211693
Y0201693
X0092954Y0201693
X0102954
X0102954Y0211693
X0112954Y0211693
Y0201693
X0122954
Y0211693
X0092954
X0042954
X0032954
X0132954Y0211693
X0132954Y0201693
X0142954
Y0211693
X0152954
Y0201693
X0162954
X0162954Y0211693
X0172954Y0211693
Y0201693
X0182954Y0201693
X0182954Y0211693
X0192954Y0211693
X0192954Y0201693
X0202954Y0201693
X0202954Y0211693
X0212954
Y0201693
X0222954
X0222954Y0211693
T04
X0037244Y0013583
X0057244
T05
X0169291Y011122
X0086614
Y0160433
X0169291
T06
X0242126Y001378
X001378
Y0206693
X0242126
M30
